<?xml version="1.0" encoding="UTF-8" standalone="no"?>
<!DOCTYPE svg PUBLIC "-//W3C//DTD SVG 1.1//EN"
 "http://www.w3.org/Graphics/SVG/1.1/DTD/svg11.dtd">
<!-- Generated by graphviz version 2.40.1 (0)
 -->
<!-- Title: %3 Pages: 1 -->
<svg width="986pt" height="147pt"
 viewBox="0.00 0.00 986.26 147.24" xmlns="http://www.w3.org/2000/svg" xmlns:xlink="http://www.w3.org/1999/xlink">
<g id="graph0" class="graph" transform="scale(1 1) rotate(0) translate(4 143.2376)">
<title>%3</title>
<polygon fill="#ffffff" stroke="transparent" points="-4,4 -4,-143.2376 982.2635,-143.2376 982.2635,4 -4,4"/>
<!-- &#45;1 -->
<g id="node1" class="node">
<title>&#45;1</title>
<polygon fill="#d3d3d3" stroke="#000000" points="320,-131.9741 294,-131.9741 294,-113.9741 320,-113.9741 320,-131.9741"/>
<text text-anchor="middle" x="307" y="-120.7741" font-family="Times,serif" font-size="9.00" fill="#000000">&#45;1</text>
</g>
<!-- s -->
<g id="node21" class="node">
<title>s</title>
<ellipse fill="#add8e6" stroke="#000000" cx="532" cy="-35.3553" rx="14.7" ry="14.7"/>
<text text-anchor="middle" x="532" y="-33.1553" font-family="Times,serif" font-size="9.00" fill="#000000">s</text>
</g>
<!-- &#45;1&#45;&gt;s -->
<g id="edge1" class="edge">
<title>&#45;1&#45;&gt;s</title>
<path fill="none" stroke="#00ff00" stroke-width=".349" d="M317.6003,-113.6839C321.0409,-111.0814 325.0056,-108.4826 329,-106.7107 403.1774,-73.8049 440.4104,-115.6187 508,-70.7107 512.9433,-67.4262 517.1408,-62.7419 520.5759,-57.8534"/>
<polygon fill="#00ff00" stroke="#00ff00" stroke-width=".349" points="523.7024,-59.4493 525.932,-49.0917 517.7299,-55.7982 523.7024,-59.4493"/>
</g>
<!-- right -->
<g id="node22" class="node">
<title>right</title>
<ellipse fill="#add8e6" stroke="#000000" cx="320" cy="-35.3553" rx="28.0702" ry="28.0702"/>
<text text-anchor="middle" x="320" y="-33.1553" font-family="Times,serif" font-size="9.00" fill="#000000">right</text>
</g>
<!-- &#45;1&#45;&gt;right -->
<g id="edge2" class="edge">
<title>&#45;1&#45;&gt;right</title>
<path fill="none" stroke="#00ff00" stroke-width=".2576" d="M308.3423,-113.9274C309.7654,-104.3355 312.1092,-88.5387 314.3234,-73.6151"/>
<polygon fill="#00ff00" stroke="#00ff00" stroke-width=".2576" points="317.8171,-73.9152 315.8227,-63.5098 310.8929,-72.8878 317.8171,-73.9152"/>
</g>
<!-- jump -->
<g id="node23" class="node">
<title>jump</title>
<ellipse fill="#add8e6" stroke="#000000" cx="395" cy="-35.3553" rx="28.0702" ry="28.0702"/>
<text text-anchor="middle" x="395" y="-33.1553" font-family="Times,serif" font-size="9.00" fill="#000000">jump</text>
</g>
<!-- &#45;1&#45;&gt;jump -->
<g id="edge3" class="edge">
<title>&#45;1&#45;&gt;jump</title>
<path fill="none" stroke="#ff0000" stroke-width=".1293" d="M316.0861,-113.9274C328.1514,-101.9144 349.9919,-80.1684 367.6422,-62.5947"/>
<polygon fill="#ff0000" stroke="#ff0000" stroke-width=".1293" points="370.2923,-64.895 374.9093,-55.359 365.3533,-59.9345 370.2923,-64.895"/>
</g>
<!-- shoot -->
<g id="node24" class="node">
<title>shoot</title>
<ellipse fill="#add8e6" stroke="#000000" cx="470" cy="-35.3553" rx="28.9828" ry="28.9828"/>
<text text-anchor="middle" x="470" y="-33.1553" font-family="Times,serif" font-size="9.00" fill="#000000">shoot</text>
</g>
<!-- &#45;1&#45;&gt;shoot -->
<g id="edge4" class="edge">
<title>&#45;1&#45;&gt;shoot</title>
<path fill="none" stroke="#ff0000" stroke-width=".1237" d="M318.2145,-113.6791C321.5507,-111.1969 325.305,-108.6646 329,-106.7107 371.8689,-84.0421 390.4768,-95.7593 432,-70.7107 435.4601,-68.6234 438.874,-66.1825 442.1517,-63.5759"/>
<polygon fill="#ff0000" stroke="#ff0000" stroke-width=".1237" points="444.6623,-66.0334 449.9675,-56.8624 440.1012,-60.7233 444.6623,-66.0334"/>
</g>
<!-- release -->
<g id="node25" class="node">
<title>release</title>
<ellipse fill="#add8e6" stroke="#000000" cx="618" cy="-35.3553" rx="35.2113" ry="35.2113"/>
<text text-anchor="middle" x="618" y="-33.1553" font-family="Times,serif" font-size="9.00" fill="#000000">release</text>
</g>
<!-- &#45;1&#45;&gt;release -->
<g id="edge5" class="edge">
<title>&#45;1&#45;&gt;release</title>
<path fill="none" stroke="#00ff00" stroke-width=".3086" d="M317.0993,-113.8942C320.6372,-111.1712 324.7848,-108.4495 329,-106.7107 430.7418,-64.7417 473.1246,-114.7214 574,-70.7107 577.2419,-69.2963 580.4442,-67.5779 583.5538,-65.6694"/>
<polygon fill="#00ff00" stroke="#00ff00" stroke-width=".3086" points="585.7437,-68.4122 592.0273,-59.8818 581.7956,-62.6319 585.7437,-68.4122"/>
</g>
<!-- &#45;2 -->
<g id="node2" class="node">
<title>&#45;2</title>
<polygon fill="#d3d3d3" stroke="#000000" points="364,-131.9741 338,-131.9741 338,-113.9741 364,-113.9741 364,-131.9741"/>
<text text-anchor="middle" x="351" y="-120.7741" font-family="Times,serif" font-size="9.00" fill="#000000">&#45;2</text>
</g>
<!-- &#45;2&#45;&gt;s -->
<g id="edge6" class="edge">
<title>&#45;2&#45;&gt;s</title>
<path fill="none" stroke="#00ff00" stroke-width=".2992" d="M361.6705,-113.8356C365.1138,-111.2393 369.0626,-108.6059 373,-106.7107 428.9527,-79.7794 457.3713,-106.6653 508,-70.7107 512.8389,-67.2743 516.9972,-62.533 520.4278,-57.6379"/>
<polygon fill="#00ff00" stroke="#00ff00" stroke-width=".2992" points="523.5401,-59.2589 525.8067,-48.9093 517.5807,-55.5865 523.5401,-59.2589"/>
</g>
<!-- &#45;2&#45;&gt;right -->
<g id="edge7" class="edge">
<title>&#45;2&#45;&gt;right</title>
<path fill="none" stroke="#00ff00" stroke-width=".6318" d="M347.7992,-113.9274C344.2968,-104.0281 338.456,-87.5197 333.0298,-72.183"/>
<polygon fill="#00ff00" stroke="#00ff00" stroke-width=".6318" points="336.1877,-70.615 329.5527,-62.3551 329.5886,-72.9498 336.1877,-70.615"/>
</g>
<!-- &#45;2&#45;&gt;jump -->
<g id="edge8" class="edge">
<title>&#45;2&#45;&gt;jump</title>
<path fill="none" stroke="#00ff00" stroke-width=".2149" d="M355.543,-113.9274C360.7557,-103.5472 369.6177,-85.9 377.624,-69.9568"/>
<polygon fill="#00ff00" stroke="#00ff00" stroke-width=".2149" points="380.8451,-71.3416 382.205,-60.8344 374.5895,-68.2002 380.8451,-71.3416"/>
</g>
<!-- &#45;2&#45;&gt;shoot -->
<g id="edge9" class="edge">
<title>&#45;2&#45;&gt;shoot</title>
<path fill="none" stroke="#00ff00" stroke-width=".2" d="M362.9654,-113.8307C366.1831,-111.4544 369.6896,-108.9378 373,-106.7107 398.4869,-89.5636 407.52,-89.2669 432,-70.7107 435.2203,-68.2696 438.4784,-65.5989 441.6623,-62.8539"/>
<polygon fill="#00ff00" stroke="#00ff00" stroke-width=".2" points="444.2416,-65.2425 449.3598,-55.9659 439.5738,-60.0261 444.2416,-65.2425"/>
</g>
<!-- &#45;2&#45;&gt;release -->
<g id="edge10" class="edge">
<title>&#45;2&#45;&gt;release</title>
<path fill="none" stroke="#00ff00" stroke-width=".3525" d="M361.1319,-113.9713C364.6719,-111.2535 368.8125,-108.5153 373,-106.7107 456.3447,-70.7927 491.396,-108.3008 574,-70.7107 577.2193,-69.2457 580.4055,-67.491 583.5039,-65.5574"/>
<polygon fill="#00ff00" stroke="#00ff00" stroke-width=".3525" points="585.7133,-68.2853 591.958,-59.7264 581.7389,-62.523 585.7133,-68.2853"/>
</g>
<!-- &#45;3 -->
<g id="node3" class="node">
<title>&#45;3</title>
<polygon fill="#d3d3d3" stroke="#000000" points="408,-131.9741 382,-131.9741 382,-113.9741 408,-113.9741 408,-131.9741"/>
<text text-anchor="middle" x="395" y="-120.7741" font-family="Times,serif" font-size="9.00" fill="#000000">&#45;3</text>
</g>
<!-- &#45;3&#45;&gt;s -->
<g id="edge11" class="edge">
<title>&#45;3&#45;&gt;s</title>
<path fill="none" stroke="#ff0000" stroke-width=".3684" d="M406.2665,-113.7752C409.6036,-111.2945 413.3453,-108.7389 417,-106.7107 455.0304,-85.6051 474.0592,-97.9094 508,-70.7107 512.559,-67.0573 516.5842,-62.306 519.9727,-57.4779"/>
<polygon fill="#ff0000" stroke="#ff0000" stroke-width=".3684" points="522.9919,-59.2516 525.3619,-48.9252 517.0696,-55.5198 522.9919,-59.2516"/>
</g>
<!-- &#45;3&#45;&gt;right -->
<g id="edge12" class="edge">
<title>&#45;3&#45;&gt;right</title>
<path fill="none" stroke="#ff0000" stroke-width=".2644" d="M387.2562,-113.9274C377.3896,-102.4008 359.8529,-81.9135 345.1604,-64.749"/>
<polygon fill="#ff0000" stroke="#ff0000" stroke-width=".2644" points="347.8095,-62.4615 338.6477,-57.1406 342.4917,-67.0135 347.8095,-62.4615"/>
</g>
<!-- &#45;3&#45;&gt;jump -->
<g id="edge13" class="edge">
<title>&#45;3&#45;&gt;jump</title>
<path fill="none" stroke="#00ff00" stroke-width=".2778" d="M395,-113.9274C395,-104.4066 395,-88.7724 395,-73.9469"/>
<polygon fill="#00ff00" stroke="#00ff00" stroke-width=".2778" points="398.5001,-73.8972 395,-63.8973 391.5001,-73.8973 398.5001,-73.8972"/>
</g>
<!-- &#45;3&#45;&gt;shoot -->
<g id="edge14" class="edge">
<title>&#45;3&#45;&gt;shoot</title>
<path fill="none" stroke="#00ff00" stroke-width=".4948" d="M402.7438,-113.9274C412.4572,-102.5798 429.6043,-82.5476 444.1531,-65.551"/>
<polygon fill="#00ff00" stroke="#00ff00" stroke-width=".4948" points="447.1986,-67.3754 451.0425,-57.5024 441.8807,-62.8234 447.1986,-67.3754"/>
</g>
<!-- &#45;3&#45;&gt;release -->
<g id="edge15" class="edge">
<title>&#45;3&#45;&gt;release</title>
<path fill="none" stroke="#00ff00" stroke-width=".2138" d="M405.6302,-113.75C409.0719,-111.1501 413.0298,-108.5363 417,-106.7107 482.042,-76.8028 509.5739,-101.9232 574,-70.7107 577.1831,-69.1686 580.3433,-67.3585 583.4237,-65.3867"/>
<polygon fill="#00ff00" stroke="#00ff00" stroke-width=".2138" points="585.6622,-68.092 591.8468,-59.4895 581.6475,-62.3577 585.6622,-68.092"/>
</g>
<!-- &#45;4 -->
<g id="node4" class="node">
<title>&#45;4</title>
<polygon fill="#d3d3d3" stroke="#000000" points="452,-131.9741 426,-131.9741 426,-113.9741 452,-113.9741 452,-131.9741"/>
<text text-anchor="middle" x="439" y="-120.7741" font-family="Times,serif" font-size="9.00" fill="#000000">&#45;4</text>
</g>
<!-- &#45;4&#45;&gt;s -->
<g id="edge16" class="edge">
<title>&#45;4&#45;&gt;s</title>
<path fill="none" stroke="#ff0000" stroke-width=".2461" d="M451.1161,-113.9566C470.2598,-99.6859 505.5943,-73.2445 508,-70.7107 511.8597,-66.6453 515.5319,-61.8996 518.7909,-57.2294"/>
<polygon fill="#ff0000" stroke="#ff0000" stroke-width=".2461" points="521.9321,-58.8218 524.4897,-48.5403 516.0787,-54.9828 521.9321,-58.8218"/>
</g>
<!-- &#45;4&#45;&gt;right -->
<g id="edge17" class="edge">
<title>&#45;4&#45;&gt;right</title>
<path fill="none" stroke="#ff0000" stroke-width=".2717" d="M427.0346,-113.8307C423.8169,-111.4544 420.3104,-108.9378 417,-106.7107 391.5131,-89.5636 382.48,-89.2669 358,-70.7107 354.6069,-68.1387 351.1718,-65.3117 347.8259,-62.4114"/>
<polygon fill="#ff0000" stroke="#ff0000" stroke-width=".2717" points="350.0196,-59.6772 340.242,-55.5968 345.3409,-64.884 350.0196,-59.6772"/>
</g>
<!-- &#45;4&#45;&gt;jump -->
<g id="edge18" class="edge">
<title>&#45;4&#45;&gt;jump</title>
<path fill="none" stroke="#ff0000" stroke-width=".1339" d="M434.457,-113.9274C429.2443,-103.5472 420.3823,-85.9 412.376,-69.9568"/>
<polygon fill="#ff0000" stroke="#ff0000" stroke-width=".1339" points="415.4105,-68.2002 407.795,-60.8344 409.1549,-71.3416 415.4105,-68.2002"/>
</g>
<!-- &#45;4&#45;&gt;shoot -->
<g id="edge19" class="edge">
<title>&#45;4&#45;&gt;shoot</title>
<path fill="none" stroke="#ff0000" stroke-width=".521" d="M442.2008,-113.9274C445.6778,-104.0998 451.4594,-87.7586 456.8521,-72.5166"/>
<polygon fill="#ff0000" stroke="#ff0000" stroke-width=".521" points="460.2757,-73.3335 460.3116,-62.7387 453.6765,-70.9986 460.2757,-73.3335"/>
</g>
<!-- &#45;4&#45;&gt;release -->
<g id="edge20" class="edge">
<title>&#45;4&#45;&gt;release</title>
<path fill="none" stroke="#ff0000" stroke-width=".4334" d="M449.7276,-113.9509C453.1733,-111.3592 457.109,-108.6994 461,-106.7107 507.9341,-82.7219 527.5588,-95.6404 574,-70.7107 577.1164,-69.0378 580.2286,-67.1338 583.276,-65.0972"/>
<polygon fill="#ff0000" stroke="#ff0000" stroke-width=".4334" points="585.5619,-67.7646 591.6418,-59.0879 581.478,-62.0793 585.5619,-67.7646"/>
</g>
<!-- &#45;5 -->
<g id="node5" class="node">
<title>&#45;5</title>
<polygon fill="#d3d3d3" stroke="#000000" points="496,-131.9741 470,-131.9741 470,-113.9741 496,-113.9741 496,-131.9741"/>
<text text-anchor="middle" x="483" y="-120.7741" font-family="Times,serif" font-size="9.00" fill="#000000">&#45;5</text>
</g>
<!-- &#45;5&#45;&gt;s -->
<g id="edge21" class="edge">
<title>&#45;5&#45;&gt;s</title>
<path fill="none" stroke="#00ff00" stroke-width=".4808" d="M488.0593,-113.9274C495.4721,-100.6723 509.5116,-75.5678 519.7316,-57.293"/>
<polygon fill="#00ff00" stroke="#00ff00" stroke-width=".4808" points="522.8462,-58.8942 524.6725,-48.458 516.7367,-55.4775 522.8462,-58.8942"/>
</g>
<!-- &#45;5&#45;&gt;right -->
<g id="edge22" class="edge">
<title>&#45;5&#45;&gt;right</title>
<path fill="none" stroke="#00ff00" stroke-width=".2202" d="M471.7855,-113.6791C468.4493,-111.1969 464.695,-108.6646 461,-106.7107 418.1311,-84.0421 399.5232,-95.7593 358,-70.7107 354.1638,-68.3965 350.3843,-65.6476 346.7843,-62.7202"/>
<polygon fill="#00ff00" stroke="#00ff00" stroke-width=".2202" points="349.0707,-60.0702 339.2374,-56.1259 344.4648,-65.3414 349.0707,-60.0702"/>
</g>
<!-- &#45;5&#45;&gt;jump -->
<g id="edge23" class="edge">
<title>&#45;5&#45;&gt;jump</title>
<path fill="none" stroke="#00ff00" stroke-width=".4631" d="M473.9139,-113.9274C461.8486,-101.9144 440.0081,-80.1684 422.3578,-62.5947"/>
<polygon fill="#00ff00" stroke="#00ff00" stroke-width=".4631" points="424.6467,-59.9345 415.0907,-55.359 419.7077,-64.895 424.6467,-59.9345"/>
</g>
<!-- &#45;5&#45;&gt;shoot -->
<g id="edge24" class="edge">
<title>&#45;5&#45;&gt;shoot</title>
<path fill="none" stroke="#00ff00" stroke-width=".6067" d="M481.6577,-113.9274C480.2557,-104.4776 477.9601,-89.0054 475.7751,-74.2789"/>
<polygon fill="#00ff00" stroke="#00ff00" stroke-width=".6067" points="479.2223,-73.664 474.2924,-64.2859 472.2981,-74.6914 479.2223,-73.664"/>
</g>
<!-- &#45;5&#45;&gt;release -->
<g id="edge25" class="edge">
<title>&#45;5&#45;&gt;release</title>
<path fill="none" stroke="#ff0000" stroke-width=".4796" d="M494.867,-113.6789C498.0854,-111.3038 501.6169,-108.8257 505,-106.7107 534.3295,-88.3742 545.046,-89.6345 574,-70.7107 576.8761,-68.8309 579.7898,-66.8028 582.6767,-64.7023"/>
<polygon fill="#ff0000" stroke="#ff0000" stroke-width=".4796" points="584.8164,-67.4724 590.6888,-58.6539 580.5989,-61.8856 584.8164,-67.4724"/>
</g>
<!-- &#45;6 -->
<g id="node6" class="node">
<title>&#45;6</title>
<polygon fill="#d3d3d3" stroke="#000000" points="540,-131.9741 514,-131.9741 514,-113.9741 540,-113.9741 540,-131.9741"/>
<text text-anchor="middle" x="527" y="-120.7741" font-family="Times,serif" font-size="9.00" fill="#000000">&#45;6</text>
</g>
<!-- &#45;6&#45;&gt;s -->
<g id="edge26" class="edge">
<title>&#45;6&#45;&gt;s</title>
<path fill="none" stroke="#00ff00" stroke-width=".3987" d="M527.5163,-113.9274C528.2304,-101.4129 529.5473,-78.336 530.5699,-60.4168"/>
<polygon fill="#00ff00" stroke="#00ff00" stroke-width=".3987" points="534.0703,-60.5074 531.1458,-50.3242 527.0817,-60.1085 534.0703,-60.5074"/>
</g>
<!-- &#45;6&#45;&gt;right -->
<g id="edge27" class="edge">
<title>&#45;6&#45;&gt;right</title>
<path fill="none" stroke="#00ff00" stroke-width=".143" d="M516.3531,-113.786C512.9107,-111.1876 508.9566,-108.5655 505,-106.7107 444.0964,-78.1591 417.1977,-102.6494 358,-70.7107 354.0571,-68.5834 350.2124,-65.9488 346.5765,-63.0842"/>
<polygon fill="#00ff00" stroke="#00ff00" stroke-width=".143" points="348.8546,-60.4271 338.9933,-56.5535 344.2866,-65.7313 348.8546,-60.4271"/>
</g>
<!-- &#45;6&#45;&gt;jump -->
<g id="edge28" class="edge">
<title>&#45;6&#45;&gt;jump</title>
<path fill="none" stroke="#00ff00" stroke-width=".1211" d="M515.6229,-113.9653C512.2841,-111.4876 508.5691,-108.886 505,-106.7107 474.1101,-87.8836 461.6423,-91.4465 432,-70.7107 428.5601,-68.3043 425.1295,-65.5819 421.822,-62.7419"/>
<polygon fill="#00ff00" stroke="#00ff00" stroke-width=".1211" points="424.1408,-60.1198 414.3815,-55.9956 419.4388,-65.3056 424.1408,-60.1198"/>
</g>
<!-- &#45;6&#45;&gt;shoot -->
<g id="edge29" class="edge">
<title>&#45;6&#45;&gt;shoot</title>
<path fill="none" stroke="#00ff00" stroke-width=".3554" d="M521.1147,-113.9274C514.1548,-103.2288 502.1729,-84.8107 491.5588,-68.4949"/>
<polygon fill="#00ff00" stroke="#00ff00" stroke-width=".3554" points="494.2303,-66.1831 485.8434,-59.7093 488.3627,-70.0003 494.2303,-66.1831"/>
</g>
<!-- &#45;6&#45;&gt;release -->
<g id="edge30" class="edge">
<title>&#45;6&#45;&gt;release</title>
<path fill="none" stroke="#ff0000" stroke-width=".6483" d="M536.3959,-113.9274C547.8394,-102.9091 567.7867,-83.7029 585.0947,-67.0381"/>
<polygon fill="#ff0000" stroke="#ff0000" stroke-width=".6483" points="587.5422,-69.5401 592.3183,-60.0828 582.687,-64.4975 587.5422,-69.5401"/>
</g>
<!-- &#45;7 -->
<g id="node7" class="node">
<title>&#45;7</title>
<polygon fill="#d3d3d3" stroke="#000000" points="928,-131.9741 902,-131.9741 902,-113.9741 928,-113.9741 928,-131.9741"/>
<text text-anchor="middle" x="915" y="-120.7741" font-family="Times,serif" font-size="9.00" fill="#000000">&#45;7</text>
</g>
<!-- &#45;7&#45;&gt;s -->
<g id="edge31" class="edge">
<title>&#45;7&#45;&gt;s</title>
<path fill="none" stroke="#ff0000" stroke-width=".1103" d="M904.9341,-113.8111C901.3985,-111.0826 897.2438,-108.3786 893,-106.7107 760.2102,-54.5207 705.0767,-127.0652 574,-70.7107 564.9373,-66.8143 556.3375,-60.2895 549.3076,-53.8984"/>
<polygon fill="#ff0000" stroke="#ff0000" stroke-width=".1103" points="551.4469,-51.096 541.8427,-46.6228 546.5611,-56.109 551.4469,-51.096"/>
</g>
<!-- &#45;7&#45;&gt;jump -->
<g id="edge32" class="edge">
<title>&#45;7&#45;&gt;jump</title>
<path fill="none" stroke="#00ff00" stroke-width=".2306" d="M904.967,-113.7252C901.4336,-110.991 897.2719,-108.3053 893,-106.7107 700.4636,-34.8414 619.626,-154.5673 432,-70.7107 428.0761,-68.9569 424.3139,-66.6035 420.7925,-63.9397"/>
<polygon fill="#00ff00" stroke="#00ff00" stroke-width=".2306" points="422.9186,-61.1521 413.0501,-57.2969 418.3605,-66.4648 422.9186,-61.1521"/>
</g>
<!-- &#45;7&#45;&gt;shoot -->
<g id="edge33" class="edge">
<title>&#45;7&#45;&gt;shoot</title>
<path fill="none" stroke="#00ff00" stroke-width=".4857" d="M904.9526,-113.7634C901.4182,-111.0318 897.2596,-108.3379 893,-106.7107 732.4583,-45.3807 664.8301,-140.991 508,-70.7107 504.1146,-68.9695 500.3689,-66.6666 496.8437,-64.0687"/>
<polygon fill="#00ff00" stroke="#00ff00" stroke-width=".4857" points="498.9845,-61.2969 489.0566,-57.5971 494.5103,-66.6805 498.9845,-61.2969"/>
</g>
<!-- &#45;7&#45;&gt;release -->
<g id="edge34" class="edge">
<title>&#45;7&#45;&gt;release</title>
<path fill="none" stroke="#00ff00" stroke-width=".1802" stroke-dasharray="1,5" d="M904.3373,-113.8193C900.8943,-111.2223 896.9438,-108.5926 893,-106.7107 816.7289,-70.3152 719.3687,-50.6746 663.3131,-41.6644"/>
<polygon fill="#00ff00" stroke="#00ff00" stroke-width=".1802" points="663.7623,-38.1921 653.3414,-40.104 662.68,-45.108 663.7623,-38.1921"/>
</g>
<!-- &#45;8 -->
<g id="node8" class="node">
<title>&#45;8</title>
<polygon fill="#d3d3d3" stroke="#000000" points="584,-131.9741 558,-131.9741 558,-113.9741 584,-113.9741 584,-131.9741"/>
<text text-anchor="middle" x="571" y="-120.7741" font-family="Times,serif" font-size="9.00" fill="#000000">&#45;8</text>
</g>
<!-- &#45;8&#45;&gt;s -->
<g id="edge35" class="edge">
<title>&#45;8&#45;&gt;s</title>
<path fill="none" stroke="#ff0000" stroke-width=".3059" d="M566.9732,-113.9274C561.1931,-100.9415 550.3506,-76.5825 542.2639,-58.4146"/>
<polygon fill="#ff0000" stroke="#ff0000" stroke-width=".3059" points="545.3685,-56.7824 538.1045,-49.0698 538.9734,-59.629 545.3685,-56.7824"/>
</g>
<!-- &#45;8&#45;&gt;right -->
<g id="edge36" class="edge">
<title>&#45;8&#45;&gt;right</title>
<path fill="none" stroke="#ff0000" stroke-width=".4976" d="M560.4128,-113.6539C556.9729,-111.0502 553.0051,-108.4583 549,-106.7107 469.8255,-72.1633 435.1016,-109.6653 358,-70.7107 354.1093,-68.7449 350.3321,-66.2597 346.7644,-63.5214"/>
<polygon fill="#ff0000" stroke="#ff0000" stroke-width=".4976" points="348.7491,-60.6145 338.8654,-56.7983 344.2121,-65.9451 348.7491,-60.6145"/>
</g>
<!-- &#45;8&#45;&gt;jump -->
<g id="edge37" class="edge">
<title>&#45;8&#45;&gt;jump</title>
<path fill="none" stroke="#ff0000" stroke-width=".2772" d="M560.2844,-113.9271C556.8392,-111.3345 552.9008,-108.6801 549,-106.7107 500.433,-82.1903 478.9257,-98.2421 432,-70.7107 428.3791,-68.5863 424.8344,-66.0417 421.4611,-63.3044"/>
<polygon fill="#ff0000" stroke="#ff0000" stroke-width=".2772" points="423.7604,-60.6654 413.9459,-56.6745 419.1295,-65.9147 423.7604,-60.6654"/>
</g>
<!-- &#45;8&#45;&gt;shoot -->
<g id="edge38" class="edge">
<title>&#45;8&#45;&gt;shoot</title>
<path fill="none" stroke="#00ff00" stroke-width=".4545" d="M559.6859,-113.9112C546.9497,-103.635 525.7209,-86.2826 508,-70.7107 504.9645,-68.0433 501.8265,-65.2256 498.715,-62.392"/>
<polygon fill="#00ff00" stroke="#00ff00" stroke-width=".4545" points="500.8371,-59.5884 491.1086,-55.3923 496.097,-64.7393 500.8371,-59.5884"/>
</g>
<!-- &#45;8&#45;&gt;release -->
<g id="edge39" class="edge">
<title>&#45;8&#45;&gt;release</title>
<path fill="none" stroke="#ff0000" stroke-width=".1504" d="M575.8528,-113.9274C580.7862,-104.7304 588.7796,-89.8289 596.4861,-75.4622"/>
<polygon fill="#ff0000" stroke="#ff0000" stroke-width=".1504" points="599.5747,-77.1085 601.2175,-66.6418 593.4062,-73.7995 599.5747,-77.1085"/>
</g>
<!-- &#45;9 -->
<g id="node9" class="node">
<title>&#45;9</title>
<polygon fill="#d3d3d3" stroke="#000000" points="26,-131.9741 0,-131.9741 0,-113.9741 26,-113.9741 26,-131.9741"/>
<text text-anchor="middle" x="13" y="-120.7741" font-family="Times,serif" font-size="9.00" fill="#000000">&#45;9</text>
</g>
<!-- &#45;9&#45;&gt;s -->
<g id="edge40" class="edge">
<title>&#45;9&#45;&gt;s</title>
<path fill="none" stroke="#00ff00" stroke-width=".4183" d="M23.0311,-113.7203C26.5644,-110.9857 30.7266,-108.3011 35,-106.7107 133.7954,-69.9435 416.7921,-123.5638 508,-70.7107 513.2153,-67.6885 517.5377,-63.0233 521.0086,-58.0624"/>
<polygon fill="#00ff00" stroke="#00ff00" stroke-width=".4183" points="524.234,-59.4869 526.3456,-49.1046 518.2204,-55.904 524.234,-59.4869"/>
</g>
<!-- &#45;9&#45;&gt;right -->
<g id="edge41" class="edge">
<title>&#45;9&#45;&gt;right</title>
<path fill="none" stroke="#00ff00" stroke-width=".1972" d="M23.6528,-113.7985C27.0954,-111.2007 31.0482,-108.5757 35,-106.7107 117.9855,-67.5458 225.0855,-48.1877 281.4232,-40.1399"/>
<polygon fill="#00ff00" stroke="#00ff00" stroke-width=".1972" points="282.2376,-43.5606 291.6633,-38.7225 281.2778,-36.6267 282.2376,-43.5606"/>
</g>
<!-- &#45;9&#45;&gt;jump -->
<g id="edge42" class="edge">
<title>&#45;9&#45;&gt;jump</title>
<path fill="none" stroke="#ff0000" stroke-width=".5457" d="M23.0649,-113.8086C26.6004,-111.0799 30.7554,-108.3764 35,-106.7107 169.0503,-54.1056 226.1275,-130.787 357,-70.7107 360.9616,-68.8921 364.783,-66.4984 368.3755,-63.8118"/>
<polygon fill="#ff0000" stroke="#ff0000" stroke-width=".5457" points="370.902,-66.2602 376.3014,-57.1444 366.3958,-60.9034 370.902,-66.2602"/>
</g>
<!-- &#45;9&#45;&gt;shoot -->
<g id="edge43" class="edge">
<title>&#45;9&#45;&gt;shoot</title>
<path fill="none" stroke="#ff0000" stroke-width=".1137" d="M23.0447,-113.7564C26.579,-111.0243 30.7382,-108.3319 35,-106.7107 200.5914,-43.7175 270.222,-142.9363 432,-70.7107 435.8879,-68.9749 439.6351,-66.6755 443.1611,-64.0796"/>
<polygon fill="#ff0000" stroke="#ff0000" stroke-width=".1137" points="445.4934,-66.6923 450.9492,-57.6102 441.0205,-61.3077 445.4934,-66.6923"/>
</g>
<!-- &#45;10 -->
<g id="node10" class="node">
<title>&#45;10</title>
<polygon fill="#d3d3d3" stroke="#000000" points="634,-131.9741 602,-131.9741 602,-113.9741 634,-113.9741 634,-131.9741"/>
<text text-anchor="middle" x="618" y="-120.7741" font-family="Times,serif" font-size="9.00" fill="#000000">&#45;10</text>
</g>
<!-- &#45;10&#45;&gt;s -->
<g id="edge44" class="edge">
<title>&#45;10&#45;&gt;s</title>
<path fill="none" stroke="#00ff00" stroke-width=".4563" d="M609.1204,-113.9274C595.1513,-99.6954 567.7741,-71.8028 549.6828,-53.371"/>
<polygon fill="#00ff00" stroke="#00ff00" stroke-width=".4563" points="552.0668,-50.8033 542.5641,-46.1183 547.0711,-55.7067 552.0668,-50.8033"/>
</g>
<!-- &#45;10&#45;&gt;right -->
<g id="edge45" class="edge">
<title>&#45;10&#45;&gt;right</title>
<path fill="none" stroke="#00ff00" stroke-width=".2427" d="M606.3528,-113.9324C602.3211,-111.212 597.6444,-108.4821 593,-106.7107 494.2745,-69.0554 453.1123,-116.7356 358,-70.7107 354.0762,-68.8119 350.2784,-66.3683 346.6991,-63.6536"/>
<polygon fill="#00ff00" stroke="#00ff00" stroke-width=".2427" points="348.6813,-60.7458 338.7875,-56.9558 344.1584,-66.0885 348.6813,-60.7458"/>
</g>
<!-- &#45;10&#45;&gt;jump -->
<g id="edge46" class="edge">
<title>&#45;10&#45;&gt;jump</title>
<path fill="none" stroke="#00ff00" stroke-width=".2592" d="M606.026,-113.9468C602.0483,-111.293 597.4861,-108.5987 593,-106.7107 525.419,-78.2677 496.649,-105.304 432,-70.7107 428.2986,-68.7301 424.703,-66.2761 421.3004,-63.5911"/>
<polygon fill="#00ff00" stroke="#00ff00" stroke-width=".2592" points="423.5927,-60.9462 413.7519,-57.0206 418.9967,-66.2262 423.5927,-60.9462"/>
</g>
<!-- &#45;10&#45;&gt;shoot -->
<g id="edge47" class="edge">
<title>&#45;10&#45;&gt;shoot</title>
<path fill="none" stroke="#ff0000" stroke-width=".3188" d="M605.0293,-113.9185C601.2345,-111.4401 597.0232,-108.8498 593,-106.7107 556.7758,-87.4501 542.4292,-93.022 508,-70.7107 504.6089,-68.5131 501.2398,-66.0006 497.9891,-63.3509"/>
<polygon fill="#ff0000" stroke="#ff0000" stroke-width=".3188" points="500.0497,-60.5045 490.2073,-56.5829 495.456,-65.7863 500.0497,-60.5045"/>
</g>
<!-- &#45;10&#45;&gt;release -->
<g id="edge48" class="edge">
<title>&#45;10&#45;&gt;release</title>
<path fill="none" stroke="#00ff00" stroke-width=".5786" d="M618,-113.9274C618,-105.9233 618,-93.5983 618,-81.0655"/>
<polygon fill="#00ff00" stroke="#00ff00" stroke-width=".5786" points="621.5001,-81.0485 618,-71.0485 614.5001,-81.0486 621.5001,-81.0485"/>
</g>
<!-- &#45;11 -->
<g id="node11" class="node">
<title>&#45;11</title>
<polygon fill="#d3d3d3" stroke="#000000" points="684,-131.9741 652,-131.9741 652,-113.9741 684,-113.9741 684,-131.9741"/>
<text text-anchor="middle" x="668" y="-120.7741" font-family="Times,serif" font-size="9.00" fill="#000000">&#45;11</text>
</g>
<!-- &#45;11&#45;&gt;s -->
<g id="edge49" class="edge">
<title>&#45;11&#45;&gt;s</title>
<path fill="none" stroke="#00ff00" stroke-width=".4305" d="M654.6548,-113.9558C650.9276,-111.5298 646.8447,-108.9573 643,-106.7107 613.1352,-89.2597 602.7362,-89.9636 574,-70.7107 565.9184,-65.2961 557.605,-58.5793 550.5291,-52.4592"/>
<polygon fill="#00ff00" stroke="#00ff00" stroke-width=".4305" points="552.6797,-49.688 542.8793,-45.6627 548.0304,-54.921 552.6797,-49.688"/>
</g>
<!-- &#45;11&#45;&gt;right -->
<g id="edge50" class="edge">
<title>&#45;11&#45;&gt;right</title>
<path fill="none" stroke="#00ff00" stroke-width=".3653" d="M656.3797,-113.8605C652.3498,-111.1353 647.6673,-108.4207 643,-106.7107 523.12,-62.7877 473.6478,-124.8034 358,-70.7107 354.0515,-68.8638 350.2383,-66.4525 346.6504,-63.7559"/>
<polygon fill="#00ff00" stroke="#00ff00" stroke-width=".3653" points="348.6309,-60.8478 338.7295,-57.0778 344.1188,-66.1996 348.6309,-60.8478"/>
</g>
<!-- &#45;11&#45;&gt;jump -->
<g id="edge51" class="edge">
<title>&#45;11&#45;&gt;jump</title>
<path fill="none" stroke="#00ff00" stroke-width=".4811" d="M656.0821,-113.8087C652.1074,-111.1475 647.5327,-108.4838 643,-106.7107 554.4041,-72.0546 516.9964,-113.441 432,-70.7107 428.3534,-68.8774 424.8242,-66.5637 421.4876,-64.0009"/>
<polygon fill="#00ff00" stroke="#00ff00" stroke-width=".4811" points="423.4982,-61.1138 413.6332,-57.2493 418.9351,-66.4222 423.4982,-61.1138"/>
</g>
<!-- &#45;11&#45;&gt;shoot -->
<g id="edge52" class="edge">
<title>&#45;11&#45;&gt;shoot</title>
<path fill="none" stroke="#ff0000" stroke-width=".2782" d="M655.724,-113.8867C651.805,-111.2925 647.3522,-108.6473 643,-106.7107 586.2668,-81.4651 562.346,-100.7525 508,-70.7107 504.4635,-68.7557 500.9999,-66.4008 497.6923,-63.846"/>
<polygon fill="#ff0000" stroke="#ff0000" stroke-width=".2782" points="499.7326,-60.9875 489.8388,-57.1978 495.2098,-66.3303 499.7326,-60.9875"/>
</g>
<!-- &#45;11&#45;&gt;release -->
<g id="edge53" class="edge">
<title>&#45;11&#45;&gt;release</title>
<path fill="none" stroke="#00ff00" stroke-width=".4492" d="M662.8374,-113.9274C657.5478,-104.658 648.9514,-89.5938 640.6935,-75.1229"/>
<polygon fill="#00ff00" stroke="#00ff00" stroke-width=".4492" points="643.6244,-73.1971 635.6281,-66.2464 637.5446,-76.6665 643.6244,-73.1971"/>
</g>
<!-- &#45;12 -->
<g id="node12" class="node">
<title>&#45;12</title>
<polygon fill="#d3d3d3" stroke="#000000" points="734,-131.9741 702,-131.9741 702,-113.9741 734,-113.9741 734,-131.9741"/>
<text text-anchor="middle" x="718" y="-120.7741" font-family="Times,serif" font-size="9.00" fill="#000000">&#45;12</text>
</g>
<!-- &#45;12&#45;&gt;s -->
<g id="edge54" class="edge">
<title>&#45;12&#45;&gt;s</title>
<path fill="none" stroke="#ff0000" stroke-width=".1456" d="M705.4273,-113.8062C701.5699,-111.269 697.2256,-108.6756 693,-106.7107 642.896,-83.4121 622.5779,-97.0436 574,-70.7107 565.4479,-66.0748 557.0391,-59.5157 550.0188,-53.3039"/>
<polygon fill="#ff0000" stroke="#ff0000" stroke-width=".1456" points="552.1977,-50.5508 542.4898,-46.3072 547.4325,-55.6785 552.1977,-50.5508"/>
</g>
<!-- &#45;12&#45;&gt;right -->
<g id="edge55" class="edge">
<title>&#45;12&#45;&gt;right</title>
<path fill="none" stroke="#ff0000" stroke-width=".3186" d="M706.3981,-113.8096C702.3694,-111.081 697.683,-108.3773 693,-106.7107 551.9214,-56.5038 494.2258,-132.8912 358,-70.7107 354.0345,-68.9006 350.2107,-66.5122 346.6168,-63.8285"/>
<polygon fill="#ff0000" stroke="#ff0000" stroke-width=".3186" points="348.5963,-60.9202 338.6895,-57.1644 344.0919,-66.2784 348.5963,-60.9202"/>
</g>
<!-- &#45;12&#45;&gt;jump -->
<g id="edge56" class="edge">
<title>&#45;12&#45;&gt;jump</title>
<path fill="none" stroke="#00ff00" stroke-width=".4344" d="M706.3682,-113.8917C702.3375,-111.1686 697.6575,-108.4474 693,-106.7107 583.2812,-65.7988 537.4475,-121.6306 432,-70.7107 428.3247,-68.9359 424.7769,-66.6596 421.4294,-64.1189"/>
<polygon fill="#00ff00" stroke="#00ff00" stroke-width=".4344" points="423.4376,-61.2311 413.5619,-57.394 418.8893,-66.5521 423.4376,-61.2311"/>
</g>
<!-- &#45;12&#45;&gt;shoot -->
<g id="edge57" class="edge">
<title>&#45;12&#45;&gt;shoot</title>
<path fill="none" stroke="#ff0000" stroke-width=".1184" d="M706.057,-113.8717C702.081,-111.2139 697.5119,-108.5362 693,-106.7107 615.3506,-75.2931 582.6523,-108.7045 508,-70.7107 504.2054,-68.7795 500.5171,-66.3567 497.025,-63.6897"/>
<polygon fill="#ff0000" stroke="#ff0000" stroke-width=".1184" points="499.1722,-60.9217 489.2754,-57.1395 494.6534,-66.2679 499.1722,-60.9217"/>
</g>
<!-- &#45;12&#45;&gt;release -->
<g id="edge58" class="edge">
<title>&#45;12&#45;&gt;release</title>
<path fill="none" stroke="#00ff00" stroke-width=".1948" d="M707.6749,-113.9274C694.7803,-102.6293 672.0603,-82.7223 652.7168,-65.7737"/>
<polygon fill="#00ff00" stroke="#00ff00" stroke-width=".1948" points="654.7761,-62.9247 644.9482,-58.967 650.163,-68.1897 654.7761,-62.9247"/>
</g>
<!-- &#45;13 -->
<g id="node13" class="node">
<title>&#45;13</title>
<polygon fill="#d3d3d3" stroke="#000000" points="784,-131.9741 752,-131.9741 752,-113.9741 784,-113.9741 784,-131.9741"/>
<text text-anchor="middle" x="768" y="-120.7741" font-family="Times,serif" font-size="9.00" fill="#000000">&#45;13</text>
</g>
<!-- &#45;13&#45;&gt;s -->
<g id="edge59" class="edge">
<title>&#45;13&#45;&gt;s</title>
<path fill="none" stroke="#00ff00" stroke-width=".2648" d="M756.0374,-113.9196C752.0603,-111.2643 747.4955,-108.5761 743,-106.7107 672.0676,-77.2781 642.9901,-104.4457 574,-70.7107 565.261,-66.4375 556.8144,-59.9519 549.8161,-53.6973"/>
<polygon fill="#00ff00" stroke="#00ff00" stroke-width=".2648" points="552.001,-50.9459 542.3352,-46.6074 547.1858,-56.0266 552.001,-50.9459"/>
</g>
<!-- &#45;13&#45;&gt;right -->
<g id="edge60" class="edge">
<title>&#45;13&#45;&gt;right</title>
<path fill="none" stroke="#ff0000" stroke-width=".1229" d="M756.4114,-113.7716C752.3837,-111.0405 747.6944,-108.3449 743,-106.7107 580.6957,-50.2101 514.8301,-140.991 358,-70.7107 354.0221,-68.928 350.1906,-66.5567 346.5923,-63.8827"/>
<polygon fill="#ff0000" stroke="#ff0000" stroke-width=".1229" points="348.5711,-60.9742 338.6603,-57.2289 344.0723,-66.3372 348.5711,-60.9742"/>
</g>
<!-- &#45;13&#45;&gt;jump -->
<g id="edge61" class="edge">
<title>&#45;13&#45;&gt;jump</title>
<path fill="none" stroke="#00ff00" stroke-width=".185" d="M756.39,-113.832C752.3608,-111.1049 747.6762,-108.3964 743,-106.7107 612.1009,-59.5216 557.9536,-129.8468 432,-70.7107 428.1095,-68.884 424.3681,-66.4853 420.8584,-63.7959"/>
<polygon fill="#00ff00" stroke="#00ff00" stroke-width=".185" points="422.9861,-61.0089 413.1286,-57.1254 418.4128,-66.3085 422.9861,-61.0089"/>
</g>
<!-- &#45;13&#45;&gt;shoot -->
<g id="edge62" class="edge">
<title>&#45;13&#45;&gt;shoot</title>
<path fill="none" stroke="#ff0000" stroke-width=".3601" d="M756.3528,-113.9324C752.3211,-111.212 747.6444,-108.4821 743,-106.7107 644.2745,-69.0554 603.1123,-116.7356 508,-70.7107 504.1674,-68.8561 500.4551,-66.4817 496.9491,-63.8425"/>
<polygon fill="#ff0000" stroke="#ff0000" stroke-width=".3601" points="499.0933,-61.0727 489.1838,-57.324 494.5927,-66.4342 499.0933,-61.0727"/>
</g>
<!-- &#45;13&#45;&gt;release -->
<g id="edge63" class="edge">
<title>&#45;13&#45;&gt;release</title>
<path fill="none" stroke="#ff0000" stroke-width=".147" d="M754.3371,-113.8819C750.6812,-111.5052 746.7131,-108.9756 743,-106.7107 714.8808,-89.5584 682.579,-71.1519 657.8566,-57.3302"/>
<polygon fill="#ff0000" stroke="#ff0000" stroke-width=".147" points="659.5519,-54.2681 649.1131,-52.4562 656.1435,-60.3823 659.5519,-54.2681"/>
</g>
<!-- &#45;14 -->
<g id="node14" class="node">
<title>&#45;14</title>
<polygon fill="#d3d3d3" stroke="#000000" points="834,-131.9741 802,-131.9741 802,-113.9741 834,-113.9741 834,-131.9741"/>
<text text-anchor="middle" x="818" y="-120.7741" font-family="Times,serif" font-size="9.00" fill="#000000">&#45;14</text>
</g>
<!-- &#45;14&#45;&gt;s -->
<g id="edge64" class="edge">
<title>&#45;14&#45;&gt;s</title>
<path fill="none" stroke="#00ff00" stroke-width=".2946" d="M806.3414,-113.9621C802.3089,-111.2437 797.6347,-108.5074 793,-106.7107 701.0299,-71.0558 663.6058,-111.9488 574,-70.7107 565.0386,-66.5865 556.4582,-60.0181 549.4155,-53.6559"/>
<polygon fill="#00ff00" stroke="#00ff00" stroke-width=".2946" points="551.5544,-50.8566 541.9237,-46.4408 546.6987,-55.8986 551.5544,-50.8566"/>
</g>
<!-- &#45;14&#45;&gt;right -->
<g id="edge65" class="edge">
<title>&#45;14&#45;&gt;right</title>
<path fill="none" stroke="#ff0000" stroke-width=".6561" d="M806.4216,-113.7423C802.3945,-111.0092 797.7031,-108.3198 793,-106.7107 609.452,-43.9102 535.4517,-149.0986 358,-70.7107 354.0126,-68.9493 350.1753,-66.5911 346.5737,-63.9246"/>
<polygon fill="#ff0000" stroke="#ff0000" stroke-width=".6561" points="348.5519,-61.016 338.6381,-57.2789 344.0575,-66.3827 348.5519,-61.016"/>
</g>
<!-- &#45;14&#45;&gt;jump -->
<g id="edge66" class="edge">
<title>&#45;14&#45;&gt;jump</title>
<path fill="none" stroke="#ff0000" stroke-width=".2322" d="M806.4055,-113.7886C802.3773,-111.0585 797.6894,-108.3593 793,-106.7107 640.8867,-53.232 578.4924,-138.0784 432,-70.7107 428.0951,-68.9149 424.3448,-66.5354 420.8301,-63.8568"/>
<polygon fill="#ff0000" stroke="#ff0000" stroke-width=".2322" points="422.957,-61.0695 413.0948,-57.1981 418.3902,-66.3747 422.957,-61.0695"/>
</g>
<!-- &#45;14&#45;&gt;shoot -->
<g id="edge67" class="edge">
<title>&#45;14&#45;&gt;shoot</title>
<path fill="none" stroke="#00ff00" stroke-width=".4174" d="M806.3797,-113.8605C802.3498,-111.1353 797.6673,-108.4207 793,-106.7107 673.12,-62.7877 623.6478,-124.8034 508,-70.7107 504.1433,-68.9068 500.4157,-66.5643 496.9011,-63.9436"/>
<polygon fill="#00ff00" stroke="#00ff00" stroke-width=".4174" points="499.0435,-61.1728 489.1258,-57.446 494.5548,-66.5442 499.0435,-61.1728"/>
</g>
<!-- &#45;14&#45;&gt;release -->
<g id="edge68" class="edge">
<title>&#45;14&#45;&gt;release</title>
<path fill="none" stroke="#00ff00" stroke-width=".198" d="M805.0478,-113.8835C801.2533,-111.4045 797.0375,-108.8227 793,-106.7107 749.6835,-84.0517 697.5106,-63.598 661.4626,-50.4577"/>
<polygon fill="#00ff00" stroke="#00ff00" stroke-width=".198" points="662.3379,-47.0527 651.7435,-46.9497 659.9613,-53.6369 662.3379,-47.0527"/>
</g>
<!-- &#45;15 -->
<g id="node15" class="node">
<title>&#45;15</title>
<polygon fill="#d3d3d3" stroke="#000000" points="76,-131.9741 44,-131.9741 44,-113.9741 76,-113.9741 76,-131.9741"/>
<text text-anchor="middle" x="60" y="-120.7741" font-family="Times,serif" font-size="9.00" fill="#000000">&#45;15</text>
</g>
<!-- &#45;15&#45;&gt;s -->
<g id="edge69" class="edge">
<title>&#45;15&#45;&gt;s</title>
<path fill="none" stroke="#ff0000" stroke-width=".2358" d="M71.5806,-113.7487C75.6079,-111.016 80.2988,-108.3253 85,-106.7107 174.2241,-76.0667 426.5869,-118.3752 508,-70.7107 513.1217,-67.7121 517.3861,-63.1349 520.8289,-58.2587"/>
<polygon fill="#ff0000" stroke="#ff0000" stroke-width=".2358" points="523.9826,-59.8063 526.1461,-49.4347 517.987,-56.1934 523.9826,-59.8063"/>
</g>
<!-- &#45;15&#45;&gt;right -->
<g id="edge70" class="edge">
<title>&#45;15&#45;&gt;right</title>
<path fill="none" stroke="#00ff00" stroke-width=".4316" d="M72.574,-113.8089C76.4314,-111.2718 80.7754,-108.6777 85,-106.7107 151.62,-75.6906 235.0547,-54.0959 282.4658,-43.2958"/>
<polygon fill="#00ff00" stroke="#00ff00" stroke-width=".4316" points="283.3062,-46.6944 292.2995,-41.0933 281.7762,-39.8636 283.3062,-46.6944"/>
</g>
<!-- &#45;15&#45;&gt;jump -->
<g id="edge71" class="edge">
<title>&#45;15&#45;&gt;jump</title>
<path fill="none" stroke="#ff0000" stroke-width=".4181" d="M71.6263,-113.8768C75.6566,-111.1526 80.3378,-108.4346 85,-106.7107 199.3746,-64.4192 246.6964,-122.7034 357,-70.7107 360.943,-68.8521 364.7528,-66.4335 368.3388,-63.7328"/>
<polygon fill="#ff0000" stroke="#ff0000" stroke-width=".4181" points="370.8724,-66.1745 376.2576,-57.0503 366.3579,-60.8247 370.8724,-66.1745"/>
</g>
<!-- &#45;15&#45;&gt;shoot -->
<g id="edge72" class="edge">
<title>&#45;15&#45;&gt;shoot</title>
<path fill="none" stroke="#00ff00" stroke-width=".2733" d="M71.5983,-113.7995C75.6268,-111.0702 80.3139,-108.3687 85,-106.7107 231.1707,-54.994 290.8311,-134.8343 432,-70.7107 435.8766,-68.9498 439.6166,-66.6345 443.1385,-64.0295"/>
<polygon fill="#00ff00" stroke="#00ff00" stroke-width=".2733" points="445.476,-66.6377 450.922,-57.5497 440.9973,-61.258 445.476,-66.6377"/>
</g>
<!-- &#45;15&#45;&gt;release -->
<g id="edge73" class="edge">
<title>&#45;15&#45;&gt;release</title>
<path fill="none" stroke="#00ff00" stroke-width=".391" d="M71.5699,-113.7172C75.5964,-110.9824 80.2897,-108.2984 85,-106.7107 291.5051,-37.1016 371.2374,-150.5676 574,-70.7107 577.2909,-69.4146 580.5285,-67.7811 583.6624,-65.9312"/>
<polygon fill="#00ff00" stroke="#00ff00" stroke-width=".391" points="585.8052,-68.709 592.178,-60.2451 581.918,-62.8875 585.8052,-68.709"/>
</g>
<!-- &#45;16 -->
<g id="node16" class="node">
<title>&#45;16</title>
<polygon fill="#d3d3d3" stroke="#000000" points="126,-131.9741 94,-131.9741 94,-113.9741 126,-113.9741 126,-131.9741"/>
<text text-anchor="middle" x="110" y="-120.7741" font-family="Times,serif" font-size="9.00" fill="#000000">&#45;16</text>
</g>
<!-- &#45;16&#45;&gt;s -->
<g id="edge74" class="edge">
<title>&#45;16&#45;&gt;s</title>
<path fill="none" stroke="#ff0000" stroke-width=".1699" d="M121.5914,-113.7798C125.6194,-111.0492 130.308,-108.3519 135,-106.7107 292.2083,-51.7213 364.7512,-155.6697 508,-70.7107 513.1047,-67.6832 517.3627,-63.0952 520.8047,-58.2177"/>
<polygon fill="#ff0000" stroke="#ff0000" stroke-width=".1699" points="523.9557,-59.7702 526.1256,-49.4 517.9623,-56.1536 523.9557,-59.7702"/>
</g>
<!-- &#45;16&#45;&gt;right -->
<g id="edge75" class="edge">
<title>&#45;16&#45;&gt;right</title>
<path fill="none" stroke="#00ff00" stroke-width=".2231" d="M122.9265,-113.8337C126.7206,-111.3539 130.9426,-108.7842 135,-106.7107 184.5246,-81.4018 245.2229,-59.6177 283.2661,-46.9897"/>
<polygon fill="#00ff00" stroke="#00ff00" stroke-width=".2231" points="284.4886,-50.2723 292.898,-43.8277 282.3052,-43.6215 284.4886,-50.2723"/>
</g>
<!-- &#45;16&#45;&gt;jump -->
<g id="edge76" class="edge">
<title>&#45;16&#45;&gt;jump</title>
<path fill="none" stroke="#ff0000" stroke-width=".3992" d="M121.6563,-113.9562C125.6886,-111.2374 130.3634,-108.5024 135,-106.7107 228.2361,-70.681 267.2165,-114.6429 357,-70.7107 360.9155,-68.7948 364.7081,-66.3405 368.2844,-63.6197"/>
<polygon fill="#ff0000" stroke="#ff0000" stroke-width=".3992" points="370.8282,-66.0517 376.1929,-56.9155 366.3016,-60.7122 370.8282,-66.0517"/>
</g>
<!-- &#45;16&#45;&gt;shoot -->
<g id="edge77" class="edge">
<title>&#45;16&#45;&gt;shoot</title>
<path fill="none" stroke="#00ff00" stroke-width=".4125" d="M121.6153,-113.8468C125.6449,-111.1206 130.3284,-108.409 135,-106.7107 259.9645,-61.2807 311.4165,-126.7431 432,-70.7107 435.8612,-68.9165 439.5916,-66.5801 443.108,-63.9629"/>
<polygon fill="#00ff00" stroke="#00ff00" stroke-width=".4125" points="445.4522,-66.5652 450.8851,-57.4693 440.9658,-61.192 445.4522,-66.5652"/>
</g>
<!-- &#45;16&#45;&gt;release -->
<g id="edge78" class="edge">
<title>&#45;16&#45;&gt;release</title>
<path fill="none" stroke="#ff0000" stroke-width=".1084" d="M121.5777,-113.7402C125.6048,-111.007 130.2963,-108.3181 135,-106.7107 320.2481,-43.406 392.1522,-143.2072 574,-70.7107 577.2855,-69.4009 580.5192,-67.7576 583.6504,-65.9009"/>
<polygon fill="#ff0000" stroke="#ff0000" stroke-width=".1084" points="585.7987,-68.6746 592.1613,-60.203 581.9045,-62.8578 585.7987,-68.6746"/>
</g>
<!-- &#45;17 -->
<g id="node17" class="node">
<title>&#45;17</title>
<polygon fill="#d3d3d3" stroke="#000000" points="176,-131.9741 144,-131.9741 144,-113.9741 176,-113.9741 176,-131.9741"/>
<text text-anchor="middle" x="160" y="-120.7741" font-family="Times,serif" font-size="9.00" fill="#000000">&#45;17</text>
</g>
<!-- &#45;17&#45;&gt;s -->
<g id="edge79" class="edge">
<title>&#45;17&#45;&gt;s</title>
<path fill="none" stroke="#00ff00" stroke-width=".1577" d="M171.6058,-113.8204C175.6347,-111.0925 180.3203,-108.3865 185,-106.7107 320.988,-58.013 384.3105,-145.3104 508,-70.7107 513.0822,-67.6455 517.3317,-63.0434 520.7728,-58.1643"/>
<polygon fill="#00ff00" stroke="#00ff00" stroke-width=".1577" points="523.9201,-59.7233 526.0986,-49.3548 517.9298,-56.1017 523.9201,-59.7233"/>
</g>
<!-- &#45;17&#45;&gt;right -->
<g id="edge80" class="edge">
<title>&#45;17&#45;&gt;right</title>
<path fill="none" stroke="#ff0000" stroke-width=".5288" d="M173.3532,-113.9694C177.0804,-111.5435 181.1613,-108.9675 185,-106.7107 218.4238,-87.06 257.7204,-66.5725 285.27,-52.6182"/>
<polygon fill="#ff0000" stroke="#ff0000" stroke-width=".5288" points="287.1421,-55.5941 294.4958,-47.967 283.9908,-49.3435 287.1421,-55.5941"/>
</g>
<!-- &#45;17&#45;&gt;jump -->
<g id="edge81" class="edge">
<title>&#45;17&#45;&gt;jump</title>
<path fill="none" stroke="#00ff00" stroke-width=".2954" d="M171.9586,-113.91C175.9355,-111.2542 180.5011,-108.5681 185,-106.7107 257.1905,-76.9065 287.6472,-106.6265 357,-70.7107 360.9784,-68.6504 364.8447,-66.0568 368.4926,-63.2148"/>
<polygon fill="#00ff00" stroke="#00ff00" stroke-width=".2954" points="370.7714,-65.8713 376.0878,-56.7069 366.2168,-60.5557 370.7714,-65.8713"/>
</g>
<!-- &#45;17&#45;&gt;shoot -->
<g id="edge82" class="edge">
<title>&#45;17&#45;&gt;shoot</title>
<path fill="none" stroke="#00ff00" stroke-width=".1642" d="M171.6397,-113.9126C175.6709,-111.1909 180.3492,-108.4652 185,-106.7107 288.7972,-67.5532 331.9644,-118.6694 432,-70.7107 435.8393,-68.87 439.5559,-66.5044 443.0643,-63.8704"/>
<polygon fill="#00ff00" stroke="#00ff00" stroke-width=".1642" points="445.4179,-66.4645 450.8324,-57.3576 440.9206,-61.1003 445.4179,-66.4645"/>
</g>
<!-- &#45;17&#45;&gt;release -->
<g id="edge83" class="edge">
<title>&#45;17&#45;&gt;release</title>
<path fill="none" stroke="#ff0000" stroke-width=".3991" d="M171.5876,-113.769C175.6154,-111.0377 180.3048,-108.3426 185,-106.7107 349.0033,-49.7063 413.0552,-135.8515 574,-70.7107 577.2786,-69.3837 580.5074,-67.7281 583.6352,-65.8629"/>
<polygon fill="#ff0000" stroke="#ff0000" stroke-width=".3991" points="585.7904,-68.6315 592.1401,-60.1503 581.8873,-62.8206 585.7904,-68.6315"/>
</g>
<!-- &#45;18 -->
<g id="node18" class="node">
<title>&#45;18</title>
<polygon fill="#d3d3d3" stroke="#000000" points="884,-131.9741 852,-131.9741 852,-113.9741 884,-113.9741 884,-131.9741"/>
<text text-anchor="middle" x="868" y="-120.7741" font-family="Times,serif" font-size="9.00" fill="#000000">&#45;18</text>
</g>
<!-- &#45;18&#45;&gt;s -->
<g id="edge84" class="edge">
<title>&#45;18&#45;&gt;s</title>
<path fill="none" stroke="#ff0000" stroke-width=".2111" stroke-dasharray="1,5" d="M851.739,-116.2409C846.0741,-112.8272 840.0204,-108.9418 834,-106.7107 720.8954,-64.7956 675.3157,-119.4957 565,-70.7107 557.449,-67.3714 550.1992,-62.2438 544.26,-56.9205"/>
<polygon fill="#ff0000" stroke="#ff0000" stroke-width=".2111" points="546.6018,-54.3118 537.0683,-49.6897 541.6386,-59.2481 546.6018,-54.3118"/>
</g>
<!-- &#45;18&#45;&gt;s -->
<g id="edge99" class="edge">
<title>&#45;18&#45;&gt;s</title>
<path fill="none" stroke="#00ff00" stroke-width=".4373" d="M864.8976,-113.8807C861.3419,-111.1569 856.661,-108.438 852,-106.7107 738.8954,-64.7956 693.3157,-119.4957 583,-70.7107 572.0344,-65.8614 561.704,-57.2407 552.9645,-49.7261"/>
<polygon fill="#00ff00" stroke="#00ff00" stroke-width=".4373" points="554.9831,-46.8476 545.104,-43.0195 550.4396,-52.1727 554.9831,-46.8476"/>
</g>
<!-- &#45;18&#45;&gt;right -->
<g id="edge85" class="edge">
<title>&#45;18&#45;&gt;right</title>
<path fill="none" stroke="#ff0000" stroke-width=".3165" d="M856.4295,-113.7189C852.403,-110.9842 847.7099,-108.2999 843,-106.7107 638.1958,-37.6061 556.0853,-157.2115 358,-70.7107 354.0052,-68.9662 350.1632,-66.6186 346.559,-63.958"/>
<polygon fill="#ff0000" stroke="#ff0000" stroke-width=".3165" points="348.5369,-61.0494 338.6206,-57.3187 344.046,-66.419 348.5369,-61.0494"/>
</g>
<!-- &#45;18&#45;&gt;jump -->
<g id="edge86" class="edge">
<title>&#45;18&#45;&gt;jump</title>
<path fill="none" stroke="#ff0000" stroke-width=".2624" d="M856.417,-113.7555C852.3896,-111.0233 847.6992,-108.3311 843,-106.7107 669.6508,-46.9348 599.0521,-146.3197 432,-70.7107 428.0844,-68.9384 424.3274,-66.5735 420.809,-63.9032"/>
<polygon fill="#ff0000" stroke="#ff0000" stroke-width=".2624" points="422.9354,-61.1158 413.0696,-57.2534 418.3734,-66.4251 422.9354,-61.1158"/>
</g>
<!-- &#45;18&#45;&gt;shoot -->
<g id="edge87" class="edge">
<title>&#45;18&#45;&gt;shoot</title>
<path fill="none" stroke="#ff0000" stroke-width=".4608" d="M856.3981,-113.8096C852.3694,-111.081 847.683,-108.3773 843,-106.7107 701.9214,-56.5038 644.2258,-132.8912 508,-70.7107 504.1267,-68.9427 500.3887,-66.6229 496.8679,-64.0153"/>
<polygon fill="#ff0000" stroke="#ff0000" stroke-width=".4608" points="499.0094,-61.2439 489.0858,-57.5325 494.529,-66.6222 499.0094,-61.2439"/>
</g>
<!-- &#45;18&#45;&gt;release -->
<g id="edge88" class="edge">
<title>&#45;18&#45;&gt;release</title>
<path fill="none" stroke="#ff0000" stroke-width=".2279" d="M855.4107,-113.8417C851.5528,-111.3055 847.2124,-108.7037 843,-106.7107 782.9516,-78.2995 708.7324,-57.2581 662.3669,-45.6451"/>
<polygon fill="#ff0000" stroke="#ff0000" stroke-width=".2279" points="663.1744,-42.2394 652.6271,-43.2418 661.4974,-49.0356 663.1744,-42.2394"/>
</g>
<!-- &#45;19 -->
<g id="node19" class="node">
<title>&#45;19</title>
<polygon fill="#d3d3d3" stroke="#000000" points="226,-131.9741 194,-131.9741 194,-113.9741 226,-113.9741 226,-131.9741"/>
<text text-anchor="middle" x="210" y="-120.7741" font-family="Times,serif" font-size="9.00" fill="#000000">&#45;19</text>
</g>
<!-- &#45;19&#45;&gt;s -->
<g id="edge89" class="edge">
<title>&#45;19&#45;&gt;s</title>
<path fill="none" stroke="#ff0000" stroke-width=".2459" d="M221.6258,-113.8755C225.6561,-111.1512 230.3374,-108.4335 235,-106.7107 349.798,-64.2938 403.8424,-134.9677 508,-70.7107 513.0511,-67.5946 517.289,-62.9733 520.7287,-58.092"/>
<polygon fill="#ff0000" stroke="#ff0000" stroke-width=".2459" points="523.8712,-59.6597 526.0613,-49.2937 517.8849,-56.0314 523.8712,-59.6597"/>
</g>
<!-- &#45;19&#45;&gt;right -->
<g id="edge90" class="edge">
<title>&#45;19&#45;&gt;right</title>
<path fill="none" stroke="#00ff00" stroke-width=".2874" stroke-dasharray="1,5" d="M221.3576,-113.9274C237.2952,-101.2325 266.8782,-77.6687 289.5055,-59.6453"/>
<polygon fill="#00ff00" stroke="#00ff00" stroke-width=".2874" points="291.8477,-62.2543 297.489,-53.2862 287.4864,-56.7789 291.8477,-62.2543"/>
</g>
<!-- &#45;19&#45;&gt;jump -->
<g id="edge91" class="edge">
<title>&#45;19&#45;&gt;jump</title>
<path fill="none" stroke="#ff0000" stroke-width=".489" d="M222.3078,-113.9571C226.2282,-111.3657 230.6737,-108.7045 235,-106.7107 286.3435,-83.0486 307.8872,-98.7103 357,-70.7107 360.8921,-68.4918 364.7057,-65.8012 368.3246,-62.9058"/>
<polygon fill="#ff0000" stroke="#ff0000" stroke-width=".489" points="370.6291,-65.54 375.8905,-56.3439 366.0427,-60.2519 370.6291,-65.54"/>
</g>
<!-- &#45;19&#45;&gt;shoot -->
<g id="edge92" class="edge">
<title>&#45;19&#45;&gt;shoot</title>
<path fill="none" stroke="#00ff00" stroke-width=".4119" d="M221.9305,-113.8407C225.9059,-111.1812 230.4778,-108.5104 235,-106.7107 317.6974,-73.8001 352.4471,-110.6271 432,-70.7107 435.8055,-68.8012 439.5008,-66.3922 442.9969,-63.7331"/>
<polygon fill="#00ff00" stroke="#00ff00" stroke-width=".4119" points="445.3642,-66.3151 450.7511,-57.1919 440.8507,-60.9646 445.3642,-66.3151"/>
</g>
<!-- &#45;19&#45;&gt;release -->
<g id="edge93" class="edge">
<title>&#45;19&#45;&gt;release</title>
<path fill="none" stroke="#ff0000" stroke-width=".4341" d="M221.6007,-113.8061C225.6293,-111.0773 230.3159,-108.3743 235,-106.7107 377.7758,-56.0006 433.941,-128.5028 574,-70.7107 577.2696,-69.3616 580.4918,-67.6901 583.6151,-65.8139"/>
<polygon fill="#ff0000" stroke="#ff0000" stroke-width=".4341" points="585.7793,-68.576 592.1124,-60.0823 581.8648,-62.7728 585.7793,-68.576"/>
</g>
<!-- &#45;20 -->
<g id="node20" class="node">
<title>&#45;20</title>
<polygon fill="#d3d3d3" stroke="#000000" points="276,-131.9741 244,-131.9741 244,-113.9741 276,-113.9741 276,-131.9741"/>
<text text-anchor="middle" x="260" y="-120.7741" font-family="Times,serif" font-size="9.00" fill="#000000">&#45;20</text>
</g>
<!-- &#45;20&#45;&gt;s -->
<g id="edge94" class="edge">
<title>&#45;20&#45;&gt;s</title>
<path fill="none" stroke="#00ff00" stroke-width=".1524" d="M271.6556,-113.9543C275.6878,-111.2354 280.3628,-108.5008 285,-106.7107 378.6582,-70.556 423.3287,-124.6531 508,-70.7107 513.0055,-67.5218 517.2263,-62.8733 520.664,-57.9888"/>
<polygon fill="#00ff00" stroke="#00ff00" stroke-width=".1524" points="523.7996,-59.5688 526.0066,-49.2063 517.8192,-55.9308 523.7996,-59.5688"/>
</g>
<!-- &#45;20&#45;&gt;right -->
<g id="edge95" class="edge">
<title>&#45;20&#45;&gt;right</title>
<path fill="none" stroke="#ff0000" stroke-width=".4753" d="M266.1951,-113.9274C273.6911,-102.9808 286.7213,-83.9527 298.0811,-67.3639"/>
<polygon fill="#ff0000" stroke="#ff0000" stroke-width=".4753" points="301.0688,-69.1955 303.8311,-58.967 295.2931,-65.2404 301.0688,-69.1955"/>
</g>
<!-- &#45;20&#45;&gt;jump -->
<g id="edge96" class="edge">
<title>&#45;20&#45;&gt;jump</title>
<path fill="none" stroke="#00ff00" stroke-width=".1217" stroke-dasharray="1,5" d="M273.3198,-113.9118C277.0469,-111.4857 281.1361,-108.924 285,-106.7107 316.0445,-88.9275 327.6039,-91.1036 357,-70.7107 360.4983,-68.2838 363.9998,-65.5483 367.3841,-62.7009"/>
<polygon fill="#00ff00" stroke="#00ff00" stroke-width=".1217" points="369.8456,-65.1963 375.0115,-55.9461 365.2046,-59.9558 369.8456,-65.1963"/>
</g>
<!-- &#45;20&#45;&gt;shoot -->
<g id="edge97" class="edge">
<title>&#45;20&#45;&gt;shoot</title>
<path fill="none" stroke="#ff0000" stroke-width=".1486" d="M272.2519,-113.8319C276.1699,-111.2354 280.6283,-108.6028 285,-106.7107 346.7304,-79.9935 372.8023,-102.6494 432,-70.7107 435.7471,-68.689 439.4056,-66.2092 442.8804,-63.5092"/>
<polygon fill="#ff0000" stroke="#ff0000" stroke-width=".1486" points="445.2694,-66.0718 450.6104,-56.9217 440.7291,-60.744 445.2694,-66.0718"/>
</g>
<!-- &#45;20&#45;&gt;release -->
<g id="edge98" class="edge">
<title>&#45;20&#45;&gt;release</title>
<path fill="none" stroke="#00ff00" stroke-width=".2109" d="M271.6186,-113.8558C275.6484,-111.1303 280.3312,-108.4167 285,-106.7107 406.5746,-62.2855 454.8011,-121.1647 574,-70.7107 577.2572,-69.332 580.4706,-67.6392 583.5878,-65.7484"/>
<polygon fill="#00ff00" stroke="#00ff00" stroke-width=".2109" points="585.7636,-68.5018 592.0744,-59.9915 581.834,-62.7088 585.7636,-68.5018"/>
</g>
<!-- s&#45;&gt;s -->
<g id="edge100" class="edge">
<title>s&#45;&gt;s</title>
<path fill="none" stroke="#00ff00" stroke-width=".1406" d="M541.4158,-47.1932C552.2728,-55.5943 564.8492,-51.6483 564.8492,-35.3553 564.8492,-23.6448 558.3522,-18.3127 550.6664,-19.3591"/>
<polygon fill="#00ff00" stroke="#00ff00" stroke-width=".1406" points="549.1016,-16.2251 541.4158,-23.5175 551.9717,-22.6096 549.1016,-16.2251"/>
</g>
<!-- 5 -->
<g id="node26" class="node">
<title>5</title>
<ellipse fill="#ffffff" stroke="#000000" cx="962" cy="-122.9741" rx="16.0303" ry="16.0303"/>
<text text-anchor="middle" x="962" y="-120.7741" font-family="Times,serif" font-size="9.00" fill="#000000">5</text>
</g>
</g>
</svg>
