<?xml version="1.0" encoding="utf-8" standalone="no"?>
<!DOCTYPE svg PUBLIC "-//W3C//DTD SVG 1.1//EN"
  "http://www.w3.org/Graphics/SVG/1.1/DTD/svg11.dtd">
<!-- Created with matplotlib (https://matplotlib.org/) -->
<svg height="345.6pt" version="1.1" viewBox="0 0 460.8 345.6" width="460.8pt" xmlns="http://www.w3.org/2000/svg" xmlns:xlink="http://www.w3.org/1999/xlink">
 <defs>
  <style type="text/css">
*{stroke-linecap:butt;stroke-linejoin:round;}
  </style>
 </defs>
 <g id="figure_1">
  <g id="patch_1">
   <path d="M 0 345.6 
L 460.8 345.6 
L 460.8 0 
L 0 0 
z
" style="fill:#ffffff;"/>
  </g>
  <g id="axes_1">
   <g id="patch_2">
    <path d="M 57.6 307.584 
L 414.72 307.584 
L 414.72 41.472 
L 57.6 41.472 
z
" style="fill:#ffffff;"/>
   </g>
   <g id="matplotlib.axis_1">
    <g id="xtick_1">
     <g id="line2d_1">
      <path clip-path="url(#p2bb1bfedc2)" d="M 73.832727 307.584 
L 73.832727 41.472 
" style="fill:none;stroke:#b0b0b0;stroke-linecap:square;stroke-width:0.8;"/>
     </g>
     <g id="line2d_2">
      <defs>
       <path d="M 0 0 
L 0 3.5 
" id="m64818f9a2b" style="stroke:#000000;stroke-width:0.8;"/>
      </defs>
      <g>
       <use style="stroke:#000000;stroke-width:0.8;" x="73.832727" xlink:href="#m64818f9a2b" y="307.584"/>
      </g>
     </g>
     <g id="text_1">
      <!-- 0 -->
      <defs>
       <path d="M 31.78125 66.40625 
Q 24.171875 66.40625 20.328125 58.90625 
Q 16.5 51.421875 16.5 36.375 
Q 16.5 21.390625 20.328125 13.890625 
Q 24.171875 6.390625 31.78125 6.390625 
Q 39.453125 6.390625 43.28125 13.890625 
Q 47.125 21.390625 47.125 36.375 
Q 47.125 51.421875 43.28125 58.90625 
Q 39.453125 66.40625 31.78125 66.40625 
z
M 31.78125 74.21875 
Q 44.046875 74.21875 50.515625 64.515625 
Q 56.984375 54.828125 56.984375 36.375 
Q 56.984375 17.96875 50.515625 8.265625 
Q 44.046875 -1.421875 31.78125 -1.421875 
Q 19.53125 -1.421875 13.0625 8.265625 
Q 6.59375 17.96875 6.59375 36.375 
Q 6.59375 54.828125 13.0625 64.515625 
Q 19.53125 74.21875 31.78125 74.21875 
z
" id="DejaVuSans-48"/>
      </defs>
      <g transform="translate(70.651477 322.182437)scale(0.1 -0.1)">
       <use xlink:href="#DejaVuSans-48"/>
      </g>
     </g>
    </g>
    <g id="xtick_2">
     <g id="line2d_3">
      <path clip-path="url(#p2bb1bfedc2)" d="M 139.419504 307.584 
L 139.419504 41.472 
" style="fill:none;stroke:#b0b0b0;stroke-linecap:square;stroke-width:0.8;"/>
     </g>
     <g id="line2d_4">
      <g>
       <use style="stroke:#000000;stroke-width:0.8;" x="139.419504" xlink:href="#m64818f9a2b" y="307.584"/>
      </g>
     </g>
     <g id="text_2">
      <!-- 20 -->
      <defs>
       <path d="M 19.1875 8.296875 
L 53.609375 8.296875 
L 53.609375 0 
L 7.328125 0 
L 7.328125 8.296875 
Q 12.9375 14.109375 22.625 23.890625 
Q 32.328125 33.6875 34.8125 36.53125 
Q 39.546875 41.84375 41.421875 45.53125 
Q 43.3125 49.21875 43.3125 52.78125 
Q 43.3125 58.59375 39.234375 62.25 
Q 35.15625 65.921875 28.609375 65.921875 
Q 23.96875 65.921875 18.8125 64.3125 
Q 13.671875 62.703125 7.8125 59.421875 
L 7.8125 69.390625 
Q 13.765625 71.78125 18.9375 73 
Q 24.125 74.21875 28.421875 74.21875 
Q 39.75 74.21875 46.484375 68.546875 
Q 53.21875 62.890625 53.21875 53.421875 
Q 53.21875 48.921875 51.53125 44.890625 
Q 49.859375 40.875 45.40625 35.40625 
Q 44.1875 33.984375 37.640625 27.21875 
Q 31.109375 20.453125 19.1875 8.296875 
z
" id="DejaVuSans-50"/>
      </defs>
      <g transform="translate(133.057004 322.182437)scale(0.1 -0.1)">
       <use xlink:href="#DejaVuSans-50"/>
       <use x="63.623047" xlink:href="#DejaVuSans-48"/>
      </g>
     </g>
    </g>
    <g id="xtick_3">
     <g id="line2d_5">
      <path clip-path="url(#p2bb1bfedc2)" d="M 205.006281 307.584 
L 205.006281 41.472 
" style="fill:none;stroke:#b0b0b0;stroke-linecap:square;stroke-width:0.8;"/>
     </g>
     <g id="line2d_6">
      <g>
       <use style="stroke:#000000;stroke-width:0.8;" x="205.006281" xlink:href="#m64818f9a2b" y="307.584"/>
      </g>
     </g>
     <g id="text_3">
      <!-- 40 -->
      <defs>
       <path d="M 37.796875 64.3125 
L 12.890625 25.390625 
L 37.796875 25.390625 
z
M 35.203125 72.90625 
L 47.609375 72.90625 
L 47.609375 25.390625 
L 58.015625 25.390625 
L 58.015625 17.1875 
L 47.609375 17.1875 
L 47.609375 0 
L 37.796875 0 
L 37.796875 17.1875 
L 4.890625 17.1875 
L 4.890625 26.703125 
z
" id="DejaVuSans-52"/>
      </defs>
      <g transform="translate(198.643781 322.182437)scale(0.1 -0.1)">
       <use xlink:href="#DejaVuSans-52"/>
       <use x="63.623047" xlink:href="#DejaVuSans-48"/>
      </g>
     </g>
    </g>
    <g id="xtick_4">
     <g id="line2d_7">
      <path clip-path="url(#p2bb1bfedc2)" d="M 270.593058 307.584 
L 270.593058 41.472 
" style="fill:none;stroke:#b0b0b0;stroke-linecap:square;stroke-width:0.8;"/>
     </g>
     <g id="line2d_8">
      <g>
       <use style="stroke:#000000;stroke-width:0.8;" x="270.593058" xlink:href="#m64818f9a2b" y="307.584"/>
      </g>
     </g>
     <g id="text_4">
      <!-- 60 -->
      <defs>
       <path d="M 33.015625 40.375 
Q 26.375 40.375 22.484375 35.828125 
Q 18.609375 31.296875 18.609375 23.390625 
Q 18.609375 15.53125 22.484375 10.953125 
Q 26.375 6.390625 33.015625 6.390625 
Q 39.65625 6.390625 43.53125 10.953125 
Q 47.40625 15.53125 47.40625 23.390625 
Q 47.40625 31.296875 43.53125 35.828125 
Q 39.65625 40.375 33.015625 40.375 
z
M 52.59375 71.296875 
L 52.59375 62.3125 
Q 48.875 64.0625 45.09375 64.984375 
Q 41.3125 65.921875 37.59375 65.921875 
Q 27.828125 65.921875 22.671875 59.328125 
Q 17.53125 52.734375 16.796875 39.40625 
Q 19.671875 43.65625 24.015625 45.921875 
Q 28.375 48.1875 33.59375 48.1875 
Q 44.578125 48.1875 50.953125 41.515625 
Q 57.328125 34.859375 57.328125 23.390625 
Q 57.328125 12.15625 50.6875 5.359375 
Q 44.046875 -1.421875 33.015625 -1.421875 
Q 20.359375 -1.421875 13.671875 8.265625 
Q 6.984375 17.96875 6.984375 36.375 
Q 6.984375 53.65625 15.1875 63.9375 
Q 23.390625 74.21875 37.203125 74.21875 
Q 40.921875 74.21875 44.703125 73.484375 
Q 48.484375 72.75 52.59375 71.296875 
z
" id="DejaVuSans-54"/>
      </defs>
      <g transform="translate(264.230558 322.182437)scale(0.1 -0.1)">
       <use xlink:href="#DejaVuSans-54"/>
       <use x="63.623047" xlink:href="#DejaVuSans-48"/>
      </g>
     </g>
    </g>
    <g id="xtick_5">
     <g id="line2d_9">
      <path clip-path="url(#p2bb1bfedc2)" d="M 336.179835 307.584 
L 336.179835 41.472 
" style="fill:none;stroke:#b0b0b0;stroke-linecap:square;stroke-width:0.8;"/>
     </g>
     <g id="line2d_10">
      <g>
       <use style="stroke:#000000;stroke-width:0.8;" x="336.179835" xlink:href="#m64818f9a2b" y="307.584"/>
      </g>
     </g>
     <g id="text_5">
      <!-- 80 -->
      <defs>
       <path d="M 31.78125 34.625 
Q 24.75 34.625 20.71875 30.859375 
Q 16.703125 27.09375 16.703125 20.515625 
Q 16.703125 13.921875 20.71875 10.15625 
Q 24.75 6.390625 31.78125 6.390625 
Q 38.8125 6.390625 42.859375 10.171875 
Q 46.921875 13.96875 46.921875 20.515625 
Q 46.921875 27.09375 42.890625 30.859375 
Q 38.875 34.625 31.78125 34.625 
z
M 21.921875 38.8125 
Q 15.578125 40.375 12.03125 44.71875 
Q 8.5 49.078125 8.5 55.328125 
Q 8.5 64.0625 14.71875 69.140625 
Q 20.953125 74.21875 31.78125 74.21875 
Q 42.671875 74.21875 48.875 69.140625 
Q 55.078125 64.0625 55.078125 55.328125 
Q 55.078125 49.078125 51.53125 44.71875 
Q 48 40.375 41.703125 38.8125 
Q 48.828125 37.15625 52.796875 32.3125 
Q 56.78125 27.484375 56.78125 20.515625 
Q 56.78125 9.90625 50.3125 4.234375 
Q 43.84375 -1.421875 31.78125 -1.421875 
Q 19.734375 -1.421875 13.25 4.234375 
Q 6.78125 9.90625 6.78125 20.515625 
Q 6.78125 27.484375 10.78125 32.3125 
Q 14.796875 37.15625 21.921875 38.8125 
z
M 18.3125 54.390625 
Q 18.3125 48.734375 21.84375 45.5625 
Q 25.390625 42.390625 31.78125 42.390625 
Q 38.140625 42.390625 41.71875 45.5625 
Q 45.3125 48.734375 45.3125 54.390625 
Q 45.3125 60.0625 41.71875 63.234375 
Q 38.140625 66.40625 31.78125 66.40625 
Q 25.390625 66.40625 21.84375 63.234375 
Q 18.3125 60.0625 18.3125 54.390625 
z
" id="DejaVuSans-56"/>
      </defs>
      <g transform="translate(329.817335 322.182437)scale(0.1 -0.1)">
       <use xlink:href="#DejaVuSans-56"/>
       <use x="63.623047" xlink:href="#DejaVuSans-48"/>
      </g>
     </g>
    </g>
    <g id="xtick_6">
     <g id="line2d_11">
      <path clip-path="url(#p2bb1bfedc2)" d="M 401.766612 307.584 
L 401.766612 41.472 
" style="fill:none;stroke:#b0b0b0;stroke-linecap:square;stroke-width:0.8;"/>
     </g>
     <g id="line2d_12">
      <g>
       <use style="stroke:#000000;stroke-width:0.8;" x="401.766612" xlink:href="#m64818f9a2b" y="307.584"/>
      </g>
     </g>
     <g id="text_6">
      <!-- 100 -->
      <defs>
       <path d="M 12.40625 8.296875 
L 28.515625 8.296875 
L 28.515625 63.921875 
L 10.984375 60.40625 
L 10.984375 69.390625 
L 28.421875 72.90625 
L 38.28125 72.90625 
L 38.28125 8.296875 
L 54.390625 8.296875 
L 54.390625 0 
L 12.40625 0 
z
" id="DejaVuSans-49"/>
      </defs>
      <g transform="translate(392.222862 322.182437)scale(0.1 -0.1)">
       <use xlink:href="#DejaVuSans-49"/>
       <use x="63.623047" xlink:href="#DejaVuSans-48"/>
       <use x="127.246094" xlink:href="#DejaVuSans-48"/>
      </g>
     </g>
    </g>
    <g id="text_7">
     <!-- Generations -->
     <defs>
      <path d="M 59.515625 10.40625 
L 59.515625 29.984375 
L 43.40625 29.984375 
L 43.40625 38.09375 
L 69.28125 38.09375 
L 69.28125 6.78125 
Q 63.578125 2.734375 56.6875 0.65625 
Q 49.8125 -1.421875 42 -1.421875 
Q 24.90625 -1.421875 15.25 8.5625 
Q 5.609375 18.5625 5.609375 36.375 
Q 5.609375 54.25 15.25 64.234375 
Q 24.90625 74.21875 42 74.21875 
Q 49.125 74.21875 55.546875 72.453125 
Q 61.96875 70.703125 67.390625 67.28125 
L 67.390625 56.78125 
Q 61.921875 61.421875 55.765625 63.765625 
Q 49.609375 66.109375 42.828125 66.109375 
Q 29.4375 66.109375 22.71875 58.640625 
Q 16.015625 51.171875 16.015625 36.375 
Q 16.015625 21.625 22.71875 14.15625 
Q 29.4375 6.6875 42.828125 6.6875 
Q 48.046875 6.6875 52.140625 7.59375 
Q 56.25 8.5 59.515625 10.40625 
z
" id="DejaVuSans-71"/>
      <path d="M 56.203125 29.59375 
L 56.203125 25.203125 
L 14.890625 25.203125 
Q 15.484375 15.921875 20.484375 11.0625 
Q 25.484375 6.203125 34.421875 6.203125 
Q 39.59375 6.203125 44.453125 7.46875 
Q 49.3125 8.734375 54.109375 11.28125 
L 54.109375 2.78125 
Q 49.265625 0.734375 44.1875 -0.34375 
Q 39.109375 -1.421875 33.890625 -1.421875 
Q 20.796875 -1.421875 13.15625 6.1875 
Q 5.515625 13.8125 5.515625 26.8125 
Q 5.515625 40.234375 12.765625 48.109375 
Q 20.015625 56 32.328125 56 
Q 43.359375 56 49.78125 48.890625 
Q 56.203125 41.796875 56.203125 29.59375 
z
M 47.21875 32.234375 
Q 47.125 39.59375 43.09375 43.984375 
Q 39.0625 48.390625 32.421875 48.390625 
Q 24.90625 48.390625 20.390625 44.140625 
Q 15.875 39.890625 15.1875 32.171875 
z
" id="DejaVuSans-101"/>
      <path d="M 54.890625 33.015625 
L 54.890625 0 
L 45.90625 0 
L 45.90625 32.71875 
Q 45.90625 40.484375 42.875 44.328125 
Q 39.84375 48.1875 33.796875 48.1875 
Q 26.515625 48.1875 22.3125 43.546875 
Q 18.109375 38.921875 18.109375 30.90625 
L 18.109375 0 
L 9.078125 0 
L 9.078125 54.6875 
L 18.109375 54.6875 
L 18.109375 46.1875 
Q 21.34375 51.125 25.703125 53.5625 
Q 30.078125 56 35.796875 56 
Q 45.21875 56 50.046875 50.171875 
Q 54.890625 44.34375 54.890625 33.015625 
z
" id="DejaVuSans-110"/>
      <path d="M 41.109375 46.296875 
Q 39.59375 47.171875 37.8125 47.578125 
Q 36.03125 48 33.890625 48 
Q 26.265625 48 22.1875 43.046875 
Q 18.109375 38.09375 18.109375 28.8125 
L 18.109375 0 
L 9.078125 0 
L 9.078125 54.6875 
L 18.109375 54.6875 
L 18.109375 46.1875 
Q 20.953125 51.171875 25.484375 53.578125 
Q 30.03125 56 36.53125 56 
Q 37.453125 56 38.578125 55.875 
Q 39.703125 55.765625 41.0625 55.515625 
z
" id="DejaVuSans-114"/>
      <path d="M 34.28125 27.484375 
Q 23.390625 27.484375 19.1875 25 
Q 14.984375 22.515625 14.984375 16.5 
Q 14.984375 11.71875 18.140625 8.90625 
Q 21.296875 6.109375 26.703125 6.109375 
Q 34.1875 6.109375 38.703125 11.40625 
Q 43.21875 16.703125 43.21875 25.484375 
L 43.21875 27.484375 
z
M 52.203125 31.203125 
L 52.203125 0 
L 43.21875 0 
L 43.21875 8.296875 
Q 40.140625 3.328125 35.546875 0.953125 
Q 30.953125 -1.421875 24.3125 -1.421875 
Q 15.921875 -1.421875 10.953125 3.296875 
Q 6 8.015625 6 15.921875 
Q 6 25.140625 12.171875 29.828125 
Q 18.359375 34.515625 30.609375 34.515625 
L 43.21875 34.515625 
L 43.21875 35.40625 
Q 43.21875 41.609375 39.140625 45 
Q 35.0625 48.390625 27.6875 48.390625 
Q 23 48.390625 18.546875 47.265625 
Q 14.109375 46.140625 10.015625 43.890625 
L 10.015625 52.203125 
Q 14.9375 54.109375 19.578125 55.046875 
Q 24.21875 56 28.609375 56 
Q 40.484375 56 46.34375 49.84375 
Q 52.203125 43.703125 52.203125 31.203125 
z
" id="DejaVuSans-97"/>
      <path d="M 18.3125 70.21875 
L 18.3125 54.6875 
L 36.8125 54.6875 
L 36.8125 47.703125 
L 18.3125 47.703125 
L 18.3125 18.015625 
Q 18.3125 11.328125 20.140625 9.421875 
Q 21.96875 7.515625 27.59375 7.515625 
L 36.8125 7.515625 
L 36.8125 0 
L 27.59375 0 
Q 17.1875 0 13.234375 3.875 
Q 9.28125 7.765625 9.28125 18.015625 
L 9.28125 47.703125 
L 2.6875 47.703125 
L 2.6875 54.6875 
L 9.28125 54.6875 
L 9.28125 70.21875 
z
" id="DejaVuSans-116"/>
      <path d="M 9.421875 54.6875 
L 18.40625 54.6875 
L 18.40625 0 
L 9.421875 0 
z
M 9.421875 75.984375 
L 18.40625 75.984375 
L 18.40625 64.59375 
L 9.421875 64.59375 
z
" id="DejaVuSans-105"/>
      <path d="M 30.609375 48.390625 
Q 23.390625 48.390625 19.1875 42.75 
Q 14.984375 37.109375 14.984375 27.296875 
Q 14.984375 17.484375 19.15625 11.84375 
Q 23.34375 6.203125 30.609375 6.203125 
Q 37.796875 6.203125 41.984375 11.859375 
Q 46.1875 17.53125 46.1875 27.296875 
Q 46.1875 37.015625 41.984375 42.703125 
Q 37.796875 48.390625 30.609375 48.390625 
z
M 30.609375 56 
Q 42.328125 56 49.015625 48.375 
Q 55.71875 40.765625 55.71875 27.296875 
Q 55.71875 13.875 49.015625 6.21875 
Q 42.328125 -1.421875 30.609375 -1.421875 
Q 18.84375 -1.421875 12.171875 6.21875 
Q 5.515625 13.875 5.515625 27.296875 
Q 5.515625 40.765625 12.171875 48.375 
Q 18.84375 56 30.609375 56 
z
" id="DejaVuSans-111"/>
      <path d="M 44.28125 53.078125 
L 44.28125 44.578125 
Q 40.484375 46.53125 36.375 47.5 
Q 32.28125 48.484375 27.875 48.484375 
Q 21.1875 48.484375 17.84375 46.4375 
Q 14.5 44.390625 14.5 40.28125 
Q 14.5 37.15625 16.890625 35.375 
Q 19.28125 33.59375 26.515625 31.984375 
L 29.59375 31.296875 
Q 39.15625 29.25 43.1875 25.515625 
Q 47.21875 21.78125 47.21875 15.09375 
Q 47.21875 7.46875 41.1875 3.015625 
Q 35.15625 -1.421875 24.609375 -1.421875 
Q 20.21875 -1.421875 15.453125 -0.5625 
Q 10.6875 0.296875 5.421875 2 
L 5.421875 11.28125 
Q 10.40625 8.6875 15.234375 7.390625 
Q 20.0625 6.109375 24.8125 6.109375 
Q 31.15625 6.109375 34.5625 8.28125 
Q 37.984375 10.453125 37.984375 14.40625 
Q 37.984375 18.0625 35.515625 20.015625 
Q 33.0625 21.96875 24.703125 23.78125 
L 21.578125 24.515625 
Q 13.234375 26.265625 9.515625 29.90625 
Q 5.8125 33.546875 5.8125 39.890625 
Q 5.8125 47.609375 11.28125 51.796875 
Q 16.75 56 26.8125 56 
Q 31.78125 56 36.171875 55.265625 
Q 40.578125 54.546875 44.28125 53.078125 
z
" id="DejaVuSans-115"/>
     </defs>
     <g transform="translate(205.662344 335.860562)scale(0.1 -0.1)">
      <use xlink:href="#DejaVuSans-71"/>
      <use x="77.490234" xlink:href="#DejaVuSans-101"/>
      <use x="139.013672" xlink:href="#DejaVuSans-110"/>
      <use x="202.392578" xlink:href="#DejaVuSans-101"/>
      <use x="263.916016" xlink:href="#DejaVuSans-114"/>
      <use x="305.029297" xlink:href="#DejaVuSans-97"/>
      <use x="366.308594" xlink:href="#DejaVuSans-116"/>
      <use x="405.517578" xlink:href="#DejaVuSans-105"/>
      <use x="433.300781" xlink:href="#DejaVuSans-111"/>
      <use x="494.482422" xlink:href="#DejaVuSans-110"/>
      <use x="557.861328" xlink:href="#DejaVuSans-115"/>
     </g>
    </g>
   </g>
   <g id="matplotlib.axis_2">
    <g id="ytick_1">
     <g id="line2d_13">
      <path clip-path="url(#p2bb1bfedc2)" d="M 57.6 271.257894 
L 414.72 271.257894 
" style="fill:none;stroke:#b0b0b0;stroke-linecap:square;stroke-width:0.8;"/>
     </g>
     <g id="line2d_14">
      <defs>
       <path d="M 0 0 
L -3.5 0 
" id="m9123ee71f1" style="stroke:#000000;stroke-width:0.8;"/>
      </defs>
      <g>
       <use style="stroke:#000000;stroke-width:0.8;" x="57.6" xlink:href="#m9123ee71f1" y="271.257894"/>
      </g>
     </g>
     <g id="text_8">
      <!-- 0 -->
      <g transform="translate(44.2375 275.057113)scale(0.1 -0.1)">
       <use xlink:href="#DejaVuSans-48"/>
      </g>
     </g>
    </g>
    <g id="ytick_2">
     <g id="line2d_15">
      <path clip-path="url(#p2bb1bfedc2)" d="M 57.6 221.83063 
L 414.72 221.83063 
" style="fill:none;stroke:#b0b0b0;stroke-linecap:square;stroke-width:0.8;"/>
     </g>
     <g id="line2d_16">
      <g>
       <use style="stroke:#000000;stroke-width:0.8;" x="57.6" xlink:href="#m9123ee71f1" y="221.83063"/>
      </g>
     </g>
     <g id="text_9">
      <!-- 20 -->
      <g transform="translate(37.875 225.629849)scale(0.1 -0.1)">
       <use xlink:href="#DejaVuSans-50"/>
       <use x="63.623047" xlink:href="#DejaVuSans-48"/>
      </g>
     </g>
    </g>
    <g id="ytick_3">
     <g id="line2d_17">
      <path clip-path="url(#p2bb1bfedc2)" d="M 57.6 172.403366 
L 414.72 172.403366 
" style="fill:none;stroke:#b0b0b0;stroke-linecap:square;stroke-width:0.8;"/>
     </g>
     <g id="line2d_18">
      <g>
       <use style="stroke:#000000;stroke-width:0.8;" x="57.6" xlink:href="#m9123ee71f1" y="172.403366"/>
      </g>
     </g>
     <g id="text_10">
      <!-- 40 -->
      <g transform="translate(37.875 176.202584)scale(0.1 -0.1)">
       <use xlink:href="#DejaVuSans-52"/>
       <use x="63.623047" xlink:href="#DejaVuSans-48"/>
      </g>
     </g>
    </g>
    <g id="ytick_4">
     <g id="line2d_19">
      <path clip-path="url(#p2bb1bfedc2)" d="M 57.6 122.976102 
L 414.72 122.976102 
" style="fill:none;stroke:#b0b0b0;stroke-linecap:square;stroke-width:0.8;"/>
     </g>
     <g id="line2d_20">
      <g>
       <use style="stroke:#000000;stroke-width:0.8;" x="57.6" xlink:href="#m9123ee71f1" y="122.976102"/>
      </g>
     </g>
     <g id="text_11">
      <!-- 60 -->
      <g transform="translate(37.875 126.77532)scale(0.1 -0.1)">
       <use xlink:href="#DejaVuSans-54"/>
       <use x="63.623047" xlink:href="#DejaVuSans-48"/>
      </g>
     </g>
    </g>
    <g id="ytick_5">
     <g id="line2d_21">
      <path clip-path="url(#p2bb1bfedc2)" d="M 57.6 73.548837 
L 414.72 73.548837 
" style="fill:none;stroke:#b0b0b0;stroke-linecap:square;stroke-width:0.8;"/>
     </g>
     <g id="line2d_22">
      <g>
       <use style="stroke:#000000;stroke-width:0.8;" x="57.6" xlink:href="#m9123ee71f1" y="73.548837"/>
      </g>
     </g>
     <g id="text_12">
      <!-- 80 -->
      <g transform="translate(37.875 77.348056)scale(0.1 -0.1)">
       <use xlink:href="#DejaVuSans-56"/>
       <use x="63.623047" xlink:href="#DejaVuSans-48"/>
      </g>
     </g>
    </g>
    <g id="text_13">
     <!-- Fitness -->
     <defs>
      <path d="M 9.8125 72.90625 
L 51.703125 72.90625 
L 51.703125 64.59375 
L 19.671875 64.59375 
L 19.671875 43.109375 
L 48.578125 43.109375 
L 48.578125 34.8125 
L 19.671875 34.8125 
L 19.671875 0 
L 9.8125 0 
z
" id="DejaVuSans-70"/>
     </defs>
     <g transform="translate(31.795312 192.202219)rotate(-90)scale(0.1 -0.1)">
      <use xlink:href="#DejaVuSans-70"/>
      <use x="57.410156" xlink:href="#DejaVuSans-105"/>
      <use x="85.193359" xlink:href="#DejaVuSans-116"/>
      <use x="124.402344" xlink:href="#DejaVuSans-110"/>
      <use x="187.78125" xlink:href="#DejaVuSans-101"/>
      <use x="249.304688" xlink:href="#DejaVuSans-115"/>
      <use x="301.404297" xlink:href="#DejaVuSans-115"/>
     </g>
    </g>
   </g>
   <g id="line2d_23">
    <path clip-path="url(#p2bb1bfedc2)" d="M 73.832727 275.228693 
L 77.112066 250.518541 
L 80.391405 250.971128 
L 83.670744 249.700558 
L 86.950083 247.659435 
L 90.229421 251.590958 
L 93.50876 252.31408 
L 96.788099 246.0716 
L 100.067438 241.025582 
L 103.346777 235.604985 
L 106.626116 230.931378 
L 109.905455 245.225278 
L 113.184793 243.148681 
L 116.464132 229.763964 
L 119.743471 242.564643 
L 123.02281 243.584131 
L 126.302149 233.886595 
L 129.581488 243.196707 
L 132.860826 237.513866 
L 136.140165 246.745947 
L 139.419504 246.46004 
L 142.698843 244.714016 
L 145.978182 245.319901 
L 149.257521 248.778409 
L 152.53686 249.317432 
L 155.816198 248.781688 
L 159.095537 247.865355 
L 162.374876 248.427514 
L 165.654215 256.708382 
L 168.933554 251.78084 
L 172.212893 243.308755 
L 175.492231 238.832563 
L 178.77157 233.886742 
L 182.050909 233.303871 
L 185.330248 230.786852 
L 188.609587 245.516915 
L 191.888926 247.86975 
L 195.168264 248.813102 
L 198.447603 229.038749 
L 201.726942 235.463606 
L 205.006281 239.576362 
L 208.28562 239.486562 
L 211.564959 250.89873 
L 214.844298 247.838023 
L 218.123636 245.73201 
L 221.402975 238.53135 
L 224.682314 235.435111 
L 227.961653 238.673047 
L 231.240992 235.685377 
L 234.520331 247.836747 
L 237.799669 242.858672 
L 241.079008 236.427222 
L 244.358347 247.712974 
L 247.637686 240.681604 
L 250.917025 231.38569 
L 254.196364 239.551668 
L 257.475702 238.002021 
L 260.755041 243.061268 
L 264.03438 237.272924 
L 267.313719 230.761472 
L 270.593058 237.282385 
L 273.872397 235.608278 
L 277.151736 250.430845 
L 280.431074 248.315117 
L 283.710413 235.272116 
L 286.989752 244.999731 
L 290.269091 246.696768 
L 293.54843 247.370626 
L 296.827769 237.613178 
L 300.107107 238.32014 
L 303.386446 240.959043 
L 306.665785 241.469071 
L 309.945124 240.061359 
L 313.224463 244.67896 
L 316.503802 251.379557 
L 319.78314 240.939676 
L 323.062479 249.163031 
L 326.341818 242.870672 
L 329.621157 239.072499 
L 332.900496 248.928016 
L 336.179835 243.523029 
L 339.459174 246.561635 
L 342.738512 243.880321 
L 346.017851 254.416029 
L 349.29719 241.954054 
L 352.576529 243.909686 
L 355.855868 238.565846 
L 359.135207 234.517897 
L 362.414545 243.357441 
L 365.693884 238.004589 
L 368.973223 241.611896 
L 372.252562 239.160024 
L 375.531901 234.805171 
L 378.81124 235.683341 
L 382.090579 237.905904 
L 385.369917 239.18683 
L 388.649256 240.115865 
L 391.928595 247.023609 
L 395.207934 243.650449 
L 398.487273 239.508061 
" style="fill:none;stroke:#0000ff;stroke-linecap:square;stroke-width:1.5;"/>
   </g>
   <g id="line2d_24">
    <path clip-path="url(#p2bb1bfedc2)" d="M 73.832727 295.488 
L 77.112066 288.439245 
L 80.391405 292.269016 
L 83.670744 288.782556 
L 86.950083 290.133343 
L 90.229421 289.115141 
L 93.50876 289.970813 
L 96.788099 286.110081 
L 100.067438 285.176063 
L 103.346777 287.373596 
L 106.626116 283.352704 
L 109.905455 287.246563 
L 113.184793 285.501951 
L 116.464132 282.117048 
L 119.743471 286.312132 
L 123.02281 285.106116 
L 126.302149 284.51352 
L 129.581488 282.736642 
L 132.860826 282.853403 
L 136.140165 284.60914 
L 139.419504 288.873616 
L 142.698843 287.760303 
L 145.978182 288.434116 
L 149.257521 288.659629 
L 152.53686 288.665618 
L 155.816198 292.472814 
L 159.095537 290.312558 
L 162.374876 288.971252 
L 165.654215 293.673585 
L 168.933554 294.152483 
L 172.212893 282.835858 
L 175.492231 282.36401 
L 178.77157 281.801306 
L 182.050909 280.352553 
L 185.330248 280.877797 
L 188.609587 287.024933 
L 191.888926 290.540214 
L 195.168264 290.112393 
L 198.447603 275.965484 
L 201.726942 289.008705 
L 205.006281 287.581257 
L 208.28562 283.856114 
L 211.564959 287.080873 
L 214.844298 287.855938 
L 218.123636 286.850199 
L 221.402975 281.087456 
L 224.682314 283.862539 
L 227.961653 283.538804 
L 231.240992 276.043587 
L 234.520331 284.712925 
L 237.799669 283.483889 
L 241.079008 280.112891 
L 244.358347 286.294272 
L 247.637686 281.221221 
L 250.917025 278.793884 
L 254.196364 282.827742 
L 257.475702 281.991446 
L 260.755041 287.881885 
L 264.03438 280.71902 
L 267.313719 274.766967 
L 270.593058 281.432079 
L 273.872397 283.083502 
L 277.151736 294.451408 
L 280.431074 286.415638 
L 283.710413 278.913173 
L 286.989752 285.806879 
L 290.269091 289.838896 
L 293.54843 290.243483 
L 296.827769 280.39781 
L 300.107107 281.886542 
L 303.386446 283.289873 
L 306.665785 285.304243 
L 309.945124 283.359765 
L 313.224463 281.714974 
L 316.503802 291.439629 
L 319.78314 286.550992 
L 323.062479 287.651007 
L 326.341818 287.244516 
L 329.621157 281.386477 
L 332.900496 288.33955 
L 336.179835 282.601865 
L 339.459174 287.958189 
L 342.738512 285.608873 
L 346.017851 291.142934 
L 349.29719 285.966938 
L 352.576529 282.776687 
L 355.855868 278.129447 
L 359.135207 284.9946 
L 362.414545 287.483878 
L 365.693884 278.866715 
L 368.973223 287.440856 
L 372.252562 282.586495 
L 375.531901 281.328642 
L 378.81124 280.815299 
L 382.090579 283.077503 
L 385.369917 283.939923 
L 388.649256 278.51592 
L 391.928595 284.616213 
L 395.207934 283.759228 
L 398.487273 284.693087 
" style="fill:none;stroke:#008000;stroke-dasharray:9.6,2.4,1.5,2.4;stroke-dashoffset:0;stroke-width:1.5;"/>
   </g>
   <g id="line2d_25">
    <path clip-path="url(#p2bb1bfedc2)" d="M 73.832727 254.969386 
L 77.112066 212.597838 
L 80.391405 209.67324 
L 83.670744 210.618561 
L 86.950083 205.185526 
L 90.229421 214.066775 
L 93.50876 214.657347 
L 96.788099 206.033119 
L 100.067438 196.8751 
L 103.346777 183.836373 
L 106.626116 178.510053 
L 109.905455 203.203993 
L 113.184793 200.795412 
L 116.464132 177.410881 
L 119.743471 198.817154 
L 123.02281 202.062146 
L 126.302149 183.25967 
L 129.581488 203.656772 
L 132.860826 192.174329 
L 136.140165 208.882754 
L 139.419504 204.046464 
L 142.698843 201.66773 
L 145.978182 202.205687 
L 149.257521 208.89719 
L 152.53686 209.969246 
L 155.816198 205.090562 
L 159.095537 205.418151 
L 162.374876 207.883775 
L 165.654215 219.74318 
L 168.933554 209.409197 
L 172.212893 203.781652 
L 175.492231 195.301115 
L 178.77157 185.972177 
L 182.050909 186.255189 
L 185.330248 180.695908 
L 188.609587 204.008897 
L 191.888926 205.199286 
L 195.168264 207.513812 
L 198.447603 182.112014 
L 201.726942 181.918507 
L 205.006281 191.571468 
L 208.28562 195.117009 
L 211.564959 214.716587 
L 214.844298 207.820109 
L 218.123636 204.613822 
L 221.402975 195.975245 
L 224.682314 187.007682 
L 227.961653 193.807289 
L 231.240992 195.327168 
L 234.520331 210.96057 
L 237.799669 202.233455 
L 241.079008 192.741552 
L 244.358347 209.131676 
L 247.637686 200.141987 
L 250.917025 183.977495 
L 254.196364 196.275593 
L 257.475702 194.012595 
L 260.755041 198.24065 
L 264.03438 193.826828 
L 267.313719 186.755978 
L 270.593058 193.13269 
L 273.872397 188.133053 
L 277.151736 206.410282 
L 280.431074 210.214596 
L 283.710413 191.631059 
L 286.989752 204.192582 
L 290.269091 203.554639 
L 293.54843 204.497769 
L 296.827769 194.828546 
L 300.107107 194.753738 
L 303.386446 198.628212 
L 306.665785 197.6339 
L 309.945124 196.762954 
L 313.224463 207.642946 
L 316.503802 211.319485 
L 319.78314 195.328359 
L 323.062479 210.675055 
L 326.341818 198.496827 
L 329.621157 196.758521 
L 332.900496 209.516481 
L 336.179835 204.444193 
L 339.459174 205.165081 
L 342.738512 202.151768 
L 346.017851 217.689123 
L 349.29719 197.941169 
L 352.576529 205.042686 
L 355.855868 199.002244 
L 359.135207 184.041195 
L 362.414545 199.231004 
L 365.693884 197.142463 
L 368.973223 195.782935 
L 372.252562 195.733554 
L 375.531901 188.281699 
L 378.81124 190.551383 
L 382.090579 192.734304 
L 385.369917 194.433737 
L 388.649256 201.71581 
L 391.928595 209.431004 
L 395.207934 203.54167 
L 398.487273 194.323035 
" style="fill:none;stroke:#008000;stroke-dasharray:9.6,2.4,1.5,2.4;stroke-dashoffset:0;stroke-width:1.5;"/>
   </g>
   <g id="line2d_26">
    <path clip-path="url(#p2bb1bfedc2)" d="M 73.832727 173.398528 
L 77.112066 129.054631 
L 80.391405 61.400876 
L 83.670744 106.955373 
L 86.950083 60.689769 
L 90.229421 131.432173 
L 93.50876 129.012203 
L 96.788099 129.217413 
L 100.067438 106.945428 
L 103.346777 58.629242 
L 106.626116 58.803764 
L 109.905455 86.445894 
L 113.184793 84.527665 
L 116.464132 62.919222 
L 119.743471 128.869055 
L 123.02281 130.84529 
L 126.302149 85.206326 
L 129.581488 151.498756 
L 132.860826 129.513962 
L 136.140165 130.094945 
L 139.419504 84.570093 
L 142.698843 108.367985 
L 145.978182 129.641599 
L 149.257521 129.406882 
L 152.53686 63.283475 
L 155.816198 63.076581 
L 159.095537 129.116937 
L 162.374876 129.513962 
L 165.654215 130.405892 
L 168.933554 85.987422 
L 172.212893 129.574347 
L 175.492231 128.880366 
L 178.77157 107.643907 
L 182.050909 86.324823 
L 185.330248 57.72409 
L 188.609587 129.762967 
L 191.888926 62.840693 
L 195.168264 129.496434 
L 198.447603 129.77085 
L 201.726942 53.568 
L 205.006281 107.09056 
L 208.28562 62.385194 
L 211.564959 129.755059 
L 214.844298 129.739166 
L 218.123636 107.528581 
L 221.402975 108.412415 
L 224.682314 85.278429 
L 227.961653 107.062207 
L 231.240992 61.962796 
L 234.520331 151.685362 
L 237.799669 129.275794 
L 241.079008 109.284513 
L 244.358347 151.676359 
L 247.637686 129.786542 
L 250.917025 64.835792 
L 254.196364 106.474834 
L 257.475702 108.561916 
L 260.755041 107.09056 
L 264.03438 108.648461 
L 267.313719 128.869055 
L 270.593058 129.351551 
L 273.872397 107.173716 
L 277.151736 60.732901 
L 280.431074 131.503467 
L 283.710413 107.081145 
L 286.989752 129.802134 
L 290.269091 130.387563 
L 293.54843 107.182785 
L 296.827769 129.332828 
L 300.107107 128.800082 
L 303.386446 129.351551 
L 306.665785 106.649356 
L 309.945124 107.803875 
L 313.224463 131.124456 
L 316.503802 133.149207 
L 319.78314 107.85957 
L 323.062479 129.443093 
L 326.341818 107.033526 
L 329.621157 84.894834 
L 332.900496 129.207547 
L 336.179835 129.342207 
L 339.459174 107.775549 
L 342.738512 107.306379 
L 346.017851 151.59382 
L 349.29719 106.726765 
L 352.576529 151.981435 
L 355.855868 130.81968 
L 359.135207 85.081273 
L 362.414545 86.426123 
L 365.693884 107.845763 
L 368.973223 107.323542 
L 372.252562 151.439911 
L 375.531901 84.407087 
L 378.81124 85.011897 
L 382.090579 107.146307 
L 385.369917 57.933432 
L 388.649256 151.62164 
L 391.928595 129.616594 
L 395.207934 129.187697 
L 398.487273 128.834809 
" style="fill:none;stroke:#ff0000;stroke-linecap:square;stroke-width:1.5;"/>
   </g>
   <g id="patch_3">
    <path d="M 57.6 307.584 
L 57.6 41.472 
" style="fill:none;stroke:#000000;stroke-linecap:square;stroke-linejoin:miter;stroke-width:0.8;"/>
   </g>
   <g id="patch_4">
    <path d="M 414.72 307.584 
L 414.72 41.472 
" style="fill:none;stroke:#000000;stroke-linecap:square;stroke-linejoin:miter;stroke-width:0.8;"/>
   </g>
   <g id="patch_5">
    <path d="M 57.6 307.584 
L 414.72 307.584 
" style="fill:none;stroke:#000000;stroke-linecap:square;stroke-linejoin:miter;stroke-width:0.8;"/>
   </g>
   <g id="patch_6">
    <path d="M 57.6 41.472 
L 414.72 41.472 
" style="fill:none;stroke:#000000;stroke-linecap:square;stroke-linejoin:miter;stroke-width:0.8;"/>
   </g>
   <g id="text_14">
    <!-- Population's average and best fitness -->
    <defs>
     <path d="M 19.671875 64.796875 
L 19.671875 37.40625 
L 32.078125 37.40625 
Q 38.96875 37.40625 42.71875 40.96875 
Q 46.484375 44.53125 46.484375 51.125 
Q 46.484375 57.671875 42.71875 61.234375 
Q 38.96875 64.796875 32.078125 64.796875 
z
M 9.8125 72.90625 
L 32.078125 72.90625 
Q 44.34375 72.90625 50.609375 67.359375 
Q 56.890625 61.8125 56.890625 51.125 
Q 56.890625 40.328125 50.609375 34.8125 
Q 44.34375 29.296875 32.078125 29.296875 
L 19.671875 29.296875 
L 19.671875 0 
L 9.8125 0 
z
" id="DejaVuSans-80"/>
     <path d="M 18.109375 8.203125 
L 18.109375 -20.796875 
L 9.078125 -20.796875 
L 9.078125 54.6875 
L 18.109375 54.6875 
L 18.109375 46.390625 
Q 20.953125 51.265625 25.265625 53.625 
Q 29.59375 56 35.59375 56 
Q 45.5625 56 51.78125 48.09375 
Q 58.015625 40.1875 58.015625 27.296875 
Q 58.015625 14.40625 51.78125 6.484375 
Q 45.5625 -1.421875 35.59375 -1.421875 
Q 29.59375 -1.421875 25.265625 0.953125 
Q 20.953125 3.328125 18.109375 8.203125 
z
M 48.6875 27.296875 
Q 48.6875 37.203125 44.609375 42.84375 
Q 40.53125 48.484375 33.40625 48.484375 
Q 26.265625 48.484375 22.1875 42.84375 
Q 18.109375 37.203125 18.109375 27.296875 
Q 18.109375 17.390625 22.1875 11.75 
Q 26.265625 6.109375 33.40625 6.109375 
Q 40.53125 6.109375 44.609375 11.75 
Q 48.6875 17.390625 48.6875 27.296875 
z
" id="DejaVuSans-112"/>
     <path d="M 8.5 21.578125 
L 8.5 54.6875 
L 17.484375 54.6875 
L 17.484375 21.921875 
Q 17.484375 14.15625 20.5 10.265625 
Q 23.53125 6.390625 29.59375 6.390625 
Q 36.859375 6.390625 41.078125 11.03125 
Q 45.3125 15.671875 45.3125 23.6875 
L 45.3125 54.6875 
L 54.296875 54.6875 
L 54.296875 0 
L 45.3125 0 
L 45.3125 8.40625 
Q 42.046875 3.421875 37.71875 1 
Q 33.40625 -1.421875 27.6875 -1.421875 
Q 18.265625 -1.421875 13.375 4.4375 
Q 8.5 10.296875 8.5 21.578125 
z
M 31.109375 56 
z
" id="DejaVuSans-117"/>
     <path d="M 9.421875 75.984375 
L 18.40625 75.984375 
L 18.40625 0 
L 9.421875 0 
z
" id="DejaVuSans-108"/>
     <path d="M 17.921875 72.90625 
L 17.921875 45.796875 
L 9.625 45.796875 
L 9.625 72.90625 
z
" id="DejaVuSans-39"/>
     <path id="DejaVuSans-32"/>
     <path d="M 2.984375 54.6875 
L 12.5 54.6875 
L 29.59375 8.796875 
L 46.6875 54.6875 
L 56.203125 54.6875 
L 35.6875 0 
L 23.484375 0 
z
" id="DejaVuSans-118"/>
     <path d="M 45.40625 27.984375 
Q 45.40625 37.75 41.375 43.109375 
Q 37.359375 48.484375 30.078125 48.484375 
Q 22.859375 48.484375 18.828125 43.109375 
Q 14.796875 37.75 14.796875 27.984375 
Q 14.796875 18.265625 18.828125 12.890625 
Q 22.859375 7.515625 30.078125 7.515625 
Q 37.359375 7.515625 41.375 12.890625 
Q 45.40625 18.265625 45.40625 27.984375 
z
M 54.390625 6.78125 
Q 54.390625 -7.171875 48.1875 -13.984375 
Q 42 -20.796875 29.203125 -20.796875 
Q 24.46875 -20.796875 20.265625 -20.09375 
Q 16.0625 -19.390625 12.109375 -17.921875 
L 12.109375 -9.1875 
Q 16.0625 -11.328125 19.921875 -12.34375 
Q 23.78125 -13.375 27.78125 -13.375 
Q 36.625 -13.375 41.015625 -8.765625 
Q 45.40625 -4.15625 45.40625 5.171875 
L 45.40625 9.625 
Q 42.625 4.78125 38.28125 2.390625 
Q 33.9375 0 27.875 0 
Q 17.828125 0 11.671875 7.65625 
Q 5.515625 15.328125 5.515625 27.984375 
Q 5.515625 40.671875 11.671875 48.328125 
Q 17.828125 56 27.875 56 
Q 33.9375 56 38.28125 53.609375 
Q 42.625 51.21875 45.40625 46.390625 
L 45.40625 54.6875 
L 54.390625 54.6875 
z
" id="DejaVuSans-103"/>
     <path d="M 45.40625 46.390625 
L 45.40625 75.984375 
L 54.390625 75.984375 
L 54.390625 0 
L 45.40625 0 
L 45.40625 8.203125 
Q 42.578125 3.328125 38.25 0.953125 
Q 33.9375 -1.421875 27.875 -1.421875 
Q 17.96875 -1.421875 11.734375 6.484375 
Q 5.515625 14.40625 5.515625 27.296875 
Q 5.515625 40.1875 11.734375 48.09375 
Q 17.96875 56 27.875 56 
Q 33.9375 56 38.25 53.625 
Q 42.578125 51.265625 45.40625 46.390625 
z
M 14.796875 27.296875 
Q 14.796875 17.390625 18.875 11.75 
Q 22.953125 6.109375 30.078125 6.109375 
Q 37.203125 6.109375 41.296875 11.75 
Q 45.40625 17.390625 45.40625 27.296875 
Q 45.40625 37.203125 41.296875 42.84375 
Q 37.203125 48.484375 30.078125 48.484375 
Q 22.953125 48.484375 18.875 42.84375 
Q 14.796875 37.203125 14.796875 27.296875 
z
" id="DejaVuSans-100"/>
     <path d="M 48.6875 27.296875 
Q 48.6875 37.203125 44.609375 42.84375 
Q 40.53125 48.484375 33.40625 48.484375 
Q 26.265625 48.484375 22.1875 42.84375 
Q 18.109375 37.203125 18.109375 27.296875 
Q 18.109375 17.390625 22.1875 11.75 
Q 26.265625 6.109375 33.40625 6.109375 
Q 40.53125 6.109375 44.609375 11.75 
Q 48.6875 17.390625 48.6875 27.296875 
z
M 18.109375 46.390625 
Q 20.953125 51.265625 25.265625 53.625 
Q 29.59375 56 35.59375 56 
Q 45.5625 56 51.78125 48.09375 
Q 58.015625 40.1875 58.015625 27.296875 
Q 58.015625 14.40625 51.78125 6.484375 
Q 45.5625 -1.421875 35.59375 -1.421875 
Q 29.59375 -1.421875 25.265625 0.953125 
Q 20.953125 3.328125 18.109375 8.203125 
L 18.109375 0 
L 9.078125 0 
L 9.078125 75.984375 
L 18.109375 75.984375 
z
" id="DejaVuSans-98"/>
     <path d="M 37.109375 75.984375 
L 37.109375 68.5 
L 28.515625 68.5 
Q 23.6875 68.5 21.796875 66.546875 
Q 19.921875 64.59375 19.921875 59.515625 
L 19.921875 54.6875 
L 34.71875 54.6875 
L 34.71875 47.703125 
L 19.921875 47.703125 
L 19.921875 0 
L 10.890625 0 
L 10.890625 47.703125 
L 2.296875 47.703125 
L 2.296875 54.6875 
L 10.890625 54.6875 
L 10.890625 58.5 
Q 10.890625 67.625 15.140625 71.796875 
Q 19.390625 75.984375 28.609375 75.984375 
z
" id="DejaVuSans-102"/>
    </defs>
    <g transform="translate(123.315 35.472)scale(0.12 -0.12)">
     <use xlink:href="#DejaVuSans-80"/>
     <use x="60.255859" xlink:href="#DejaVuSans-111"/>
     <use x="121.4375" xlink:href="#DejaVuSans-112"/>
     <use x="184.914062" xlink:href="#DejaVuSans-117"/>
     <use x="248.292969" xlink:href="#DejaVuSans-108"/>
     <use x="276.076172" xlink:href="#DejaVuSans-97"/>
     <use x="337.355469" xlink:href="#DejaVuSans-116"/>
     <use x="376.564453" xlink:href="#DejaVuSans-105"/>
     <use x="404.347656" xlink:href="#DejaVuSans-111"/>
     <use x="465.529297" xlink:href="#DejaVuSans-110"/>
     <use x="528.908203" xlink:href="#DejaVuSans-39"/>
     <use x="556.398438" xlink:href="#DejaVuSans-115"/>
     <use x="608.498047" xlink:href="#DejaVuSans-32"/>
     <use x="640.285156" xlink:href="#DejaVuSans-97"/>
     <use x="701.564453" xlink:href="#DejaVuSans-118"/>
     <use x="760.744141" xlink:href="#DejaVuSans-101"/>
     <use x="822.267578" xlink:href="#DejaVuSans-114"/>
     <use x="863.380859" xlink:href="#DejaVuSans-97"/>
     <use x="924.660156" xlink:href="#DejaVuSans-103"/>
     <use x="988.136719" xlink:href="#DejaVuSans-101"/>
     <use x="1049.660156" xlink:href="#DejaVuSans-32"/>
     <use x="1081.447266" xlink:href="#DejaVuSans-97"/>
     <use x="1142.726562" xlink:href="#DejaVuSans-110"/>
     <use x="1206.105469" xlink:href="#DejaVuSans-100"/>
     <use x="1269.582031" xlink:href="#DejaVuSans-32"/>
     <use x="1301.369141" xlink:href="#DejaVuSans-98"/>
     <use x="1364.845703" xlink:href="#DejaVuSans-101"/>
     <use x="1426.369141" xlink:href="#DejaVuSans-115"/>
     <use x="1478.46875" xlink:href="#DejaVuSans-116"/>
     <use x="1517.677734" xlink:href="#DejaVuSans-32"/>
     <use x="1549.464844" xlink:href="#DejaVuSans-102"/>
     <use x="1584.669922" xlink:href="#DejaVuSans-105"/>
     <use x="1612.453125" xlink:href="#DejaVuSans-116"/>
     <use x="1651.662109" xlink:href="#DejaVuSans-110"/>
     <use x="1715.041016" xlink:href="#DejaVuSans-101"/>
     <use x="1776.564453" xlink:href="#DejaVuSans-115"/>
     <use x="1828.664062" xlink:href="#DejaVuSans-115"/>
    </g>
   </g>
   <g id="legend_1">
    <g id="patch_7">
     <path d="M 334.779375 108.1845 
L 407.72 108.1845 
Q 409.72 108.1845 409.72 106.1845 
L 409.72 48.472 
Q 409.72 46.472 407.72 46.472 
L 334.779375 46.472 
Q 332.779375 46.472 332.779375 48.472 
L 332.779375 106.1845 
Q 332.779375 108.1845 334.779375 108.1845 
z
" style="fill:#ffffff;opacity:0.8;stroke:#cccccc;stroke-linejoin:miter;"/>
    </g>
    <g id="line2d_27">
     <path d="M 336.779375 54.570438 
L 356.779375 54.570438 
" style="fill:none;stroke:#0000ff;stroke-linecap:square;stroke-width:1.5;"/>
    </g>
    <g id="line2d_28"/>
    <g id="text_15">
     <!-- average -->
     <g transform="translate(364.779375 58.070438)scale(0.1 -0.1)">
      <use xlink:href="#DejaVuSans-97"/>
      <use x="61.279297" xlink:href="#DejaVuSans-118"/>
      <use x="120.458984" xlink:href="#DejaVuSans-101"/>
      <use x="181.982422" xlink:href="#DejaVuSans-114"/>
      <use x="223.095703" xlink:href="#DejaVuSans-97"/>
      <use x="284.375" xlink:href="#DejaVuSans-103"/>
      <use x="347.851562" xlink:href="#DejaVuSans-101"/>
     </g>
    </g>
    <g id="line2d_29">
     <path d="M 336.779375 69.248563 
L 356.779375 69.248563 
" style="fill:none;stroke:#008000;stroke-dasharray:9.6,2.4,1.5,2.4;stroke-dashoffset:0;stroke-width:1.5;"/>
    </g>
    <g id="line2d_30"/>
    <g id="text_16">
     <!-- -1 sd -->
     <defs>
      <path d="M 4.890625 31.390625 
L 31.203125 31.390625 
L 31.203125 23.390625 
L 4.890625 23.390625 
z
" id="DejaVuSans-45"/>
     </defs>
     <g transform="translate(364.779375 72.748563)scale(0.1 -0.1)">
      <use xlink:href="#DejaVuSans-45"/>
      <use x="36.083984" xlink:href="#DejaVuSans-49"/>
      <use x="99.707031" xlink:href="#DejaVuSans-32"/>
      <use x="131.494141" xlink:href="#DejaVuSans-115"/>
      <use x="183.59375" xlink:href="#DejaVuSans-100"/>
     </g>
    </g>
    <g id="line2d_31">
     <path d="M 336.779375 83.926688 
L 356.779375 83.926688 
" style="fill:none;stroke:#008000;stroke-dasharray:9.6,2.4,1.5,2.4;stroke-dashoffset:0;stroke-width:1.5;"/>
    </g>
    <g id="line2d_32"/>
    <g id="text_17">
     <!-- +1 sd -->
     <defs>
      <path d="M 46 62.703125 
L 46 35.5 
L 73.1875 35.5 
L 73.1875 27.203125 
L 46 27.203125 
L 46 0 
L 37.796875 0 
L 37.796875 27.203125 
L 10.59375 27.203125 
L 10.59375 35.5 
L 37.796875 35.5 
L 37.796875 62.703125 
z
" id="DejaVuSans-43"/>
     </defs>
     <g transform="translate(364.779375 87.426688)scale(0.1 -0.1)">
      <use xlink:href="#DejaVuSans-43"/>
      <use x="83.789062" xlink:href="#DejaVuSans-49"/>
      <use x="147.412109" xlink:href="#DejaVuSans-32"/>
      <use x="179.199219" xlink:href="#DejaVuSans-115"/>
      <use x="231.298828" xlink:href="#DejaVuSans-100"/>
     </g>
    </g>
    <g id="line2d_33">
     <path d="M 336.779375 98.604813 
L 356.779375 98.604813 
" style="fill:none;stroke:#ff0000;stroke-linecap:square;stroke-width:1.5;"/>
    </g>
    <g id="line2d_34"/>
    <g id="text_18">
     <!-- best -->
     <g transform="translate(364.779375 102.104813)scale(0.1 -0.1)">
      <use xlink:href="#DejaVuSans-98"/>
      <use x="63.476562" xlink:href="#DejaVuSans-101"/>
      <use x="125" xlink:href="#DejaVuSans-115"/>
      <use x="177.099609" xlink:href="#DejaVuSans-116"/>
     </g>
    </g>
   </g>
  </g>
 </g>
 <defs>
  <clipPath id="p2bb1bfedc2">
   <rect height="266.112" width="357.12" x="57.6" y="41.472"/>
  </clipPath>
 </defs>
</svg>
