<?xml version="1.0" encoding="utf-8" standalone="no"?>
<!DOCTYPE svg PUBLIC "-//W3C//DTD SVG 1.1//EN"
  "http://www.w3.org/Graphics/SVG/1.1/DTD/svg11.dtd">
<!-- Created with matplotlib (https://matplotlib.org/) -->
<svg height="345.6pt" version="1.1" viewBox="0 0 460.8 345.6" width="460.8pt" xmlns="http://www.w3.org/2000/svg" xmlns:xlink="http://www.w3.org/1999/xlink">
 <defs>
  <style type="text/css">
*{stroke-linecap:butt;stroke-linejoin:round;}
  </style>
 </defs>
 <g id="figure_1">
  <g id="patch_1">
   <path d="M 0 345.6 
L 460.8 345.6 
L 460.8 0 
L 0 0 
z
" style="fill:#ffffff;"/>
  </g>
  <g id="axes_1">
   <g id="patch_2">
    <path d="M 57.6 307.584 
L 414.72 307.584 
L 414.72 41.472 
L 57.6 41.472 
z
" style="fill:#ffffff;"/>
   </g>
   <g id="matplotlib.axis_1">
    <g id="xtick_1">
     <g id="line2d_1">
      <path clip-path="url(#p6d62e387ad)" d="M 73.832727 307.584 
L 73.832727 41.472 
" style="fill:none;stroke:#b0b0b0;stroke-linecap:square;stroke-width:0.8;"/>
     </g>
     <g id="line2d_2">
      <defs>
       <path d="M 0 0 
L 0 3.5 
" id="mf107034a89" style="stroke:#000000;stroke-width:0.8;"/>
      </defs>
      <g>
       <use style="stroke:#000000;stroke-width:0.8;" x="73.832727" xlink:href="#mf107034a89" y="307.584"/>
      </g>
     </g>
     <g id="text_1">
      <!-- 0 -->
      <defs>
       <path d="M 31.78125 66.40625 
Q 24.171875 66.40625 20.328125 58.90625 
Q 16.5 51.421875 16.5 36.375 
Q 16.5 21.390625 20.328125 13.890625 
Q 24.171875 6.390625 31.78125 6.390625 
Q 39.453125 6.390625 43.28125 13.890625 
Q 47.125 21.390625 47.125 36.375 
Q 47.125 51.421875 43.28125 58.90625 
Q 39.453125 66.40625 31.78125 66.40625 
z
M 31.78125 74.21875 
Q 44.046875 74.21875 50.515625 64.515625 
Q 56.984375 54.828125 56.984375 36.375 
Q 56.984375 17.96875 50.515625 8.265625 
Q 44.046875 -1.421875 31.78125 -1.421875 
Q 19.53125 -1.421875 13.0625 8.265625 
Q 6.59375 17.96875 6.59375 36.375 
Q 6.59375 54.828125 13.0625 64.515625 
Q 19.53125 74.21875 31.78125 74.21875 
z
" id="DejaVuSans-48"/>
      </defs>
      <g transform="translate(70.651477 322.182437)scale(0.1 -0.1)">
       <use xlink:href="#DejaVuSans-48"/>
      </g>
     </g>
    </g>
    <g id="xtick_2">
     <g id="line2d_3">
      <path clip-path="url(#p6d62e387ad)" d="M 139.419504 307.584 
L 139.419504 41.472 
" style="fill:none;stroke:#b0b0b0;stroke-linecap:square;stroke-width:0.8;"/>
     </g>
     <g id="line2d_4">
      <g>
       <use style="stroke:#000000;stroke-width:0.8;" x="139.419504" xlink:href="#mf107034a89" y="307.584"/>
      </g>
     </g>
     <g id="text_2">
      <!-- 20 -->
      <defs>
       <path d="M 19.1875 8.296875 
L 53.609375 8.296875 
L 53.609375 0 
L 7.328125 0 
L 7.328125 8.296875 
Q 12.9375 14.109375 22.625 23.890625 
Q 32.328125 33.6875 34.8125 36.53125 
Q 39.546875 41.84375 41.421875 45.53125 
Q 43.3125 49.21875 43.3125 52.78125 
Q 43.3125 58.59375 39.234375 62.25 
Q 35.15625 65.921875 28.609375 65.921875 
Q 23.96875 65.921875 18.8125 64.3125 
Q 13.671875 62.703125 7.8125 59.421875 
L 7.8125 69.390625 
Q 13.765625 71.78125 18.9375 73 
Q 24.125 74.21875 28.421875 74.21875 
Q 39.75 74.21875 46.484375 68.546875 
Q 53.21875 62.890625 53.21875 53.421875 
Q 53.21875 48.921875 51.53125 44.890625 
Q 49.859375 40.875 45.40625 35.40625 
Q 44.1875 33.984375 37.640625 27.21875 
Q 31.109375 20.453125 19.1875 8.296875 
z
" id="DejaVuSans-50"/>
      </defs>
      <g transform="translate(133.057004 322.182437)scale(0.1 -0.1)">
       <use xlink:href="#DejaVuSans-50"/>
       <use x="63.623047" xlink:href="#DejaVuSans-48"/>
      </g>
     </g>
    </g>
    <g id="xtick_3">
     <g id="line2d_5">
      <path clip-path="url(#p6d62e387ad)" d="M 205.006281 307.584 
L 205.006281 41.472 
" style="fill:none;stroke:#b0b0b0;stroke-linecap:square;stroke-width:0.8;"/>
     </g>
     <g id="line2d_6">
      <g>
       <use style="stroke:#000000;stroke-width:0.8;" x="205.006281" xlink:href="#mf107034a89" y="307.584"/>
      </g>
     </g>
     <g id="text_3">
      <!-- 40 -->
      <defs>
       <path d="M 37.796875 64.3125 
L 12.890625 25.390625 
L 37.796875 25.390625 
z
M 35.203125 72.90625 
L 47.609375 72.90625 
L 47.609375 25.390625 
L 58.015625 25.390625 
L 58.015625 17.1875 
L 47.609375 17.1875 
L 47.609375 0 
L 37.796875 0 
L 37.796875 17.1875 
L 4.890625 17.1875 
L 4.890625 26.703125 
z
" id="DejaVuSans-52"/>
      </defs>
      <g transform="translate(198.643781 322.182437)scale(0.1 -0.1)">
       <use xlink:href="#DejaVuSans-52"/>
       <use x="63.623047" xlink:href="#DejaVuSans-48"/>
      </g>
     </g>
    </g>
    <g id="xtick_4">
     <g id="line2d_7">
      <path clip-path="url(#p6d62e387ad)" d="M 270.593058 307.584 
L 270.593058 41.472 
" style="fill:none;stroke:#b0b0b0;stroke-linecap:square;stroke-width:0.8;"/>
     </g>
     <g id="line2d_8">
      <g>
       <use style="stroke:#000000;stroke-width:0.8;" x="270.593058" xlink:href="#mf107034a89" y="307.584"/>
      </g>
     </g>
     <g id="text_4">
      <!-- 60 -->
      <defs>
       <path d="M 33.015625 40.375 
Q 26.375 40.375 22.484375 35.828125 
Q 18.609375 31.296875 18.609375 23.390625 
Q 18.609375 15.53125 22.484375 10.953125 
Q 26.375 6.390625 33.015625 6.390625 
Q 39.65625 6.390625 43.53125 10.953125 
Q 47.40625 15.53125 47.40625 23.390625 
Q 47.40625 31.296875 43.53125 35.828125 
Q 39.65625 40.375 33.015625 40.375 
z
M 52.59375 71.296875 
L 52.59375 62.3125 
Q 48.875 64.0625 45.09375 64.984375 
Q 41.3125 65.921875 37.59375 65.921875 
Q 27.828125 65.921875 22.671875 59.328125 
Q 17.53125 52.734375 16.796875 39.40625 
Q 19.671875 43.65625 24.015625 45.921875 
Q 28.375 48.1875 33.59375 48.1875 
Q 44.578125 48.1875 50.953125 41.515625 
Q 57.328125 34.859375 57.328125 23.390625 
Q 57.328125 12.15625 50.6875 5.359375 
Q 44.046875 -1.421875 33.015625 -1.421875 
Q 20.359375 -1.421875 13.671875 8.265625 
Q 6.984375 17.96875 6.984375 36.375 
Q 6.984375 53.65625 15.1875 63.9375 
Q 23.390625 74.21875 37.203125 74.21875 
Q 40.921875 74.21875 44.703125 73.484375 
Q 48.484375 72.75 52.59375 71.296875 
z
" id="DejaVuSans-54"/>
      </defs>
      <g transform="translate(264.230558 322.182437)scale(0.1 -0.1)">
       <use xlink:href="#DejaVuSans-54"/>
       <use x="63.623047" xlink:href="#DejaVuSans-48"/>
      </g>
     </g>
    </g>
    <g id="xtick_5">
     <g id="line2d_9">
      <path clip-path="url(#p6d62e387ad)" d="M 336.179835 307.584 
L 336.179835 41.472 
" style="fill:none;stroke:#b0b0b0;stroke-linecap:square;stroke-width:0.8;"/>
     </g>
     <g id="line2d_10">
      <g>
       <use style="stroke:#000000;stroke-width:0.8;" x="336.179835" xlink:href="#mf107034a89" y="307.584"/>
      </g>
     </g>
     <g id="text_5">
      <!-- 80 -->
      <defs>
       <path d="M 31.78125 34.625 
Q 24.75 34.625 20.71875 30.859375 
Q 16.703125 27.09375 16.703125 20.515625 
Q 16.703125 13.921875 20.71875 10.15625 
Q 24.75 6.390625 31.78125 6.390625 
Q 38.8125 6.390625 42.859375 10.171875 
Q 46.921875 13.96875 46.921875 20.515625 
Q 46.921875 27.09375 42.890625 30.859375 
Q 38.875 34.625 31.78125 34.625 
z
M 21.921875 38.8125 
Q 15.578125 40.375 12.03125 44.71875 
Q 8.5 49.078125 8.5 55.328125 
Q 8.5 64.0625 14.71875 69.140625 
Q 20.953125 74.21875 31.78125 74.21875 
Q 42.671875 74.21875 48.875 69.140625 
Q 55.078125 64.0625 55.078125 55.328125 
Q 55.078125 49.078125 51.53125 44.71875 
Q 48 40.375 41.703125 38.8125 
Q 48.828125 37.15625 52.796875 32.3125 
Q 56.78125 27.484375 56.78125 20.515625 
Q 56.78125 9.90625 50.3125 4.234375 
Q 43.84375 -1.421875 31.78125 -1.421875 
Q 19.734375 -1.421875 13.25 4.234375 
Q 6.78125 9.90625 6.78125 20.515625 
Q 6.78125 27.484375 10.78125 32.3125 
Q 14.796875 37.15625 21.921875 38.8125 
z
M 18.3125 54.390625 
Q 18.3125 48.734375 21.84375 45.5625 
Q 25.390625 42.390625 31.78125 42.390625 
Q 38.140625 42.390625 41.71875 45.5625 
Q 45.3125 48.734375 45.3125 54.390625 
Q 45.3125 60.0625 41.71875 63.234375 
Q 38.140625 66.40625 31.78125 66.40625 
Q 25.390625 66.40625 21.84375 63.234375 
Q 18.3125 60.0625 18.3125 54.390625 
z
" id="DejaVuSans-56"/>
      </defs>
      <g transform="translate(329.817335 322.182437)scale(0.1 -0.1)">
       <use xlink:href="#DejaVuSans-56"/>
       <use x="63.623047" xlink:href="#DejaVuSans-48"/>
      </g>
     </g>
    </g>
    <g id="xtick_6">
     <g id="line2d_11">
      <path clip-path="url(#p6d62e387ad)" d="M 401.766612 307.584 
L 401.766612 41.472 
" style="fill:none;stroke:#b0b0b0;stroke-linecap:square;stroke-width:0.8;"/>
     </g>
     <g id="line2d_12">
      <g>
       <use style="stroke:#000000;stroke-width:0.8;" x="401.766612" xlink:href="#mf107034a89" y="307.584"/>
      </g>
     </g>
     <g id="text_6">
      <!-- 100 -->
      <defs>
       <path d="M 12.40625 8.296875 
L 28.515625 8.296875 
L 28.515625 63.921875 
L 10.984375 60.40625 
L 10.984375 69.390625 
L 28.421875 72.90625 
L 38.28125 72.90625 
L 38.28125 8.296875 
L 54.390625 8.296875 
L 54.390625 0 
L 12.40625 0 
z
" id="DejaVuSans-49"/>
      </defs>
      <g transform="translate(392.222862 322.182437)scale(0.1 -0.1)">
       <use xlink:href="#DejaVuSans-49"/>
       <use x="63.623047" xlink:href="#DejaVuSans-48"/>
       <use x="127.246094" xlink:href="#DejaVuSans-48"/>
      </g>
     </g>
    </g>
    <g id="text_7">
     <!-- Generations -->
     <defs>
      <path d="M 59.515625 10.40625 
L 59.515625 29.984375 
L 43.40625 29.984375 
L 43.40625 38.09375 
L 69.28125 38.09375 
L 69.28125 6.78125 
Q 63.578125 2.734375 56.6875 0.65625 
Q 49.8125 -1.421875 42 -1.421875 
Q 24.90625 -1.421875 15.25 8.5625 
Q 5.609375 18.5625 5.609375 36.375 
Q 5.609375 54.25 15.25 64.234375 
Q 24.90625 74.21875 42 74.21875 
Q 49.125 74.21875 55.546875 72.453125 
Q 61.96875 70.703125 67.390625 67.28125 
L 67.390625 56.78125 
Q 61.921875 61.421875 55.765625 63.765625 
Q 49.609375 66.109375 42.828125 66.109375 
Q 29.4375 66.109375 22.71875 58.640625 
Q 16.015625 51.171875 16.015625 36.375 
Q 16.015625 21.625 22.71875 14.15625 
Q 29.4375 6.6875 42.828125 6.6875 
Q 48.046875 6.6875 52.140625 7.59375 
Q 56.25 8.5 59.515625 10.40625 
z
" id="DejaVuSans-71"/>
      <path d="M 56.203125 29.59375 
L 56.203125 25.203125 
L 14.890625 25.203125 
Q 15.484375 15.921875 20.484375 11.0625 
Q 25.484375 6.203125 34.421875 6.203125 
Q 39.59375 6.203125 44.453125 7.46875 
Q 49.3125 8.734375 54.109375 11.28125 
L 54.109375 2.78125 
Q 49.265625 0.734375 44.1875 -0.34375 
Q 39.109375 -1.421875 33.890625 -1.421875 
Q 20.796875 -1.421875 13.15625 6.1875 
Q 5.515625 13.8125 5.515625 26.8125 
Q 5.515625 40.234375 12.765625 48.109375 
Q 20.015625 56 32.328125 56 
Q 43.359375 56 49.78125 48.890625 
Q 56.203125 41.796875 56.203125 29.59375 
z
M 47.21875 32.234375 
Q 47.125 39.59375 43.09375 43.984375 
Q 39.0625 48.390625 32.421875 48.390625 
Q 24.90625 48.390625 20.390625 44.140625 
Q 15.875 39.890625 15.1875 32.171875 
z
" id="DejaVuSans-101"/>
      <path d="M 54.890625 33.015625 
L 54.890625 0 
L 45.90625 0 
L 45.90625 32.71875 
Q 45.90625 40.484375 42.875 44.328125 
Q 39.84375 48.1875 33.796875 48.1875 
Q 26.515625 48.1875 22.3125 43.546875 
Q 18.109375 38.921875 18.109375 30.90625 
L 18.109375 0 
L 9.078125 0 
L 9.078125 54.6875 
L 18.109375 54.6875 
L 18.109375 46.1875 
Q 21.34375 51.125 25.703125 53.5625 
Q 30.078125 56 35.796875 56 
Q 45.21875 56 50.046875 50.171875 
Q 54.890625 44.34375 54.890625 33.015625 
z
" id="DejaVuSans-110"/>
      <path d="M 41.109375 46.296875 
Q 39.59375 47.171875 37.8125 47.578125 
Q 36.03125 48 33.890625 48 
Q 26.265625 48 22.1875 43.046875 
Q 18.109375 38.09375 18.109375 28.8125 
L 18.109375 0 
L 9.078125 0 
L 9.078125 54.6875 
L 18.109375 54.6875 
L 18.109375 46.1875 
Q 20.953125 51.171875 25.484375 53.578125 
Q 30.03125 56 36.53125 56 
Q 37.453125 56 38.578125 55.875 
Q 39.703125 55.765625 41.0625 55.515625 
z
" id="DejaVuSans-114"/>
      <path d="M 34.28125 27.484375 
Q 23.390625 27.484375 19.1875 25 
Q 14.984375 22.515625 14.984375 16.5 
Q 14.984375 11.71875 18.140625 8.90625 
Q 21.296875 6.109375 26.703125 6.109375 
Q 34.1875 6.109375 38.703125 11.40625 
Q 43.21875 16.703125 43.21875 25.484375 
L 43.21875 27.484375 
z
M 52.203125 31.203125 
L 52.203125 0 
L 43.21875 0 
L 43.21875 8.296875 
Q 40.140625 3.328125 35.546875 0.953125 
Q 30.953125 -1.421875 24.3125 -1.421875 
Q 15.921875 -1.421875 10.953125 3.296875 
Q 6 8.015625 6 15.921875 
Q 6 25.140625 12.171875 29.828125 
Q 18.359375 34.515625 30.609375 34.515625 
L 43.21875 34.515625 
L 43.21875 35.40625 
Q 43.21875 41.609375 39.140625 45 
Q 35.0625 48.390625 27.6875 48.390625 
Q 23 48.390625 18.546875 47.265625 
Q 14.109375 46.140625 10.015625 43.890625 
L 10.015625 52.203125 
Q 14.9375 54.109375 19.578125 55.046875 
Q 24.21875 56 28.609375 56 
Q 40.484375 56 46.34375 49.84375 
Q 52.203125 43.703125 52.203125 31.203125 
z
" id="DejaVuSans-97"/>
      <path d="M 18.3125 70.21875 
L 18.3125 54.6875 
L 36.8125 54.6875 
L 36.8125 47.703125 
L 18.3125 47.703125 
L 18.3125 18.015625 
Q 18.3125 11.328125 20.140625 9.421875 
Q 21.96875 7.515625 27.59375 7.515625 
L 36.8125 7.515625 
L 36.8125 0 
L 27.59375 0 
Q 17.1875 0 13.234375 3.875 
Q 9.28125 7.765625 9.28125 18.015625 
L 9.28125 47.703125 
L 2.6875 47.703125 
L 2.6875 54.6875 
L 9.28125 54.6875 
L 9.28125 70.21875 
z
" id="DejaVuSans-116"/>
      <path d="M 9.421875 54.6875 
L 18.40625 54.6875 
L 18.40625 0 
L 9.421875 0 
z
M 9.421875 75.984375 
L 18.40625 75.984375 
L 18.40625 64.59375 
L 9.421875 64.59375 
z
" id="DejaVuSans-105"/>
      <path d="M 30.609375 48.390625 
Q 23.390625 48.390625 19.1875 42.75 
Q 14.984375 37.109375 14.984375 27.296875 
Q 14.984375 17.484375 19.15625 11.84375 
Q 23.34375 6.203125 30.609375 6.203125 
Q 37.796875 6.203125 41.984375 11.859375 
Q 46.1875 17.53125 46.1875 27.296875 
Q 46.1875 37.015625 41.984375 42.703125 
Q 37.796875 48.390625 30.609375 48.390625 
z
M 30.609375 56 
Q 42.328125 56 49.015625 48.375 
Q 55.71875 40.765625 55.71875 27.296875 
Q 55.71875 13.875 49.015625 6.21875 
Q 42.328125 -1.421875 30.609375 -1.421875 
Q 18.84375 -1.421875 12.171875 6.21875 
Q 5.515625 13.875 5.515625 27.296875 
Q 5.515625 40.765625 12.171875 48.375 
Q 18.84375 56 30.609375 56 
z
" id="DejaVuSans-111"/>
      <path d="M 44.28125 53.078125 
L 44.28125 44.578125 
Q 40.484375 46.53125 36.375 47.5 
Q 32.28125 48.484375 27.875 48.484375 
Q 21.1875 48.484375 17.84375 46.4375 
Q 14.5 44.390625 14.5 40.28125 
Q 14.5 37.15625 16.890625 35.375 
Q 19.28125 33.59375 26.515625 31.984375 
L 29.59375 31.296875 
Q 39.15625 29.25 43.1875 25.515625 
Q 47.21875 21.78125 47.21875 15.09375 
Q 47.21875 7.46875 41.1875 3.015625 
Q 35.15625 -1.421875 24.609375 -1.421875 
Q 20.21875 -1.421875 15.453125 -0.5625 
Q 10.6875 0.296875 5.421875 2 
L 5.421875 11.28125 
Q 10.40625 8.6875 15.234375 7.390625 
Q 20.0625 6.109375 24.8125 6.109375 
Q 31.15625 6.109375 34.5625 8.28125 
Q 37.984375 10.453125 37.984375 14.40625 
Q 37.984375 18.0625 35.515625 20.015625 
Q 33.0625 21.96875 24.703125 23.78125 
L 21.578125 24.515625 
Q 13.234375 26.265625 9.515625 29.90625 
Q 5.8125 33.546875 5.8125 39.890625 
Q 5.8125 47.609375 11.28125 51.796875 
Q 16.75 56 26.8125 56 
Q 31.78125 56 36.171875 55.265625 
Q 40.578125 54.546875 44.28125 53.078125 
z
" id="DejaVuSans-115"/>
     </defs>
     <g transform="translate(205.662344 335.860562)scale(0.1 -0.1)">
      <use xlink:href="#DejaVuSans-71"/>
      <use x="77.490234" xlink:href="#DejaVuSans-101"/>
      <use x="139.013672" xlink:href="#DejaVuSans-110"/>
      <use x="202.392578" xlink:href="#DejaVuSans-101"/>
      <use x="263.916016" xlink:href="#DejaVuSans-114"/>
      <use x="305.029297" xlink:href="#DejaVuSans-97"/>
      <use x="366.308594" xlink:href="#DejaVuSans-116"/>
      <use x="405.517578" xlink:href="#DejaVuSans-105"/>
      <use x="433.300781" xlink:href="#DejaVuSans-111"/>
      <use x="494.482422" xlink:href="#DejaVuSans-110"/>
      <use x="557.861328" xlink:href="#DejaVuSans-115"/>
     </g>
    </g>
   </g>
   <g id="matplotlib.axis_2">
    <g id="ytick_1">
     <g id="line2d_13">
      <path clip-path="url(#p6d62e387ad)" d="M 57.6 290.880834 
L 414.72 290.880834 
" style="fill:none;stroke:#b0b0b0;stroke-linecap:square;stroke-width:0.8;"/>
     </g>
     <g id="line2d_14">
      <defs>
       <path d="M 0 0 
L -3.5 0 
" id="m93e841289d" style="stroke:#000000;stroke-width:0.8;"/>
      </defs>
      <g>
       <use style="stroke:#000000;stroke-width:0.8;" x="57.6" xlink:href="#m93e841289d" y="290.880834"/>
      </g>
     </g>
     <g id="text_8">
      <!-- −10 -->
      <defs>
       <path d="M 10.59375 35.5 
L 73.1875 35.5 
L 73.1875 27.203125 
L 10.59375 27.203125 
z
" id="DejaVuSans-8722"/>
      </defs>
      <g transform="translate(29.495313 294.680053)scale(0.1 -0.1)">
       <use xlink:href="#DejaVuSans-8722"/>
       <use x="83.789062" xlink:href="#DejaVuSans-49"/>
       <use x="147.412109" xlink:href="#DejaVuSans-48"/>
      </g>
     </g>
    </g>
    <g id="ytick_2">
     <g id="line2d_15">
      <path clip-path="url(#p6d62e387ad)" d="M 57.6 256.409361 
L 414.72 256.409361 
" style="fill:none;stroke:#b0b0b0;stroke-linecap:square;stroke-width:0.8;"/>
     </g>
     <g id="line2d_16">
      <g>
       <use style="stroke:#000000;stroke-width:0.8;" x="57.6" xlink:href="#m93e841289d" y="256.409361"/>
      </g>
     </g>
     <g id="text_9">
      <!-- 0 -->
      <g transform="translate(44.2375 260.208579)scale(0.1 -0.1)">
       <use xlink:href="#DejaVuSans-48"/>
      </g>
     </g>
    </g>
    <g id="ytick_3">
     <g id="line2d_17">
      <path clip-path="url(#p6d62e387ad)" d="M 57.6 221.937887 
L 414.72 221.937887 
" style="fill:none;stroke:#b0b0b0;stroke-linecap:square;stroke-width:0.8;"/>
     </g>
     <g id="line2d_18">
      <g>
       <use style="stroke:#000000;stroke-width:0.8;" x="57.6" xlink:href="#m93e841289d" y="221.937887"/>
      </g>
     </g>
     <g id="text_10">
      <!-- 10 -->
      <g transform="translate(37.875 225.737106)scale(0.1 -0.1)">
       <use xlink:href="#DejaVuSans-49"/>
       <use x="63.623047" xlink:href="#DejaVuSans-48"/>
      </g>
     </g>
    </g>
    <g id="ytick_4">
     <g id="line2d_19">
      <path clip-path="url(#p6d62e387ad)" d="M 57.6 187.466414 
L 414.72 187.466414 
" style="fill:none;stroke:#b0b0b0;stroke-linecap:square;stroke-width:0.8;"/>
     </g>
     <g id="line2d_20">
      <g>
       <use style="stroke:#000000;stroke-width:0.8;" x="57.6" xlink:href="#m93e841289d" y="187.466414"/>
      </g>
     </g>
     <g id="text_11">
      <!-- 20 -->
      <g transform="translate(37.875 191.265633)scale(0.1 -0.1)">
       <use xlink:href="#DejaVuSans-50"/>
       <use x="63.623047" xlink:href="#DejaVuSans-48"/>
      </g>
     </g>
    </g>
    <g id="ytick_5">
     <g id="line2d_21">
      <path clip-path="url(#p6d62e387ad)" d="M 57.6 152.994941 
L 414.72 152.994941 
" style="fill:none;stroke:#b0b0b0;stroke-linecap:square;stroke-width:0.8;"/>
     </g>
     <g id="line2d_22">
      <g>
       <use style="stroke:#000000;stroke-width:0.8;" x="57.6" xlink:href="#m93e841289d" y="152.994941"/>
      </g>
     </g>
     <g id="text_12">
      <!-- 30 -->
      <defs>
       <path d="M 40.578125 39.3125 
Q 47.65625 37.796875 51.625 33 
Q 55.609375 28.21875 55.609375 21.1875 
Q 55.609375 10.40625 48.1875 4.484375 
Q 40.765625 -1.421875 27.09375 -1.421875 
Q 22.515625 -1.421875 17.65625 -0.515625 
Q 12.796875 0.390625 7.625 2.203125 
L 7.625 11.71875 
Q 11.71875 9.328125 16.59375 8.109375 
Q 21.484375 6.890625 26.8125 6.890625 
Q 36.078125 6.890625 40.9375 10.546875 
Q 45.796875 14.203125 45.796875 21.1875 
Q 45.796875 27.640625 41.28125 31.265625 
Q 36.765625 34.90625 28.71875 34.90625 
L 20.21875 34.90625 
L 20.21875 43.015625 
L 29.109375 43.015625 
Q 36.375 43.015625 40.234375 45.921875 
Q 44.09375 48.828125 44.09375 54.296875 
Q 44.09375 59.90625 40.109375 62.90625 
Q 36.140625 65.921875 28.71875 65.921875 
Q 24.65625 65.921875 20.015625 65.03125 
Q 15.375 64.15625 9.8125 62.3125 
L 9.8125 71.09375 
Q 15.4375 72.65625 20.34375 73.4375 
Q 25.25 74.21875 29.59375 74.21875 
Q 40.828125 74.21875 47.359375 69.109375 
Q 53.90625 64.015625 53.90625 55.328125 
Q 53.90625 49.265625 50.4375 45.09375 
Q 46.96875 40.921875 40.578125 39.3125 
z
" id="DejaVuSans-51"/>
      </defs>
      <g transform="translate(37.875 156.79416)scale(0.1 -0.1)">
       <use xlink:href="#DejaVuSans-51"/>
       <use x="63.623047" xlink:href="#DejaVuSans-48"/>
      </g>
     </g>
    </g>
    <g id="ytick_6">
     <g id="line2d_23">
      <path clip-path="url(#p6d62e387ad)" d="M 57.6 118.523468 
L 414.72 118.523468 
" style="fill:none;stroke:#b0b0b0;stroke-linecap:square;stroke-width:0.8;"/>
     </g>
     <g id="line2d_24">
      <g>
       <use style="stroke:#000000;stroke-width:0.8;" x="57.6" xlink:href="#m93e841289d" y="118.523468"/>
      </g>
     </g>
     <g id="text_13">
      <!-- 40 -->
      <g transform="translate(37.875 122.322686)scale(0.1 -0.1)">
       <use xlink:href="#DejaVuSans-52"/>
       <use x="63.623047" xlink:href="#DejaVuSans-48"/>
      </g>
     </g>
    </g>
    <g id="ytick_7">
     <g id="line2d_25">
      <path clip-path="url(#p6d62e387ad)" d="M 57.6 84.051994 
L 414.72 84.051994 
" style="fill:none;stroke:#b0b0b0;stroke-linecap:square;stroke-width:0.8;"/>
     </g>
     <g id="line2d_26">
      <g>
       <use style="stroke:#000000;stroke-width:0.8;" x="57.6" xlink:href="#m93e841289d" y="84.051994"/>
      </g>
     </g>
     <g id="text_14">
      <!-- 50 -->
      <defs>
       <path d="M 10.796875 72.90625 
L 49.515625 72.90625 
L 49.515625 64.59375 
L 19.828125 64.59375 
L 19.828125 46.734375 
Q 21.96875 47.46875 24.109375 47.828125 
Q 26.265625 48.1875 28.421875 48.1875 
Q 40.625 48.1875 47.75 41.5 
Q 54.890625 34.8125 54.890625 23.390625 
Q 54.890625 11.625 47.5625 5.09375 
Q 40.234375 -1.421875 26.90625 -1.421875 
Q 22.3125 -1.421875 17.546875 -0.640625 
Q 12.796875 0.140625 7.71875 1.703125 
L 7.71875 11.625 
Q 12.109375 9.234375 16.796875 8.0625 
Q 21.484375 6.890625 26.703125 6.890625 
Q 35.15625 6.890625 40.078125 11.328125 
Q 45.015625 15.765625 45.015625 23.390625 
Q 45.015625 31 40.078125 35.4375 
Q 35.15625 39.890625 26.703125 39.890625 
Q 22.75 39.890625 18.8125 39.015625 
Q 14.890625 38.140625 10.796875 36.28125 
z
" id="DejaVuSans-53"/>
      </defs>
      <g transform="translate(37.875 87.851213)scale(0.1 -0.1)">
       <use xlink:href="#DejaVuSans-53"/>
       <use x="63.623047" xlink:href="#DejaVuSans-48"/>
      </g>
     </g>
    </g>
    <g id="ytick_8">
     <g id="line2d_27">
      <path clip-path="url(#p6d62e387ad)" d="M 57.6 49.580521 
L 414.72 49.580521 
" style="fill:none;stroke:#b0b0b0;stroke-linecap:square;stroke-width:0.8;"/>
     </g>
     <g id="line2d_28">
      <g>
       <use style="stroke:#000000;stroke-width:0.8;" x="57.6" xlink:href="#m93e841289d" y="49.580521"/>
      </g>
     </g>
     <g id="text_15">
      <!-- 60 -->
      <g transform="translate(37.875 53.37974)scale(0.1 -0.1)">
       <use xlink:href="#DejaVuSans-54"/>
       <use x="63.623047" xlink:href="#DejaVuSans-48"/>
      </g>
     </g>
    </g>
    <g id="text_16">
     <!-- Fitness -->
     <defs>
      <path d="M 9.8125 72.90625 
L 51.703125 72.90625 
L 51.703125 64.59375 
L 19.671875 64.59375 
L 19.671875 43.109375 
L 48.578125 43.109375 
L 48.578125 34.8125 
L 19.671875 34.8125 
L 19.671875 0 
L 9.8125 0 
z
" id="DejaVuSans-70"/>
     </defs>
     <g transform="translate(23.415625 192.202219)rotate(-90)scale(0.1 -0.1)">
      <use xlink:href="#DejaVuSans-70"/>
      <use x="57.410156" xlink:href="#DejaVuSans-105"/>
      <use x="85.193359" xlink:href="#DejaVuSans-116"/>
      <use x="124.402344" xlink:href="#DejaVuSans-110"/>
      <use x="187.78125" xlink:href="#DejaVuSans-101"/>
      <use x="249.304688" xlink:href="#DejaVuSans-115"/>
      <use x="301.404297" xlink:href="#DejaVuSans-115"/>
     </g>
    </g>
   </g>
   <g id="line2d_29">
    <path clip-path="url(#p6d62e387ad)" d="M 73.832727 270.995767 
L 77.112066 260.975823 
L 80.391405 250.569869 
L 83.670744 243.850754 
L 86.950083 238.256204 
L 90.229421 231.450743 
L 93.50876 229.41867 
L 96.788099 222.840171 
L 100.067438 224.28645 
L 103.346777 228.674598 
L 106.626116 223.991927 
L 109.905455 236.108989 
L 113.184793 234.005091 
L 116.464132 223.933555 
L 119.743471 225.187887 
L 123.02281 233.788331 
L 126.302149 235.236964 
L 129.581488 230.805725 
L 132.860826 232.739242 
L 136.140165 233.218656 
L 139.419504 245.577205 
L 142.698843 239.957502 
L 145.978182 230.688061 
L 149.257521 230.395239 
L 152.53686 231.644318 
L 155.816198 232.995469 
L 159.095537 235.134178 
L 162.374876 239.254594 
L 165.654215 239.624394 
L 168.933554 234.985118 
L 172.212893 238.779034 
L 175.492231 233.866056 
L 178.77157 238.118022 
L 182.050909 246.203455 
L 185.330248 230.333451 
L 188.609587 231.413501 
L 191.888926 231.98226 
L 195.168264 233.839888 
L 198.447603 230.515441 
L 201.726942 226.464066 
L 205.006281 218.510615 
L 208.28562 226.842104 
L 211.564959 226.022469 
L 214.844298 232.976892 
L 218.123636 227.085833 
L 221.402975 230.19941 
L 224.682314 218.550722 
L 227.961653 216.114947 
L 231.240992 219.760097 
L 234.520331 231.173309 
L 237.799669 233.712036 
L 241.079008 227.971082 
L 244.358347 229.464517 
L 247.637686 231.388364 
L 250.917025 226.792205 
L 254.196364 227.522742 
L 257.475702 231.915971 
L 260.755041 222.233203 
L 264.03438 224.476533 
L 267.313719 223.775537 
L 270.593058 227.44442 
L 273.872397 225.476174 
L 277.151736 226.328176 
L 280.431074 232.885199 
L 283.710413 236.020634 
L 286.989752 234.142961 
L 290.269091 237.08416 
L 293.54843 232.507994 
L 296.827769 232.342233 
L 300.107107 231.515355 
L 303.386446 225.588421 
L 306.665785 226.275355 
L 309.945124 232.080536 
L 313.224463 234.235314 
L 316.503802 236.215663 
L 319.78314 236.346328 
L 323.062479 226.105385 
L 326.341818 229.723048 
L 329.621157 231.167244 
L 332.900496 232.775639 
L 336.179835 233.232297 
L 339.459174 224.0191 
L 342.738512 219.351184 
L 346.017851 222.168978 
L 349.29719 229.274547 
L 352.576529 230.157609 
L 355.855868 221.616687 
L 359.135207 233.465213 
L 362.414545 221.042472 
L 365.693884 233.336167 
L 368.973223 230.652098 
L 372.252562 218.71928 
L 375.531901 221.933756 
L 378.81124 218.02595 
L 382.090579 215.582771 
L 385.369917 226.5511 
L 388.649256 214.711146 
L 391.928595 224.556665 
L 395.207934 214.513973 
L 398.487273 227.498823 
" style="fill:none;stroke:#0000ff;stroke-linecap:square;stroke-width:1.5;"/>
   </g>
   <g id="line2d_30">
    <path clip-path="url(#p6d62e387ad)" d="M 73.832727 295.488 
L 77.112066 288.72126 
L 80.391405 285.779702 
L 83.670744 281.814034 
L 86.950083 269.605301 
L 90.229421 274.05718 
L 93.50876 270.111243 
L 96.788099 267.136552 
L 100.067438 269.861558 
L 103.346777 275.107582 
L 106.626116 267.843601 
L 109.905455 279.912465 
L 113.184793 270.824282 
L 116.464132 270.576914 
L 119.743471 267.997916 
L 123.02281 278.127777 
L 126.302149 276.467184 
L 129.581488 277.79423 
L 132.860826 272.601293 
L 136.140165 272.391436 
L 139.419504 280.958264 
L 142.698843 279.369761 
L 145.978182 273.108105 
L 149.257521 270.855282 
L 152.53686 269.238529 
L 155.816198 273.289314 
L 159.095537 278.502988 
L 162.374876 274.881971 
L 165.654215 280.026722 
L 168.933554 272.309214 
L 172.212893 276.928415 
L 175.492231 273.129495 
L 178.77157 280.652994 
L 182.050909 283.238163 
L 185.330248 269.792099 
L 188.609587 273.337248 
L 191.888926 270.004783 
L 195.168264 270.945233 
L 198.447603 270.794727 
L 201.726942 267.049946 
L 205.006281 264.282173 
L 208.28562 268.871457 
L 211.564959 266.02976 
L 214.844298 269.944229 
L 218.123636 266.128131 
L 221.402975 264.45604 
L 224.682314 264.784576 
L 227.961653 256.941704 
L 231.240992 262.461125 
L 234.520331 275.198972 
L 237.799669 272.180706 
L 241.079008 270.738339 
L 244.358347 268.407226 
L 247.637686 273.126145 
L 250.917025 269.90586 
L 254.196364 266.143573 
L 257.475702 275.542288 
L 260.755041 265.676558 
L 264.03438 270.391977 
L 267.313719 266.546642 
L 270.593058 271.870211 
L 273.872397 268.580416 
L 277.151736 270.526742 
L 280.431074 276.525709 
L 283.710413 277.101756 
L 286.989752 275.60717 
L 290.269091 278.533141 
L 293.54843 273.37907 
L 296.827769 269.007896 
L 300.107107 272.20041 
L 303.386446 262.990082 
L 306.665785 270.418399 
L 309.945124 270.674121 
L 313.224463 275.757798 
L 316.503802 274.03114 
L 319.78314 273.774068 
L 323.062479 268.072743 
L 326.341818 268.490595 
L 329.621157 268.738768 
L 332.900496 273.735961 
L 336.179835 275.791791 
L 339.459174 264.857823 
L 342.738512 267.280008 
L 346.017851 264.781502 
L 349.29719 269.422439 
L 352.576529 271.763426 
L 355.855868 259.622243 
L 359.135207 275.306291 
L 362.414545 262.705329 
L 365.693884 269.996272 
L 368.973223 269.880981 
L 372.252562 259.625224 
L 375.531901 264.967158 
L 378.81124 259.654647 
L 382.090579 261.400603 
L 385.369917 266.885313 
L 388.649256 262.715807 
L 391.928595 267.580844 
L 395.207934 252.796295 
L 398.487273 270.237284 
" style="fill:none;stroke:#008000;stroke-dasharray:9.6,2.4,1.5,2.4;stroke-dashoffset:0;stroke-width:1.5;"/>
   </g>
   <g id="line2d_31">
    <path clip-path="url(#p6d62e387ad)" d="M 73.832727 246.503535 
L 77.112066 233.230387 
L 80.391405 215.360035 
L 83.670744 205.887473 
L 86.950083 206.907108 
L 90.229421 188.844306 
L 93.50876 188.726098 
L 96.788099 178.54379 
L 100.067438 178.711343 
L 103.346777 182.241615 
L 106.626116 180.140253 
L 109.905455 192.305513 
L 113.184793 197.1859 
L 116.464132 177.290197 
L 119.743471 182.377857 
L 123.02281 189.448886 
L 126.302149 194.006744 
L 129.581488 183.817219 
L 132.860826 192.877191 
L 136.140165 194.045877 
L 139.419504 210.196146 
L 142.698843 200.545243 
L 145.978182 188.268017 
L 149.257521 189.935196 
L 152.53686 194.050107 
L 155.816198 192.701624 
L 159.095537 191.765369 
L 162.374876 203.627217 
L 165.654215 199.222066 
L 168.933554 197.661023 
L 172.212893 200.629652 
L 175.492231 194.602618 
L 178.77157 195.583049 
L 182.050909 209.168748 
L 185.330248 190.874803 
L 188.609587 189.489755 
L 191.888926 193.959738 
L 195.168264 196.734542 
L 198.447603 190.236154 
L 201.726942 185.878186 
L 205.006281 172.739057 
L 208.28562 184.812751 
L 211.564959 186.015178 
L 214.844298 196.009556 
L 218.123636 188.043534 
L 221.402975 195.942779 
L 224.682314 172.316868 
L 227.961653 175.28819 
L 231.240992 177.05907 
L 234.520331 187.147645 
L 237.799669 195.243367 
L 241.079008 185.203824 
L 244.358347 190.521808 
L 247.637686 189.650583 
L 250.917025 183.678549 
L 254.196364 188.901912 
L 257.475702 188.289654 
L 260.755041 178.789848 
L 264.03438 178.561089 
L 267.313719 181.004433 
L 270.593058 183.01863 
L 273.872397 182.371932 
L 277.151736 182.129611 
L 280.431074 189.24469 
L 283.710413 194.939512 
L 286.989752 192.678751 
L 290.269091 195.635179 
L 293.54843 191.636919 
L 296.827769 195.676569 
L 300.107107 190.830301 
L 303.386446 188.18676 
L 306.665785 182.132312 
L 309.945124 193.486951 
L 313.224463 192.712829 
L 316.503802 198.400186 
L 319.78314 198.918587 
L 323.062479 184.138027 
L 326.341818 190.955501 
L 329.621157 193.595719 
L 332.900496 191.815316 
L 336.179835 190.672803 
L 339.459174 183.180376 
L 342.738512 171.42236 
L 346.017851 179.556454 
L 349.29719 189.126655 
L 352.576529 188.551792 
L 355.855868 183.611131 
L 359.135207 191.624135 
L 362.414545 179.379614 
L 365.693884 196.676061 
L 368.973223 191.423215 
L 372.252562 177.813336 
L 375.531901 178.900354 
L 378.81124 176.397253 
L 382.090579 169.764938 
L 385.369917 186.216886 
L 388.649256 166.706484 
L 391.928595 181.532485 
L 395.207934 176.231651 
L 398.487273 184.760362 
" style="fill:none;stroke:#008000;stroke-dasharray:9.6,2.4,1.5,2.4;stroke-dashoffset:0;stroke-width:1.5;"/>
   </g>
   <g id="line2d_32">
    <path clip-path="url(#p6d62e387ad)" d="M 73.832727 85.782857 
L 77.112066 111.000955 
L 80.391405 103.274871 
L 83.670744 85.772368 
L 86.950083 141.196776 
L 90.229421 54.454891 
L 93.50876 115.011435 
L 96.788099 107.843187 
L 100.067438 67.748541 
L 103.346777 95.491656 
L 106.626116 56.760317 
L 109.905455 104.743118 
L 113.184793 111.003801 
L 116.464132 60.901516 
L 119.743471 107.973815 
L 123.02281 85.944117 
L 126.302149 115.66922 
L 129.581488 80.952374 
L 132.860826 110.659793 
L 136.140165 84.803418 
L 139.419504 131.183321 
L 142.698843 110.924889 
L 145.978182 79.254607 
L 149.257521 110.54431 
L 152.53686 130.675057 
L 155.816198 132.196185 
L 159.095537 85.915999 
L 162.374876 133.99517 
L 165.654215 85.242132 
L 168.933554 84.998408 
L 172.212893 116.661194 
L 175.492231 108.741483 
L 178.77157 59.807464 
L 182.050909 133.429309 
L 185.330248 94.797779 
L 188.609587 72.921826 
L 191.888926 54.362602 
L 195.168264 114.823421 
L 198.447603 119.671181 
L 201.726942 91.263302 
L 205.006281 109.119114 
L 208.28562 87.418841 
L 211.564959 91.367315 
L 214.844298 100.096996 
L 218.123636 78.117485 
L 221.402975 146.777639 
L 224.682314 53.568 
L 227.961653 72.138623 
L 231.240992 84.480412 
L 234.520331 61.026237 
L 237.799669 121.966646 
L 241.079008 103.094293 
L 244.358347 135.721054 
L 247.637686 108.473631 
L 250.917025 109.511899 
L 254.196364 85.47346 
L 257.475702 85.244601 
L 260.755041 120.29167 
L 264.03438 109.190551 
L 267.313719 55.390618 
L 270.593058 84.591062 
L 273.872397 111.071665 
L 277.151736 72.358139 
L 280.431074 78.65293 
L 283.710413 93.851128 
L 286.989752 96.264404 
L 290.269091 93.931967 
L 293.54843 101.039128 
L 296.827769 140.141523 
L 300.107107 115.177897 
L 303.386446 132.976146 
L 306.665785 83.512485 
L 309.945124 128.987814 
L 313.224463 96.565484 
L 316.503802 103.443872 
L 319.78314 129.43096 
L 323.062479 132.677486 
L 326.341818 127.043784 
L 329.621157 124.107174 
L 332.900496 130.646552 
L 336.179835 53.667139 
L 339.459174 88.862389 
L 342.738512 85.544322 
L 346.017851 84.489306 
L 349.29719 131.791593 
L 352.576529 90.219761 
L 355.855868 108.323181 
L 359.135207 101.422533 
L 362.414545 132.20817 
L 365.693884 133.654392 
L 368.973223 133.285672 
L 372.252562 84.70183 
L 375.531901 84.104424 
L 378.81124 117.241976 
L 382.090579 60.539965 
L 385.369917 140.312966 
L 388.649256 114.227382 
L 391.928595 102.893896 
L 395.207934 117.53833 
L 398.487273 110.152833 
" style="fill:none;stroke:#ff0000;stroke-linecap:square;stroke-width:1.5;"/>
   </g>
   <g id="patch_3">
    <path d="M 57.6 307.584 
L 57.6 41.472 
" style="fill:none;stroke:#000000;stroke-linecap:square;stroke-linejoin:miter;stroke-width:0.8;"/>
   </g>
   <g id="patch_4">
    <path d="M 414.72 307.584 
L 414.72 41.472 
" style="fill:none;stroke:#000000;stroke-linecap:square;stroke-linejoin:miter;stroke-width:0.8;"/>
   </g>
   <g id="patch_5">
    <path d="M 57.6 307.584 
L 414.72 307.584 
" style="fill:none;stroke:#000000;stroke-linecap:square;stroke-linejoin:miter;stroke-width:0.8;"/>
   </g>
   <g id="patch_6">
    <path d="M 57.6 41.472 
L 414.72 41.472 
" style="fill:none;stroke:#000000;stroke-linecap:square;stroke-linejoin:miter;stroke-width:0.8;"/>
   </g>
   <g id="text_17">
    <!-- Population's average and best fitness -->
    <defs>
     <path d="M 19.671875 64.796875 
L 19.671875 37.40625 
L 32.078125 37.40625 
Q 38.96875 37.40625 42.71875 40.96875 
Q 46.484375 44.53125 46.484375 51.125 
Q 46.484375 57.671875 42.71875 61.234375 
Q 38.96875 64.796875 32.078125 64.796875 
z
M 9.8125 72.90625 
L 32.078125 72.90625 
Q 44.34375 72.90625 50.609375 67.359375 
Q 56.890625 61.8125 56.890625 51.125 
Q 56.890625 40.328125 50.609375 34.8125 
Q 44.34375 29.296875 32.078125 29.296875 
L 19.671875 29.296875 
L 19.671875 0 
L 9.8125 0 
z
" id="DejaVuSans-80"/>
     <path d="M 18.109375 8.203125 
L 18.109375 -20.796875 
L 9.078125 -20.796875 
L 9.078125 54.6875 
L 18.109375 54.6875 
L 18.109375 46.390625 
Q 20.953125 51.265625 25.265625 53.625 
Q 29.59375 56 35.59375 56 
Q 45.5625 56 51.78125 48.09375 
Q 58.015625 40.1875 58.015625 27.296875 
Q 58.015625 14.40625 51.78125 6.484375 
Q 45.5625 -1.421875 35.59375 -1.421875 
Q 29.59375 -1.421875 25.265625 0.953125 
Q 20.953125 3.328125 18.109375 8.203125 
z
M 48.6875 27.296875 
Q 48.6875 37.203125 44.609375 42.84375 
Q 40.53125 48.484375 33.40625 48.484375 
Q 26.265625 48.484375 22.1875 42.84375 
Q 18.109375 37.203125 18.109375 27.296875 
Q 18.109375 17.390625 22.1875 11.75 
Q 26.265625 6.109375 33.40625 6.109375 
Q 40.53125 6.109375 44.609375 11.75 
Q 48.6875 17.390625 48.6875 27.296875 
z
" id="DejaVuSans-112"/>
     <path d="M 8.5 21.578125 
L 8.5 54.6875 
L 17.484375 54.6875 
L 17.484375 21.921875 
Q 17.484375 14.15625 20.5 10.265625 
Q 23.53125 6.390625 29.59375 6.390625 
Q 36.859375 6.390625 41.078125 11.03125 
Q 45.3125 15.671875 45.3125 23.6875 
L 45.3125 54.6875 
L 54.296875 54.6875 
L 54.296875 0 
L 45.3125 0 
L 45.3125 8.40625 
Q 42.046875 3.421875 37.71875 1 
Q 33.40625 -1.421875 27.6875 -1.421875 
Q 18.265625 -1.421875 13.375 4.4375 
Q 8.5 10.296875 8.5 21.578125 
z
M 31.109375 56 
z
" id="DejaVuSans-117"/>
     <path d="M 9.421875 75.984375 
L 18.40625 75.984375 
L 18.40625 0 
L 9.421875 0 
z
" id="DejaVuSans-108"/>
     <path d="M 17.921875 72.90625 
L 17.921875 45.796875 
L 9.625 45.796875 
L 9.625 72.90625 
z
" id="DejaVuSans-39"/>
     <path id="DejaVuSans-32"/>
     <path d="M 2.984375 54.6875 
L 12.5 54.6875 
L 29.59375 8.796875 
L 46.6875 54.6875 
L 56.203125 54.6875 
L 35.6875 0 
L 23.484375 0 
z
" id="DejaVuSans-118"/>
     <path d="M 45.40625 27.984375 
Q 45.40625 37.75 41.375 43.109375 
Q 37.359375 48.484375 30.078125 48.484375 
Q 22.859375 48.484375 18.828125 43.109375 
Q 14.796875 37.75 14.796875 27.984375 
Q 14.796875 18.265625 18.828125 12.890625 
Q 22.859375 7.515625 30.078125 7.515625 
Q 37.359375 7.515625 41.375 12.890625 
Q 45.40625 18.265625 45.40625 27.984375 
z
M 54.390625 6.78125 
Q 54.390625 -7.171875 48.1875 -13.984375 
Q 42 -20.796875 29.203125 -20.796875 
Q 24.46875 -20.796875 20.265625 -20.09375 
Q 16.0625 -19.390625 12.109375 -17.921875 
L 12.109375 -9.1875 
Q 16.0625 -11.328125 19.921875 -12.34375 
Q 23.78125 -13.375 27.78125 -13.375 
Q 36.625 -13.375 41.015625 -8.765625 
Q 45.40625 -4.15625 45.40625 5.171875 
L 45.40625 9.625 
Q 42.625 4.78125 38.28125 2.390625 
Q 33.9375 0 27.875 0 
Q 17.828125 0 11.671875 7.65625 
Q 5.515625 15.328125 5.515625 27.984375 
Q 5.515625 40.671875 11.671875 48.328125 
Q 17.828125 56 27.875 56 
Q 33.9375 56 38.28125 53.609375 
Q 42.625 51.21875 45.40625 46.390625 
L 45.40625 54.6875 
L 54.390625 54.6875 
z
" id="DejaVuSans-103"/>
     <path d="M 45.40625 46.390625 
L 45.40625 75.984375 
L 54.390625 75.984375 
L 54.390625 0 
L 45.40625 0 
L 45.40625 8.203125 
Q 42.578125 3.328125 38.25 0.953125 
Q 33.9375 -1.421875 27.875 -1.421875 
Q 17.96875 -1.421875 11.734375 6.484375 
Q 5.515625 14.40625 5.515625 27.296875 
Q 5.515625 40.1875 11.734375 48.09375 
Q 17.96875 56 27.875 56 
Q 33.9375 56 38.25 53.625 
Q 42.578125 51.265625 45.40625 46.390625 
z
M 14.796875 27.296875 
Q 14.796875 17.390625 18.875 11.75 
Q 22.953125 6.109375 30.078125 6.109375 
Q 37.203125 6.109375 41.296875 11.75 
Q 45.40625 17.390625 45.40625 27.296875 
Q 45.40625 37.203125 41.296875 42.84375 
Q 37.203125 48.484375 30.078125 48.484375 
Q 22.953125 48.484375 18.875 42.84375 
Q 14.796875 37.203125 14.796875 27.296875 
z
" id="DejaVuSans-100"/>
     <path d="M 48.6875 27.296875 
Q 48.6875 37.203125 44.609375 42.84375 
Q 40.53125 48.484375 33.40625 48.484375 
Q 26.265625 48.484375 22.1875 42.84375 
Q 18.109375 37.203125 18.109375 27.296875 
Q 18.109375 17.390625 22.1875 11.75 
Q 26.265625 6.109375 33.40625 6.109375 
Q 40.53125 6.109375 44.609375 11.75 
Q 48.6875 17.390625 48.6875 27.296875 
z
M 18.109375 46.390625 
Q 20.953125 51.265625 25.265625 53.625 
Q 29.59375 56 35.59375 56 
Q 45.5625 56 51.78125 48.09375 
Q 58.015625 40.1875 58.015625 27.296875 
Q 58.015625 14.40625 51.78125 6.484375 
Q 45.5625 -1.421875 35.59375 -1.421875 
Q 29.59375 -1.421875 25.265625 0.953125 
Q 20.953125 3.328125 18.109375 8.203125 
L 18.109375 0 
L 9.078125 0 
L 9.078125 75.984375 
L 18.109375 75.984375 
z
" id="DejaVuSans-98"/>
     <path d="M 37.109375 75.984375 
L 37.109375 68.5 
L 28.515625 68.5 
Q 23.6875 68.5 21.796875 66.546875 
Q 19.921875 64.59375 19.921875 59.515625 
L 19.921875 54.6875 
L 34.71875 54.6875 
L 34.71875 47.703125 
L 19.921875 47.703125 
L 19.921875 0 
L 10.890625 0 
L 10.890625 47.703125 
L 2.296875 47.703125 
L 2.296875 54.6875 
L 10.890625 54.6875 
L 10.890625 58.5 
Q 10.890625 67.625 15.140625 71.796875 
Q 19.390625 75.984375 28.609375 75.984375 
z
" id="DejaVuSans-102"/>
    </defs>
    <g transform="translate(123.315 35.472)scale(0.12 -0.12)">
     <use xlink:href="#DejaVuSans-80"/>
     <use x="60.255859" xlink:href="#DejaVuSans-111"/>
     <use x="121.4375" xlink:href="#DejaVuSans-112"/>
     <use x="184.914062" xlink:href="#DejaVuSans-117"/>
     <use x="248.292969" xlink:href="#DejaVuSans-108"/>
     <use x="276.076172" xlink:href="#DejaVuSans-97"/>
     <use x="337.355469" xlink:href="#DejaVuSans-116"/>
     <use x="376.564453" xlink:href="#DejaVuSans-105"/>
     <use x="404.347656" xlink:href="#DejaVuSans-111"/>
     <use x="465.529297" xlink:href="#DejaVuSans-110"/>
     <use x="528.908203" xlink:href="#DejaVuSans-39"/>
     <use x="556.398438" xlink:href="#DejaVuSans-115"/>
     <use x="608.498047" xlink:href="#DejaVuSans-32"/>
     <use x="640.285156" xlink:href="#DejaVuSans-97"/>
     <use x="701.564453" xlink:href="#DejaVuSans-118"/>
     <use x="760.744141" xlink:href="#DejaVuSans-101"/>
     <use x="822.267578" xlink:href="#DejaVuSans-114"/>
     <use x="863.380859" xlink:href="#DejaVuSans-97"/>
     <use x="924.660156" xlink:href="#DejaVuSans-103"/>
     <use x="988.136719" xlink:href="#DejaVuSans-101"/>
     <use x="1049.660156" xlink:href="#DejaVuSans-32"/>
     <use x="1081.447266" xlink:href="#DejaVuSans-97"/>
     <use x="1142.726562" xlink:href="#DejaVuSans-110"/>
     <use x="1206.105469" xlink:href="#DejaVuSans-100"/>
     <use x="1269.582031" xlink:href="#DejaVuSans-32"/>
     <use x="1301.369141" xlink:href="#DejaVuSans-98"/>
     <use x="1364.845703" xlink:href="#DejaVuSans-101"/>
     <use x="1426.369141" xlink:href="#DejaVuSans-115"/>
     <use x="1478.46875" xlink:href="#DejaVuSans-116"/>
     <use x="1517.677734" xlink:href="#DejaVuSans-32"/>
     <use x="1549.464844" xlink:href="#DejaVuSans-102"/>
     <use x="1584.669922" xlink:href="#DejaVuSans-105"/>
     <use x="1612.453125" xlink:href="#DejaVuSans-116"/>
     <use x="1651.662109" xlink:href="#DejaVuSans-110"/>
     <use x="1715.041016" xlink:href="#DejaVuSans-101"/>
     <use x="1776.564453" xlink:href="#DejaVuSans-115"/>
     <use x="1828.664062" xlink:href="#DejaVuSans-115"/>
    </g>
   </g>
   <g id="legend_1">
    <g id="patch_7">
     <path d="M 334.779375 108.1845 
L 407.72 108.1845 
Q 409.72 108.1845 409.72 106.1845 
L 409.72 48.472 
Q 409.72 46.472 407.72 46.472 
L 334.779375 46.472 
Q 332.779375 46.472 332.779375 48.472 
L 332.779375 106.1845 
Q 332.779375 108.1845 334.779375 108.1845 
z
" style="fill:#ffffff;opacity:0.8;stroke:#cccccc;stroke-linejoin:miter;"/>
    </g>
    <g id="line2d_33">
     <path d="M 336.779375 54.570438 
L 356.779375 54.570438 
" style="fill:none;stroke:#0000ff;stroke-linecap:square;stroke-width:1.5;"/>
    </g>
    <g id="line2d_34"/>
    <g id="text_18">
     <!-- average -->
     <g transform="translate(364.779375 58.070438)scale(0.1 -0.1)">
      <use xlink:href="#DejaVuSans-97"/>
      <use x="61.279297" xlink:href="#DejaVuSans-118"/>
      <use x="120.458984" xlink:href="#DejaVuSans-101"/>
      <use x="181.982422" xlink:href="#DejaVuSans-114"/>
      <use x="223.095703" xlink:href="#DejaVuSans-97"/>
      <use x="284.375" xlink:href="#DejaVuSans-103"/>
      <use x="347.851562" xlink:href="#DejaVuSans-101"/>
     </g>
    </g>
    <g id="line2d_35">
     <path d="M 336.779375 69.248563 
L 356.779375 69.248563 
" style="fill:none;stroke:#008000;stroke-dasharray:9.6,2.4,1.5,2.4;stroke-dashoffset:0;stroke-width:1.5;"/>
    </g>
    <g id="line2d_36"/>
    <g id="text_19">
     <!-- -1 sd -->
     <defs>
      <path d="M 4.890625 31.390625 
L 31.203125 31.390625 
L 31.203125 23.390625 
L 4.890625 23.390625 
z
" id="DejaVuSans-45"/>
     </defs>
     <g transform="translate(364.779375 72.748563)scale(0.1 -0.1)">
      <use xlink:href="#DejaVuSans-45"/>
      <use x="36.083984" xlink:href="#DejaVuSans-49"/>
      <use x="99.707031" xlink:href="#DejaVuSans-32"/>
      <use x="131.494141" xlink:href="#DejaVuSans-115"/>
      <use x="183.59375" xlink:href="#DejaVuSans-100"/>
     </g>
    </g>
    <g id="line2d_37">
     <path d="M 336.779375 83.926688 
L 356.779375 83.926688 
" style="fill:none;stroke:#008000;stroke-dasharray:9.6,2.4,1.5,2.4;stroke-dashoffset:0;stroke-width:1.5;"/>
    </g>
    <g id="line2d_38"/>
    <g id="text_20">
     <!-- +1 sd -->
     <defs>
      <path d="M 46 62.703125 
L 46 35.5 
L 73.1875 35.5 
L 73.1875 27.203125 
L 46 27.203125 
L 46 0 
L 37.796875 0 
L 37.796875 27.203125 
L 10.59375 27.203125 
L 10.59375 35.5 
L 37.796875 35.5 
L 37.796875 62.703125 
z
" id="DejaVuSans-43"/>
     </defs>
     <g transform="translate(364.779375 87.426688)scale(0.1 -0.1)">
      <use xlink:href="#DejaVuSans-43"/>
      <use x="83.789062" xlink:href="#DejaVuSans-49"/>
      <use x="147.412109" xlink:href="#DejaVuSans-32"/>
      <use x="179.199219" xlink:href="#DejaVuSans-115"/>
      <use x="231.298828" xlink:href="#DejaVuSans-100"/>
     </g>
    </g>
    <g id="line2d_39">
     <path d="M 336.779375 98.604813 
L 356.779375 98.604813 
" style="fill:none;stroke:#ff0000;stroke-linecap:square;stroke-width:1.5;"/>
    </g>
    <g id="line2d_40"/>
    <g id="text_21">
     <!-- best -->
     <g transform="translate(364.779375 102.104813)scale(0.1 -0.1)">
      <use xlink:href="#DejaVuSans-98"/>
      <use x="63.476562" xlink:href="#DejaVuSans-101"/>
      <use x="125" xlink:href="#DejaVuSans-115"/>
      <use x="177.099609" xlink:href="#DejaVuSans-116"/>
     </g>
    </g>
   </g>
  </g>
 </g>
 <defs>
  <clipPath id="p6d62e387ad">
   <rect height="266.112" width="357.12" x="57.6" y="41.472"/>
  </clipPath>
 </defs>
</svg>
