<?xml version="1.0" encoding="UTF-8" standalone="no"?>
<!DOCTYPE svg PUBLIC "-//W3C//DTD SVG 1.1//EN"
 "http://www.w3.org/Graphics/SVG/1.1/DTD/svg11.dtd">
<!-- Generated by graphviz version 2.40.1 (20161225.0304)
 -->
<!-- Title: %3 Pages: 1 -->
<svg width="1334pt" height="120pt"
 viewBox="0.00 0.00 1334.00 119.98" xmlns="http://www.w3.org/2000/svg" xmlns:xlink="http://www.w3.org/1999/xlink">
<g id="graph0" class="graph" transform="scale(1 1) rotate(0) translate(4 115.9828)">
<title>%3</title>
<polygon fill="#ffffff" stroke="transparent" points="-4,4 -4,-115.9828 1330,-115.9828 1330,4 -4,4"/>
<!-- sensor 1 -->
<g id="node1" class="node">
<title>sensor 1</title>
<polygon fill="#d3d3d3" stroke="#000000" points="737,-111.9828 690,-111.9828 690,-93.9828 737,-93.9828 737,-111.9828"/>
<text text-anchor="middle" x="713.5" y="-100.7828" font-family="Times,serif" font-size="9.00" fill="#000000">sensor 1</text>
</g>
<!-- left -->
<g id="node21" class="node">
<title>left</title>
<ellipse fill="#add8e6" stroke="#000000" cx="785.5" cy="-28.9914" rx="19.6" ry="19.6"/>
<text text-anchor="middle" x="785.5" y="-26.7914" font-family="Times,serif" font-size="9.00" fill="#000000">left</text>
</g>
<!-- sensor 1&#45;&gt;left -->
<g id="edge1" class="edge">
<title>sensor 1&#45;&gt;left</title>
<path fill="none" stroke="#00ff00" stroke-width=".2155" d="M722.3286,-93.91C732.7208,-83.2303 750.3353,-65.1287 764.328,-50.7489"/>
<polygon fill="#00ff00" stroke="#00ff00" stroke-width=".2155" points="767.1947,-52.8216 771.6603,-43.2139 762.1779,-47.9398 767.1947,-52.8216"/>
</g>
<!-- right -->
<g id="node22" class="node">
<title>right</title>
<ellipse fill="#add8e6" stroke="#000000" cx="512.5" cy="-28.9914" rx="23.1702" ry="23.1702"/>
<text text-anchor="middle" x="512.5" y="-26.7914" font-family="Times,serif" font-size="9.00" fill="#000000">right</text>
</g>
<!-- sensor 1&#45;&gt;right -->
<g id="edge2" class="edge">
<title>sensor 1&#45;&gt;right</title>
<path fill="none" stroke="#ff0000" stroke-width=".3656" d="M689.747,-96.2532C686.9687,-95.4806 684.173,-94.7098 681.5,-93.9828 620.751,-77.4596 599.8533,-87.974 544.5,-57.9828 541.7544,-56.4951 539.055,-54.724 536.4595,-52.801"/>
<polygon fill="#ff0000" stroke="#ff0000" stroke-width=".3656" points="538.532,-49.9733 528.5934,-46.3026 534.0736,-55.37 538.532,-49.9733"/>
</g>
<!-- jump -->
<g id="node23" class="node">
<title>jump</title>
<ellipse fill="#add8e6" stroke="#000000" cx="578.5" cy="-28.9914" rx="25" ry="25"/>
<text text-anchor="middle" x="578.5" y="-26.7914" font-family="Times,serif" font-size="9.00" fill="#000000">jump</text>
</g>
<!-- sensor 1&#45;&gt;jump -->
<g id="edge3" class="edge">
<title>sensor 1&#45;&gt;jump</title>
<path fill="none" stroke="#ff0000" stroke-width=".1475" d="M689.6719,-94.5987C668.5679,-86.6625 637.3437,-73.6485 612.5,-57.9828 609.9778,-56.3923 607.4466,-54.626 604.9658,-52.7723"/>
<polygon fill="#ff0000" stroke="#ff0000" stroke-width=".1475" points="606.811,-49.7668 596.8124,-46.2625 602.4434,-55.2371 606.811,-49.7668"/>
</g>
<!-- shoot -->
<g id="node24" class="node">
<title>shoot</title>
<ellipse fill="#add8e6" stroke="#000000" cx="646.5" cy="-28.9914" rx="25.4118" ry="25.4118"/>
<text text-anchor="middle" x="646.5" y="-26.7914" font-family="Times,serif" font-size="9.00" fill="#000000">shoot</text>
</g>
<!-- sensor 1&#45;&gt;shoot -->
<g id="edge4" class="edge">
<title>sensor 1&#45;&gt;shoot</title>
<path fill="none" stroke="#ff0000" stroke-width=".2718" d="M705.2845,-93.91C696.6966,-84.426 682.8088,-69.0889 670.6877,-55.703"/>
<polygon fill="#ff0000" stroke="#ff0000" stroke-width=".2718" points="673.1152,-53.1695 663.8086,-48.1061 667.9264,-57.868 673.1152,-53.1695"/>
</g>
<!-- release -->
<g id="node25" class="node">
<title>release</title>
<ellipse fill="#add8e6" stroke="#000000" cx="718.5" cy="-28.9914" rx="28.9828" ry="28.9828"/>
<text text-anchor="middle" x="718.5" y="-26.7914" font-family="Times,serif" font-size="9.00" fill="#000000">release</text>
</g>
<!-- sensor 1&#45;&gt;release -->
<g id="edge5" class="edge">
<title>sensor 1&#45;&gt;release</title>
<path fill="none" stroke="#00ff00" stroke-width=".5345" d="M714.1131,-93.91C714.5621,-87.2653 715.2053,-77.7476 715.8612,-68.0408"/>
<polygon fill="#00ff00" stroke="#00ff00" stroke-width=".5345" points="719.3595,-68.1826 716.5418,-57.9693 712.3755,-67.7105 719.3595,-68.1826"/>
</g>
<!-- sensor 2 -->
<g id="node2" class="node">
<title>sensor 2</title>
<polygon fill="#d3d3d3" stroke="#000000" points="802,-111.9828 755,-111.9828 755,-93.9828 802,-93.9828 802,-111.9828"/>
<text text-anchor="middle" x="778.5" y="-100.7828" font-family="Times,serif" font-size="9.00" fill="#000000">sensor 2</text>
</g>
<!-- sensor 2&#45;&gt;left -->
<g id="edge6" class="edge">
<title>sensor 2&#45;&gt;left</title>
<path fill="none" stroke="#ff0000" stroke-width=".3153" d="M779.3583,-93.91C780.1855,-85.167 781.4832,-71.4499 782.673,-58.8728"/>
<polygon fill="#ff0000" stroke="#ff0000" stroke-width=".3153" points="786.177,-58.9956 783.6345,-48.7104 779.2081,-58.3362 786.177,-58.9956"/>
</g>
<!-- sensor 2&#45;&gt;right -->
<g id="edge7" class="edge">
<title>sensor 2&#45;&gt;right</title>
<path fill="none" stroke="#ff0000" stroke-width=".1421" d="M754.8007,-96.0387C752.0127,-95.3046 749.2001,-94.6015 746.5,-93.9828 657.6116,-73.6134 626.3649,-98.1597 544.5,-57.9828 541.6966,-56.6069 538.9583,-54.9113 536.3381,-53.0362"/>
<polygon fill="#ff0000" stroke="#ff0000" stroke-width=".1421" points="538.402,-50.2033 528.4358,-46.608 533.9846,-55.6336 538.402,-50.2033"/>
</g>
<!-- sensor 2&#45;&gt;jump -->
<g id="edge8" class="edge">
<title>sensor 2&#45;&gt;jump</title>
<path fill="none" stroke="#00ff00" stroke-width=".3939" d="M754.743,-96.2677C751.9654,-95.4925 749.171,-94.7171 746.5,-93.9828 687.0391,-77.6344 667.077,-86.692 612.5,-57.9828 609.6165,-56.466 606.764,-54.6665 604.01,-52.718"/>
<polygon fill="#00ff00" stroke="#00ff00" stroke-width=".3939" points="606.1488,-49.9475 596.1105,-46.5588 601.8446,-55.4678 606.1488,-49.9475"/>
</g>
<!-- sensor 2&#45;&gt;shoot -->
<g id="edge9" class="edge">
<title>sensor 2&#45;&gt;shoot</title>
<path fill="none" stroke="#00ff00" stroke-width=".321" d="M754.9951,-94.3193C734.5365,-86.2902 704.4849,-73.2974 680.5,-57.9828 678.0482,-56.4172 675.5851,-54.6883 673.1667,-52.8774"/>
<polygon fill="#00ff00" stroke="#00ff00" stroke-width=".321" points="675.1983,-50.0209 665.1975,-46.523 670.8342,-55.494 675.1983,-50.0209"/>
</g>
<!-- sensor 2&#45;&gt;release -->
<g id="edge10" class="edge">
<title>sensor 2&#45;&gt;release</title>
<path fill="none" stroke="#ff0000" stroke-width=".5738" d="M771.1428,-93.91C764.212,-85.363 753.4265,-72.0623 743.4181,-59.7202"/>
<polygon fill="#ff0000" stroke="#ff0000" stroke-width=".5738" points="746.0188,-57.3703 737.0018,-51.8076 740.5818,-61.7793 746.0188,-57.3703"/>
</g>
<!-- sensor 3 -->
<g id="node3" class="node">
<title>sensor 3</title>
<polygon fill="#d3d3d3" stroke="#000000" points="867,-111.9828 820,-111.9828 820,-93.9828 867,-93.9828 867,-111.9828"/>
<text text-anchor="middle" x="843.5" y="-100.7828" font-family="Times,serif" font-size="9.00" fill="#000000">sensor 3</text>
</g>
<!-- sensor 3&#45;&gt;left -->
<g id="edge11" class="edge">
<title>sensor 3&#45;&gt;left</title>
<path fill="none" stroke="#00ff00" stroke-width=".1045" d="M836.3881,-93.91C828.4221,-83.7477 815.1882,-66.865 804.2129,-52.8636"/>
<polygon fill="#00ff00" stroke="#00ff00" stroke-width=".1045" points="806.6622,-50.3149 797.7383,-44.6039 801.153,-54.6334 806.6622,-50.3149"/>
</g>
<!-- sensor 3&#45;&gt;right -->
<g id="edge12" class="edge">
<title>sensor 3&#45;&gt;right</title>
<path fill="none" stroke="#00ff00" stroke-width=".1557" d="M819.8254,-95.9253C817.033,-95.2115 814.2126,-94.5442 811.5,-93.9828 694.2448,-69.7136 653.0857,-108.4498 544.5,-57.9828 541.5088,-56.5926 538.6005,-54.8238 535.835,-52.8477"/>
<polygon fill="#00ff00" stroke="#00ff00" stroke-width=".1557" points="537.9852,-50.0848 528.0267,-46.4685 533.5565,-55.5057 537.9852,-50.0848"/>
</g>
<!-- sensor 3&#45;&gt;jump -->
<g id="edge13" class="edge">
<title>sensor 3&#45;&gt;jump</title>
<path fill="none" stroke="#ff0000" stroke-width=".1297" d="M819.7991,-96.0457C817.0114,-95.3103 814.1993,-94.605 811.5,-93.9828 723.917,-73.7926 693.7227,-96.4702 612.5,-57.9828 609.5557,-56.5876 606.6624,-54.8699 603.8825,-52.973"/>
<polygon fill="#ff0000" stroke="#ff0000" stroke-width=".1297" points="606.0115,-50.195 595.9459,-46.8883 601.7524,-55.7502 606.0115,-50.195"/>
</g>
<!-- sensor 3&#45;&gt;shoot -->
<g id="edge14" class="edge">
<title>sensor 3&#45;&gt;shoot</title>
<path fill="none" stroke="#00ff00" stroke-width=".2123" d="M819.7388,-96.2829C816.962,-95.505 814.1689,-94.7248 811.5,-93.9828 753.3259,-77.8088 733.8575,-86.2459 680.5,-57.9828 677.9294,-56.6211 675.3823,-55.0363 672.907,-53.3229"/>
<polygon fill="#00ff00" stroke="#00ff00" stroke-width=".2123" points="674.9045,-50.4441 664.8381,-47.1397 670.6467,-56.0003 674.9045,-50.4441"/>
</g>
<!-- sensor 3&#45;&gt;release -->
<g id="edge15" class="edge">
<title>sensor 3&#45;&gt;release</title>
<path fill="none" stroke="#ff0000" stroke-width=".4677" d="M823.6085,-93.9168C805.6137,-85.4323 778.6244,-71.9938 756.5,-57.9828 754.2917,-56.5843 752.0515,-55.091 749.8207,-53.5475"/>
<polygon fill="#ff0000" stroke="#ff0000" stroke-width=".4677" points="751.5086,-50.4495 741.3505,-47.4389 747.4141,-56.1271 751.5086,-50.4495"/>
</g>
<!-- sensor 4 -->
<g id="node4" class="node">
<title>sensor 4</title>
<polygon fill="#d3d3d3" stroke="#000000" points="932,-111.9828 885,-111.9828 885,-93.9828 932,-93.9828 932,-111.9828"/>
<text text-anchor="middle" x="908.5" y="-100.7828" font-family="Times,serif" font-size="9.00" fill="#000000">sensor 4</text>
</g>
<!-- sensor 4&#45;&gt;left -->
<g id="edge16" class="edge">
<title>sensor 4&#45;&gt;left</title>
<path fill="none" stroke="#ff0000" stroke-width=".2626" d="M893.4178,-93.91C872.9641,-81.6059 836.1339,-59.4505 811.2559,-44.485"/>
<polygon fill="#ff0000" stroke="#ff0000" stroke-width=".2626" points="813.0568,-41.4839 802.6835,-39.3282 809.4484,-47.4822 813.0568,-41.4839"/>
</g>
<!-- sensor 4&#45;&gt;right -->
<g id="edge17" class="edge">
<title>sensor 4&#45;&gt;right</title>
<path fill="none" stroke="#ff0000" stroke-width=".1151" d="M884.8394,-95.8553C882.0445,-95.1541 879.2197,-94.5089 876.5,-93.9828 730.7811,-65.7934 679.8961,-118.7819 544.5,-57.9828 541.491,-56.6316 538.571,-54.8884 535.7984,-52.928"/>
<polygon fill="#ff0000" stroke="#ff0000" stroke-width=".1151" points="537.947,-50.164 527.9806,-46.5693 533.53,-55.5946 537.947,-50.164"/>
</g>
<!-- sensor 4&#45;&gt;jump -->
<g id="edge18" class="edge">
<title>sensor 4&#45;&gt;jump</title>
<path fill="none" stroke="#ff0000" stroke-width=".3705" d="M884.8246,-95.9293C882.0323,-95.2148 879.2122,-94.5462 876.5,-93.9828 760.5567,-69.8942 720.5891,-106.3548 612.5,-57.9828 609.6191,-56.6935 606.795,-55.0817 604.0826,-53.2825"/>
<polygon fill="#ff0000" stroke="#ff0000" stroke-width=".3705" points="605.9513,-50.3074 595.8657,-47.0624 601.7264,-55.8886 605.9513,-50.3074"/>
</g>
<!-- sensor 4&#45;&gt;shoot -->
<g id="edge19" class="edge">
<title>sensor 4&#45;&gt;shoot</title>
<path fill="none" stroke="#ff0000" stroke-width=".2026" d="M884.7974,-96.0529C882.0101,-95.3162 879.1985,-94.6086 876.5,-93.9828 790.222,-73.9716 760.4865,-96.0158 680.5,-57.9828 677.8729,-56.7336 675.2858,-55.2283 672.7835,-53.5687"/>
<polygon fill="#ff0000" stroke="#ff0000" stroke-width=".2026" points="674.7668,-50.6812 664.6672,-47.4799 670.5661,-56.2807 674.7668,-50.6812"/>
</g>
<!-- sensor 4&#45;&gt;release -->
<g id="edge20" class="edge">
<title>sensor 4&#45;&gt;release</title>
<path fill="none" stroke="#00ff00" stroke-width=".5781" d="M884.8879,-96.2352C843.6595,-84.4194 762.3435,-60.9494 756.5,-57.9828 753.9335,-56.6798 751.3648,-55.1976 748.8416,-53.6087"/>
<polygon fill="#00ff00" stroke="#00ff00" stroke-width=".5781" points="750.7362,-50.6641 740.5079,-47.901 746.7806,-56.4394 750.7362,-50.6641"/>
</g>
<!-- sensor 5 -->
<g id="node5" class="node">
<title>sensor 5</title>
<polygon fill="#d3d3d3" stroke="#000000" points="997,-111.9828 950,-111.9828 950,-93.9828 997,-93.9828 997,-111.9828"/>
<text text-anchor="middle" x="973.5" y="-100.7828" font-family="Times,serif" font-size="9.00" fill="#000000">sensor 5</text>
</g>
<!-- sensor 5&#45;&gt;left -->
<g id="edge21" class="edge">
<title>sensor 5&#45;&gt;left</title>
<path fill="none" stroke="#00ff00" stroke-width=".1271" d="M950.4475,-93.91C915.9425,-80.3298 850.9449,-54.7486 813.6728,-40.0794"/>
<polygon fill="#00ff00" stroke="#00ff00" stroke-width=".1271" points="814.5308,-36.6558 803.9438,-36.2503 811.9672,-43.1695 814.5308,-36.6558"/>
</g>
<!-- sensor 5&#45;&gt;right -->
<g id="edge22" class="edge">
<title>sensor 5&#45;&gt;right</title>
<path fill="none" stroke="#00ff00" stroke-width=".1514" d="M949.8484,-95.8079C947.0519,-95.1152 944.2242,-94.485 941.5,-93.9828 767.2674,-61.8635 706.753,-129.1349 544.5,-57.9828 541.4792,-56.6581 538.5515,-54.9323 535.7742,-52.9825"/>
<polygon fill="#00ff00" stroke="#00ff00" stroke-width=".1514" points="537.9219,-50.2179 527.9502,-46.6378 533.5128,-55.6549 537.9219,-50.2179"/>
</g>
<!-- sensor 5&#45;&gt;jump -->
<g id="edge23" class="edge">
<title>sensor 5&#45;&gt;jump</title>
<path fill="none" stroke="#ff0000" stroke-width=".3476" d="M949.8389,-95.8579C947.0441,-95.1563 944.2194,-94.5102 941.5,-93.9828 797.0961,-65.9746 747.5488,-116.2815 612.5,-57.9828 609.6022,-56.7318 606.7667,-55.1462 604.0468,-53.3638"/>
<polygon fill="#ff0000" stroke="#ff0000" stroke-width=".3476" points="605.9128,-50.3877 595.8185,-47.1696 601.7028,-55.9802 605.9128,-50.3877"/>
</g>
<!-- sensor 5&#45;&gt;shoot -->
<g id="edge24" class="edge">
<title>sensor 5&#45;&gt;shoot</title>
<path fill="none" stroke="#00ff00" stroke-width=".1727" d="M949.8237,-95.9334C947.0316,-95.2182 944.2118,-94.5483 941.5,-93.9828 826.8684,-70.0747 787.3465,-105.8974 680.5,-57.9828 677.6886,-56.722 674.9312,-55.1546 672.2786,-53.406"/>
<polygon fill="#00ff00" stroke="#00ff00" stroke-width=".1727" points="674.3233,-50.5645 664.2255,-47.3574 670.1194,-56.1616 674.3233,-50.5645"/>
</g>
<!-- sensor 5&#45;&gt;release -->
<g id="edge25" class="edge">
<title>sensor 5&#45;&gt;release</title>
<path fill="none" stroke="#00ff00" stroke-width=".487" d="M949.7908,-96.081C947.0046,-95.3393 944.1952,-94.6229 941.5,-93.9828 860.0024,-74.6271 832.9174,-92.2884 756.5,-57.9828 753.8741,-56.8039 751.2621,-55.4123 748.7086,-53.8871"/>
<polygon fill="#00ff00" stroke="#00ff00" stroke-width=".487" points="750.5802,-50.9286 740.316,-48.3027 746.7024,-56.7563 750.5802,-50.9286"/>
</g>
<!-- sensor 6 -->
<g id="node6" class="node">
<title>sensor 6</title>
<polygon fill="#d3d3d3" stroke="#000000" points="1062,-111.9828 1015,-111.9828 1015,-93.9828 1062,-93.9828 1062,-111.9828"/>
<text text-anchor="middle" x="1038.5" y="-100.7828" font-family="Times,serif" font-size="9.00" fill="#000000">sensor 6</text>
</g>
<!-- sensor 6&#45;&gt;left -->
<g id="edge26" class="edge">
<title>sensor 6&#45;&gt;left</title>
<path fill="none" stroke="#ff0000" stroke-width=".196" d="M1014.6984,-96.0218C968.0905,-82.3911 864.9453,-52.2256 814.4664,-37.4628"/>
<polygon fill="#ff0000" stroke="#ff0000" stroke-width=".196" points="815.3994,-34.0891 804.819,-34.6413 813.4345,-40.8077 815.3994,-34.0891"/>
</g>
<!-- sensor 6&#45;&gt;right -->
<g id="edge27" class="edge">
<title>sensor 6&#45;&gt;right</title>
<path fill="none" stroke="#ff0000" stroke-width=".4923" d="M1014.8546,-95.7737C1012.0569,-95.0872 1009.2274,-94.4677 1006.5,-93.9828 905.1123,-75.9555 639.0684,-98.7412 544.5,-57.9828 541.4709,-56.6772 538.5377,-54.964 535.757,-53.0219"/>
<polygon fill="#ff0000" stroke="#ff0000" stroke-width=".4923" points="537.9041,-50.2569 527.9287,-46.6873 533.5008,-55.6985 537.9041,-50.2569"/>
</g>
<!-- sensor 6&#45;&gt;jump -->
<g id="edge28" class="edge">
<title>sensor 6&#45;&gt;jump</title>
<path fill="none" stroke="#00ff00" stroke-width=".1036" d="M1014.848,-95.8098C1012.0516,-95.1168 1009.2241,-94.4859 1006.5,-93.9828 833.5842,-62.0451 774.5566,-126.229 612.5,-57.9828 609.5912,-56.7578 606.7481,-55.1898 604.0234,-53.4189"/>
<polygon fill="#00ff00" stroke="#00ff00" stroke-width=".1036" points="605.8877,-50.4421 595.7876,-47.2421 601.6876,-56.0421 605.8877,-50.4421"/>
</g>
<!-- sensor 6&#45;&gt;shoot -->
<g id="edge29" class="edge">
<title>sensor 6&#45;&gt;shoot</title>
<path fill="none" stroke="#00ff00" stroke-width=".1395" d="M1014.8384,-95.8606C1012.0437,-95.1585 1009.2192,-94.5116 1006.5,-93.9828 863.411,-66.1558 814.3033,-115.8228 680.5,-57.9828 677.6718,-56.7602 674.9028,-55.2191 672.2426,-53.4878"/>
<polygon fill="#00ff00" stroke="#00ff00" stroke-width=".1395" points="674.2845,-50.6444 664.1774,-47.4667 670.0968,-56.2537 674.2845,-50.6444"/>
</g>
<!-- sensor 6&#45;&gt;release -->
<g id="edge30" class="edge">
<title>sensor 6&#45;&gt;release</title>
<path fill="none" stroke="#ff0000" stroke-width=".2356" d="M1014.8204,-95.9494C1012.0289,-95.2313 1009.2101,-94.5564 1006.5,-93.9828 896.6762,-70.7362 860.0103,-101.4258 756.5,-57.9828 753.8459,-56.8688 751.2134,-55.5245 748.6453,-54.0327"/>
<polygon fill="#ff0000" stroke="#ff0000" stroke-width=".2356" points="750.5069,-51.068 740.2248,-48.5127 746.6691,-56.9222 750.5069,-51.068"/>
</g>
<!-- sensor 7 -->
<g id="node7" class="node">
<title>sensor 7</title>
<polygon fill="#d3d3d3" stroke="#000000" points="1127,-111.9828 1080,-111.9828 1080,-93.9828 1127,-93.9828 1127,-111.9828"/>
<text text-anchor="middle" x="1103.5" y="-100.7828" font-family="Times,serif" font-size="9.00" fill="#000000">sensor 7</text>
</g>
<!-- sensor 7&#45;&gt;left -->
<g id="edge31" class="edge">
<title>sensor 7&#45;&gt;left</title>
<path fill="none" stroke="#ff0000" stroke-width=".4584" d="M1079.7703,-96.1643C1076.9878,-95.4076 1074.1848,-94.6649 1071.5,-93.9828 978.2368,-70.2872 866.8136,-46.1592 814.8655,-35.15"/>
<polygon fill="#ff0000" stroke="#ff0000" stroke-width=".4584" points="815.5086,-31.7087 805.001,-33.0658 814.0615,-38.5575 815.5086,-31.7087"/>
</g>
<!-- sensor 7&#45;&gt;right -->
<g id="edge32" class="edge">
<title>sensor 7&#45;&gt;right</title>
<path fill="none" stroke="#ff0000" stroke-width=".4332" d="M1079.8591,-95.7479C1077.0607,-95.066 1074.2296,-94.4547 1071.5,-93.9828 955.8317,-73.9862 652.519,-103.9274 544.5,-57.9828 541.4647,-56.6917 538.5275,-54.988 535.7443,-53.0517"/>
<polygon fill="#ff0000" stroke="#ff0000" stroke-width=".4332" points="537.8909,-50.2865 527.9127,-46.7247 533.4919,-55.7316 537.8909,-50.2865"/>
</g>
<!-- sensor 7&#45;&gt;jump -->
<g id="edge33" class="edge">
<title>sensor 7&#45;&gt;jump</title>
<path fill="none" stroke="#ff0000" stroke-width=".1997" d="M1079.8543,-95.7751C1077.0567,-95.0883 1074.2272,-94.4684 1071.5,-93.9828 970.7712,-76.0464 707.0461,-97.0855 612.5,-57.9828 609.5833,-56.7765 606.735,-55.2213 604.0068,-53.4586"/>
<polygon fill="#ff0000" stroke="#ff0000" stroke-width=".1997" points="605.8699,-50.4814 595.7658,-47.2944 601.6771,-56.0868 605.8699,-50.4814"/>
</g>
<!-- sensor 7&#45;&gt;shoot -->
<g id="edge34" class="edge">
<title>sensor 7&#45;&gt;shoot</title>
<path fill="none" stroke="#ff0000" stroke-width=".3241" d="M1079.8477,-95.8116C1077.0513,-95.1183 1074.2239,-94.4868 1071.5,-93.9828 899.9009,-62.2266 841.3094,-125.7696 680.5,-57.9828 677.6608,-56.7859 674.8842,-55.2626 672.2191,-53.5429"/>
<polygon fill="#ff0000" stroke="#ff0000" stroke-width=".3241" points="674.2592,-50.6984 664.1459,-47.5404 670.0825,-56.3158 674.2592,-50.6984"/>
</g>
<!-- sensor 7&#45;&gt;release -->
<g id="edge35" class="edge">
<title>sensor 7&#45;&gt;release</title>
<path fill="none" stroke="#00ff00" stroke-width=".3599" d="M1079.8364,-95.8709C1077.042,-95.1669 1074.2182,-94.5167 1071.5,-93.9828 933.2315,-66.8199 887.2147,-110.6105 756.5,-57.9828 753.8299,-56.9077 751.1857,-55.5918 748.6095,-54.1199"/>
<polygon fill="#00ff00" stroke="#00ff00" stroke-width=".3599" points="750.4655,-51.1519 740.173,-48.6385 746.6516,-57.0217 750.4655,-51.1519"/>
</g>
<!-- sensor 8 -->
<g id="node8" class="node">
<title>sensor 8</title>
<polygon fill="#d3d3d3" stroke="#000000" points="1192,-111.9828 1145,-111.9828 1145,-93.9828 1192,-93.9828 1192,-111.9828"/>
<text text-anchor="middle" x="1168.5" y="-100.7828" font-family="Times,serif" font-size="9.00" fill="#000000">sensor 8</text>
</g>
<!-- sensor 8&#45;&gt;left -->
<g id="edge36" class="edge">
<title>sensor 8&#45;&gt;left</title>
<path fill="none" stroke="#00ff00" stroke-width=".4278" d="M1144.7965,-96.0567C1142.0093,-95.3194 1139.198,-94.6106 1136.5,-93.9828 1018.6305,-66.555 876.3501,-43.1551 815.4829,-33.5973"/>
<polygon fill="#00ff00" stroke="#00ff00" stroke-width=".4278" points="815.8427,-30.1111 805.4226,-32.0275 814.7634,-37.0274 815.8427,-30.1111"/>
</g>
<!-- sensor 8&#45;&gt;right -->
<g id="edge37" class="edge">
<title>sensor 8&#45;&gt;right</title>
<path fill="none" stroke="#00ff00" stroke-width=".3519" d="M1144.8625,-95.7277C1142.0635,-95.0494 1139.2314,-94.4445 1136.5,-93.9828 1006.5449,-72.0159 665.9753,-109.116 544.5,-57.9828 541.4599,-56.7031 538.5195,-55.0068 535.7344,-53.0751"/>
<polygon fill="#00ff00" stroke="#00ff00" stroke-width=".3519" points="537.8807,-50.3096 527.9003,-46.754 533.4851,-55.7574 537.8807,-50.3096"/>
</g>
<!-- sensor 8&#45;&gt;jump -->
<g id="edge38" class="edge">
<title>sensor 8&#45;&gt;jump</title>
<path fill="none" stroke="#ff0000" stroke-width=".3143" d="M1144.8589,-95.7489C1142.0605,-95.0669 1139.2295,-94.4552 1136.5,-93.9828 1021.491,-74.0771 720.5728,-102.0688 612.5,-57.9828 609.5775,-56.7906 606.7252,-55.2451 603.9945,-53.4886"/>
<polygon fill="#ff0000" stroke="#ff0000" stroke-width=".3143" points="605.8568,-50.5111 595.7496,-47.3339 601.6694,-56.1206 605.8568,-50.5111"/>
</g>
<!-- sensor 8&#45;&gt;shoot -->
<g id="edge39" class="edge">
<title>sensor 8&#45;&gt;shoot</title>
<path fill="none" stroke="#ff0000" stroke-width=".2074" d="M1144.8541,-95.7765C1142.0565,-95.0894 1139.2271,-94.4691 1136.5,-93.9828 1036.4301,-76.1372 774.422,-96.8556 680.5,-57.9828 677.6531,-56.8045 674.8711,-55.2939 672.2025,-53.5826"/>
<polygon fill="#ff0000" stroke="#ff0000" stroke-width=".2074" points="674.2414,-50.7372 664.1238,-47.5933 670.0726,-56.3605 674.2414,-50.7372"/>
</g>
<!-- sensor 8&#45;&gt;release -->
<g id="edge40" class="edge">
<title>sensor 8&#45;&gt;release</title>
<path fill="none" stroke="#ff0000" stroke-width=".2745" d="M1144.8464,-95.8188C1142.0502,-95.1241 1139.2232,-94.4904 1136.5,-93.9828 969.7282,-62.892 914.4744,-119.8175 756.5,-57.9828 753.8196,-56.9336 751.168,-55.6365 748.5865,-54.1779"/>
<polygon fill="#ff0000" stroke="#ff0000" stroke-width=".2745" points="750.439,-51.2078 740.1398,-48.7222 746.641,-57.0879 750.439,-51.2078"/>
</g>
<!-- sensor 9 -->
<g id="node9" class="node">
<title>sensor 9</title>
<polygon fill="#d3d3d3" stroke="#000000" points="1257,-111.9828 1210,-111.9828 1210,-93.9828 1257,-93.9828 1257,-111.9828"/>
<text text-anchor="middle" x="1233.5" y="-100.7828" font-family="Times,serif" font-size="9.00" fill="#000000">sensor 9</text>
</g>
<!-- sensor 9&#45;&gt;left -->
<g id="edge41" class="edge">
<title>sensor 9&#45;&gt;left</title>
<path fill="none" stroke="#00ff00" stroke-width=".38" d="M1209.8135,-95.9815C1207.0232,-95.2577 1204.2066,-94.5726 1201.5,-93.9828 1058.4524,-62.8088 884.6046,-40.6328 815.7089,-32.4568"/>
<polygon fill="#00ff00" stroke="#00ff00" stroke-width=".38" points="815.9138,-28.9569 805.5735,-31.2656 815.0966,-35.909 815.9138,-28.9569"/>
</g>
<!-- sensor 9&#45;&gt;right -->
<g id="edge42" class="edge">
<title>sensor 9&#45;&gt;right</title>
<path fill="none" stroke="#ff0000" stroke-width=".2977" d="M1209.8653,-95.7115C1207.0657,-95.0361 1204.2328,-94.4363 1201.5,-93.9828 1057.2538,-70.0448 679.4357,-114.3063 544.5,-57.9828 541.4561,-56.7122 538.5132,-55.0219 535.7265,-53.0938"/>
<polygon fill="#ff0000" stroke="#ff0000" stroke-width=".2977" points="537.8726,-50.3282 527.8904,-46.7776 533.4797,-55.7782 537.8726,-50.3282"/>
</g>
<!-- sensor 9&#45;&gt;jump -->
<g id="edge43" class="edge">
<title>sensor 9&#45;&gt;jump</title>
<path fill="none" stroke="#00ff00" stroke-width=".4116" d="M1209.8624,-95.7285C1207.0634,-95.0501 1204.2313,-94.4449 1201.5,-93.9828 1072.2044,-72.1068 734.1054,-107.0545 612.5,-57.9828 609.5731,-56.8016 606.7177,-55.2636 603.985,-53.512"/>
<polygon fill="#00ff00" stroke="#00ff00" stroke-width=".4116" points="605.8467,-50.5344 595.737,-47.3648 601.6635,-56.147 605.8467,-50.5344"/>
</g>
<!-- sensor 9&#45;&gt;shoot -->
<g id="edge44" class="edge">
<title>sensor 9&#45;&gt;shoot</title>
<path fill="none" stroke="#ff0000" stroke-width=".1032" d="M1209.8587,-95.75C1207.0604,-95.0677 1204.2295,-94.4557 1201.5,-93.9828 1087.1502,-74.168 787.9483,-101.8388 680.5,-57.9828 677.6474,-56.8184 674.8614,-55.3175 672.1902,-53.6125"/>
<polygon fill="#ff0000" stroke="#ff0000" stroke-width=".1032" points="674.2283,-50.7666 664.1074,-47.6333 670.0653,-56.3942 674.2283,-50.7666"/>
</g>
<!-- sensor 9&#45;&gt;release -->
<g id="edge45" class="edge">
<title>sensor 9&#45;&gt;release</title>
<path fill="none" stroke="#00ff00" stroke-width=".1547" d="M1209.8531,-95.7817C1207.0558,-95.0937 1204.2266,-94.4717 1201.5,-93.9828 1006.1918,-58.9579 941.7656,-129.0369 756.5,-57.9828 753.8125,-56.952 751.1556,-55.6684 748.5705,-54.2192"/>
<polygon fill="#00ff00" stroke="#00ff00" stroke-width=".1547" points="750.4206,-51.2478 740.1167,-48.7818 746.6338,-57.1351 750.4206,-51.2478"/>
</g>
<!-- sensor 10 -->
<g id="node10" class="node">
<title>sensor 10</title>
<polygon fill="#d3d3d3" stroke="#000000" points="51,-111.9828 0,-111.9828 0,-93.9828 51,-93.9828 51,-111.9828"/>
<text text-anchor="middle" x="25.5" y="-100.7828" font-family="Times,serif" font-size="9.00" fill="#000000">sensor 10</text>
</g>
<!-- sensor 10&#45;&gt;left -->
<g id="edge46" class="edge">
<title>sensor 10&#45;&gt;left</title>
<path fill="none" stroke="#00ff00" stroke-width=".1783" d="M51.371,-95.5433C54.0993,-94.9364 56.8456,-94.398 59.5,-93.9828 212.7315,-70.0104 614.7848,-121.0016 756.5,-57.9828 759.9558,-56.446 763.2261,-54.2986 766.2392,-51.8601"/>
<polygon fill="#00ff00" stroke="#00ff00" stroke-width=".1783" points="768.6953,-54.3547 773.5647,-44.9451 763.8902,-49.2644 768.6953,-54.3547"/>
</g>
<!-- sensor 10&#45;&gt;right -->
<g id="edge47" class="edge">
<title>sensor 10&#45;&gt;right</title>
<path fill="none" stroke="#00ff00" stroke-width=".3769" d="M51.0447,-95.8801C53.8865,-95.1917 56.7475,-94.5425 59.5,-93.9828 214.9653,-62.3658 403.5095,-40.5306 478.9447,-32.4533"/>
<polygon fill="#00ff00" stroke="#00ff00" stroke-width=".3769" points="479.6613,-35.897 489.2364,-31.3619 478.923,-28.9361 479.6613,-35.897"/>
</g>
<!-- sensor 10&#45;&gt;jump -->
<g id="edge48" class="edge">
<title>sensor 10&#45;&gt;jump</title>
<path fill="none" stroke="#ff0000" stroke-width=".262" d="M51.0093,-95.6894C53.8577,-95.0368 56.73,-94.4481 59.5,-93.9828 166.0809,-76.0788 444.5441,-99.0785 544.5,-57.9828 547.4192,-56.7826 550.2693,-55.2316 552.9985,-53.4715"/>
<polygon fill="#ff0000" stroke="#ff0000" stroke-width=".262" points="555.3262,-56.1014 561.2412,-47.3115 551.1358,-50.4943 555.3262,-56.1014"/>
</g>
<!-- sensor 10&#45;&gt;shoot -->
<g id="edge49" class="edge">
<title>sensor 10&#45;&gt;shoot</title>
<path fill="none" stroke="#ff0000" stroke-width=".2346" d="M51.0051,-95.664C53.8543,-95.0161 56.7279,-94.4355 59.5,-93.9828 181.0388,-74.1332 498.3902,-104.293 612.5,-57.9828 615.355,-56.8241 618.1425,-55.3271 620.8147,-53.6246"/>
<polygon fill="#ff0000" stroke="#ff0000" stroke-width=".2346" points="622.9376,-56.4079 628.8992,-47.6495 618.777,-50.7785 622.9376,-56.4079"/>
</g>
<!-- sensor 10&#45;&gt;release -->
<g id="edge50" class="edge">
<title>sensor 10&#45;&gt;release</title>
<path fill="none" stroke="#00ff00" stroke-width=".1816" d="M51.0019,-95.6442C53.8517,-95 56.7263,-94.4256 59.5,-93.9828 196.0025,-72.1867 550.8787,-106.0069 680.5,-57.9828 683.1991,-56.9828 685.8644,-55.7215 688.4555,-54.2881"/>
<polygon fill="#00ff00" stroke="#00ff00" stroke-width=".1816" points="690.3772,-57.2138 696.9207,-48.8812 686.6091,-51.3144 690.3772,-57.2138"/>
</g>
<!-- sensor 11 -->
<g id="node11" class="node">
<title>sensor 11</title>
<polygon fill="#d3d3d3" stroke="#000000" points="120,-111.9828 69,-111.9828 69,-93.9828 120,-93.9828 120,-111.9828"/>
<text text-anchor="middle" x="94.5" y="-100.7828" font-family="Times,serif" font-size="9.00" fill="#000000">sensor 11</text>
</g>
<!-- sensor 11&#45;&gt;left -->
<g id="edge51" class="edge">
<title>sensor 11&#45;&gt;left</title>
<path fill="none" stroke="#ff0000" stroke-width=".1201" d="M120.0016,-95.6424C122.8515,-94.9985 125.7262,-94.4247 128.5,-93.9828 266.5431,-71.9863 628.9358,-115.1417 756.5,-57.9828 759.9514,-56.4363 763.2192,-54.2831 766.231,-51.8417"/>
<polygon fill="#ff0000" stroke="#ff0000" stroke-width=".1201" points="768.6882,-54.3353 773.5555,-44.9246 763.882,-49.246 768.6882,-54.3353"/>
</g>
<!-- sensor 11&#45;&gt;right -->
<g id="edge52" class="edge">
<title>sensor 11&#45;&gt;right</title>
<path fill="none" stroke="#00ff00" stroke-width=".2391" d="M120.0594,-95.9499C122.8984,-95.2485 125.7548,-94.5771 128.5,-93.9828 257.0921,-66.1418 412.0607,-43.075 479.0097,-33.6105"/>
<polygon fill="#00ff00" stroke="#00ff00" stroke-width=".2391" points="479.5656,-37.0668 488.9814,-32.2096 478.5917,-30.1349 479.5656,-37.0668"/>
</g>
<!-- sensor 11&#45;&gt;jump -->
<g id="edge53" class="edge">
<title>sensor 11&#45;&gt;jump</title>
<path fill="none" stroke="#00ff00" stroke-width=".3006" d="M120.0152,-95.7236C122.8625,-95.0645 125.7329,-94.465 128.5,-93.9828 311.3242,-62.1201 373.2953,-129.5988 544.5,-57.9828 547.4118,-56.7647 550.2568,-55.2016 552.9828,-53.4337"/>
<polygon fill="#00ff00" stroke="#00ff00" stroke-width=".3006" points="555.3163,-56.0588 561.2206,-47.2616 551.119,-50.4568 555.3163,-56.0588"/>
</g>
<!-- sensor 11&#45;&gt;shoot -->
<g id="edge54" class="edge">
<title>sensor 11&#45;&gt;shoot</title>
<path fill="none" stroke="#00ff00" stroke-width=".1749" d="M120.0094,-95.6899C122.8578,-95.0371 125.7301,-94.4483 128.5,-93.9828 234.861,-76.1074 512.7522,-99.0018 612.5,-57.9828 615.3496,-56.8109 618.1334,-55.3048 620.8032,-53.5964"/>
<polygon fill="#00ff00" stroke="#00ff00" stroke-width=".1749" points="622.9308,-56.3761 628.8838,-47.6118 618.7647,-50.7508 622.9308,-56.3761"/>
</g>
<!-- sensor 11&#45;&gt;release -->
<g id="edge55" class="edge">
<title>sensor 11&#45;&gt;release</title>
<path fill="none" stroke="#ff0000" stroke-width=".3069" d="M120.0052,-95.6644C122.8543,-95.0164 125.728,-94.4356 128.5,-93.9828 249.8188,-74.1618 565.3847,-101.1057 680.5,-57.9828 683.1954,-56.973 685.8581,-55.7047 688.4474,-54.2663"/>
<polygon fill="#ff0000" stroke="#ff0000" stroke-width=".3069" points="690.3738,-57.1888 696.909,-48.8497 686.5998,-51.2933 690.3738,-57.1888"/>
</g>
<!-- sensor 12 -->
<g id="node12" class="node">
<title>sensor 12</title>
<polygon fill="#d3d3d3" stroke="#000000" points="189,-111.9828 138,-111.9828 138,-93.9828 189,-93.9828 189,-111.9828"/>
<text text-anchor="middle" x="163.5" y="-100.7828" font-family="Times,serif" font-size="9.00" fill="#000000">sensor 12</text>
</g>
<!-- sensor 12&#45;&gt;left -->
<g id="edge56" class="edge">
<title>sensor 12&#45;&gt;left</title>
<path fill="none" stroke="#ff0000" stroke-width=".1403" d="M189.0048,-95.6621C191.854,-95.0145 194.7278,-94.4345 197.5,-93.9828 320.3589,-73.9615 643.083,-109.2834 756.5,-57.9828 759.9459,-56.4241 763.2105,-54.2639 766.2206,-51.8188"/>
<polygon fill="#ff0000" stroke="#ff0000" stroke-width=".1403" points="768.6792,-54.3111 773.5441,-44.8992 763.8717,-49.223 768.6792,-54.3111"/>
</g>
<!-- sensor 12&#45;&gt;right -->
<g id="edge57" class="edge">
<title>sensor 12&#45;&gt;right</title>
<path fill="none" stroke="#ff0000" stroke-width=".1338" d="M189.0817,-96.049C191.9166,-95.3289 194.7659,-94.6262 197.5,-93.9828 299.8396,-69.8998 422.0333,-46.0864 479.5191,-35.173"/>
<polygon fill="#ff0000" stroke="#ff0000" stroke-width=".1338" points="480.3056,-38.5864 489.4805,-33.2882 479.0042,-31.7084 480.3056,-38.5864"/>
</g>
<!-- sensor 12&#45;&gt;jump -->
<g id="edge58" class="edge">
<title>sensor 12&#45;&gt;jump</title>
<path fill="none" stroke="#00ff00" stroke-width=".3204" d="M189.0237,-95.7712C191.8694,-95.1032 194.7371,-94.4886 197.5,-93.9828 350.015,-66.0604 401.9758,-119.0347 544.5,-57.9828 547.4013,-56.74 550.2392,-55.1599 552.9606,-53.3811"/>
<polygon fill="#00ff00" stroke="#00ff00" stroke-width=".3204" points="555.302,-55.9996 561.1912,-47.1923 551.0951,-50.4047 555.302,-55.9996"/>
</g>
<!-- sensor 12&#45;&gt;shoot -->
<g id="edge59" class="edge">
<title>sensor 12&#45;&gt;shoot</title>
<path fill="none" stroke="#ff0000" stroke-width=".1612" d="M189.0153,-95.7242C191.8626,-95.065 194.733,-94.4653 197.5,-93.9828 379.8847,-62.1773 441.7112,-129.4456 612.5,-57.9828 615.3423,-56.7934 618.1211,-55.2753 620.7877,-53.559"/>
<polygon fill="#ff0000" stroke="#ff0000" stroke-width=".1612" points="622.9216,-56.3339 628.8631,-47.5618 618.7481,-50.7141 622.9216,-56.3339"/>
</g>
<!-- sensor 12&#45;&gt;release -->
<g id="edge60" class="edge">
<title>sensor 12&#45;&gt;release</title>
<path fill="none" stroke="#ff0000" stroke-width=".5108" d="M189.0094,-95.6903C191.8578,-95.0374 194.7301,-94.4485 197.5,-93.9828 409.7822,-58.2892 479.2699,-134.4304 680.5,-57.9828 683.1907,-56.9605 685.85,-55.6831 688.4368,-54.2383"/>
<polygon fill="#ff0000" stroke="#ff0000" stroke-width=".5108" points="690.3693,-57.1569 696.8938,-48.8093 686.5877,-51.2662 690.3693,-57.1569"/>
</g>
<!-- sensor 13 -->
<g id="node13" class="node">
<title>sensor 13</title>
<polygon fill="#d3d3d3" stroke="#000000" points="258,-111.9828 207,-111.9828 207,-93.9828 258,-93.9828 258,-111.9828"/>
<text text-anchor="middle" x="232.5" y="-100.7828" font-family="Times,serif" font-size="9.00" fill="#000000">sensor 13</text>
</g>
<!-- sensor 13&#45;&gt;left -->
<g id="edge61" class="edge">
<title>sensor 13&#45;&gt;left</title>
<path fill="none" stroke="#00ff00" stroke-width=".4765" d="M258.009,-95.6873C260.8574,-95.035 263.7298,-94.447 266.5,-93.9828 374.1805,-75.9358 657.2248,-103.4276 756.5,-57.9828 759.9388,-56.4086 763.1993,-54.2392 766.2073,-51.7896"/>
<polygon fill="#00ff00" stroke="#00ff00" stroke-width=".4765" points="768.6676,-54.2802 773.5292,-44.8666 763.8583,-49.1938 768.6676,-54.2802"/>
</g>
<!-- sensor 13&#45;&gt;right -->
<g id="edge62" class="edge">
<title>sensor 13&#45;&gt;right</title>
<path fill="none" stroke="#00ff00" stroke-width=".7479" d="M258.1194,-96.1997C260.9472,-95.4515 263.7845,-94.7009 266.5,-93.9828 342.9281,-73.7714 432.7211,-50.0566 479.8412,-37.6143"/>
<polygon fill="#00ff00" stroke="#00ff00" stroke-width=".7479" points="481.0007,-40.9281 489.7758,-34.9911 479.2136,-34.1601 481.0007,-40.9281"/>
</g>
<!-- sensor 13&#45;&gt;jump -->
<g id="edge63" class="edge">
<title>sensor 13&#45;&gt;jump</title>
<path fill="none" stroke="#ff0000" stroke-width=".101" d="M258.0371,-95.842C260.8803,-95.1607 263.7438,-94.5236 266.5,-93.9828 388.7555,-69.9916 430.6099,-108.4904 544.5,-57.9828 547.3853,-56.7032 550.2122,-55.0981 552.9266,-53.3031"/>
<polygon fill="#ff0000" stroke="#ff0000" stroke-width=".101" points="555.2797,-55.9118 561.1465,-47.0896 551.0586,-50.3277 555.2797,-55.9118"/>
</g>
<!-- sensor 13&#45;&gt;shoot -->
<g id="edge64" class="edge">
<title>sensor 13&#45;&gt;shoot</title>
<path fill="none" stroke="#ff0000" stroke-width=".1578" d="M258.0238,-95.772C260.8695,-95.1039 263.7372,-94.489 266.5,-93.9828 418.5761,-66.1175 470.3911,-118.8817 612.5,-57.9828 615.332,-56.7691 618.1037,-55.2342 620.7656,-53.5069"/>
<polygon fill="#ff0000" stroke="#ff0000" stroke-width=".1578" points="622.9082,-56.2752 628.8336,-47.4922 618.7244,-50.6631 622.9082,-56.2752"/>
</g>
<!-- sensor 13&#45;&gt;release -->
<g id="edge65" class="edge">
<title>sensor 13&#45;&gt;release</title>
<path fill="none" stroke="#00ff00" stroke-width=".3413" d="M258.0154,-95.7248C260.8626,-95.0655 263.733,-94.4656 266.5,-93.9828 448.4452,-62.2344 508.2532,-124.6388 680.5,-57.9828 683.1844,-56.944 685.839,-55.6544 688.4226,-54.2011"/>
<polygon fill="#00ff00" stroke="#00ff00" stroke-width=".3413" points="690.3631,-57.1144 696.8732,-48.7556 686.5714,-51.2303 690.3631,-57.1144"/>
</g>
<!-- sensor 14 -->
<g id="node14" class="node">
<title>sensor 14</title>
<polygon fill="#d3d3d3" stroke="#000000" points="327,-111.9828 276,-111.9828 276,-93.9828 327,-93.9828 327,-111.9828"/>
<text text-anchor="middle" x="301.5" y="-100.7828" font-family="Times,serif" font-size="9.00" fill="#000000">sensor 14</text>
</g>
<!-- sensor 14&#45;&gt;left -->
<g id="edge66" class="edge">
<title>sensor 14&#45;&gt;left</title>
<path fill="none" stroke="#00ff00" stroke-width=".1528" d="M327.0147,-95.7208C329.8621,-95.0622 332.7327,-94.4636 335.5,-93.9828 428.0109,-77.9086 671.3586,-97.5754 756.5,-57.9828 759.9294,-56.388 763.1843,-54.2067 766.1895,-51.7508"/>
<polygon fill="#00ff00" stroke="#00ff00" stroke-width=".1528" points="768.652,-54.2393 773.5093,-44.8235 763.8404,-49.1551 768.652,-54.2393"/>
</g>
<!-- sensor 14&#45;&gt;right -->
<g id="edge67" class="edge">
<title>sensor 14&#45;&gt;right</title>
<path fill="none" stroke="#ff0000" stroke-width=".4903" d="M327.3727,-93.91C366.0046,-80.3629 438.6925,-54.8735 480.5735,-40.187"/>
<polygon fill="#ff0000" stroke="#ff0000" stroke-width=".4903" points="481.99,-43.3993 490.2684,-36.7873 479.6736,-36.7937 481.99,-43.3993"/>
</g>
<!-- sensor 14&#45;&gt;jump -->
<g id="edge68" class="edge">
<title>sensor 14&#45;&gt;jump</title>
<path fill="none" stroke="#ff0000" stroke-width=".2433" d="M327.0611,-95.958C329.8998,-95.255 332.7557,-94.5811 335.5,-93.9828 427.5932,-73.9034 459.1534,-97.9866 544.5,-57.9828 547.3579,-56.6432 550.1662,-54.9971 552.8685,-53.1758"/>
<polygon fill="#ff0000" stroke="#ff0000" stroke-width=".2433" points="555.2404,-55.7686 561.0699,-46.9218 550.9958,-50.2023 555.2404,-55.7686"/>
</g>
<!-- sensor 14&#45;&gt;shoot -->
<g id="edge69" class="edge">
<title>sensor 14&#45;&gt;shoot</title>
<path fill="none" stroke="#ff0000" stroke-width=".2723" d="M327.0373,-95.8433C329.8805,-95.1618 332.7439,-94.5243 335.5,-93.9828 457.3175,-70.0485 499.0244,-108.3378 612.5,-57.9828 615.3163,-56.733 618.0771,-55.1732 620.7319,-53.4296"/>
<polygon fill="#ff0000" stroke="#ff0000" stroke-width=".2723" points="622.8873,-56.1881 628.7886,-47.3889 618.6881,-50.5875 622.8873,-56.1881"/>
</g>
<!-- sensor 14&#45;&gt;release -->
<g id="edge70" class="edge">
<title>sensor 14&#45;&gt;release</title>
<path fill="none" stroke="#00ff00" stroke-width=".3767" d="M327.024,-95.7729C329.8696,-95.1046 332.7373,-94.4894 335.5,-93.9828 487.1371,-66.1746 537.2089,-114.8579 680.5,-57.9828 683.1753,-56.9209 685.8233,-55.6145 688.4023,-54.1493"/>
<polygon fill="#00ff00" stroke="#00ff00" stroke-width=".3767" points="690.3539,-57.0553 696.8439,-48.6809 686.5481,-51.1803 690.3539,-57.0553"/>
</g>
<!-- sensor 15 -->
<g id="node15" class="node">
<title>sensor 15</title>
<polygon fill="#d3d3d3" stroke="#000000" points="396,-111.9828 345,-111.9828 345,-93.9828 396,-93.9828 396,-111.9828"/>
<text text-anchor="middle" x="370.5" y="-100.7828" font-family="Times,serif" font-size="9.00" fill="#000000">sensor 15</text>
</g>
<!-- sensor 15&#45;&gt;left -->
<g id="edge71" class="edge">
<title>sensor 15&#45;&gt;left</title>
<path fill="none" stroke="#00ff00" stroke-width=".168" d="M396.0229,-95.7672C398.8688,-95.0999 401.7368,-94.4866 404.5,-93.9828 559.21,-65.7752 614.4593,-125.4757 756.5,-57.9828 759.916,-56.3596 763.1631,-54.1616 766.1643,-51.6973"/>
<polygon fill="#00ff00" stroke="#00ff00" stroke-width=".168" points="768.6299,-54.1827 773.4813,-44.7639 763.8151,-49.1015 768.6299,-54.1827"/>
</g>
<!-- sensor 15&#45;&gt;right -->
<g id="edge72" class="edge">
<title>sensor 15&#45;&gt;right</title>
<path fill="none" stroke="#ff0000" stroke-width=".3571" d="M387.912,-93.91C411.4661,-81.6367 453.8322,-59.5612 482.55,-44.5973"/>
<polygon fill="#ff0000" stroke="#ff0000" stroke-width=".3571" points="484.468,-47.5446 491.7189,-39.8197 481.2333,-41.3368 484.468,-47.5446"/>
</g>
<!-- sensor 15&#45;&gt;jump -->
<g id="edge73" class="edge">
<title>sensor 15&#45;&gt;jump</title>
<path fill="none" stroke="#00ff00" stroke-width=".1692" d="M396.1146,-96.1816C398.9433,-95.4368 401.7822,-94.6919 404.5,-93.9828 466.6652,-77.7626 487.4803,-87.5861 544.5,-57.9828 547.3916,-56.4815 550.2495,-54.6925 553.0071,-52.7506"/>
<polygon fill="#00ff00" stroke="#00ff00" stroke-width=".1692" points="555.168,-55.5039 560.9115,-46.6009 550.8696,-49.979 555.168,-55.5039"/>
</g>
<!-- sensor 15&#45;&gt;shoot -->
<g id="edge74" class="edge">
<title>sensor 15&#45;&gt;shoot</title>
<path fill="none" stroke="#ff0000" stroke-width=".3739" d="M396.0616,-95.9602C398.9002,-95.2568 401.7559,-94.5822 404.5,-93.9828 496.1573,-73.9599 527.566,-97.8349 612.5,-57.9828 615.2893,-56.674 618.0316,-55.0734 620.6742,-53.3032"/>
<polygon fill="#ff0000" stroke="#ff0000" stroke-width=".3739" points="622.8501,-56.0458 628.7115,-47.22 618.6255,-50.4642 622.8501,-56.0458"/>
</g>
<!-- sensor 15&#45;&gt;release -->
<g id="edge75" class="edge">
<title>sensor 15&#45;&gt;release</title>
<path fill="none" stroke="#ff0000" stroke-width=".3124" d="M396.0376,-95.8445C398.8807,-95.1628 401.744,-94.5249 404.5,-93.9828 525.8795,-70.1054 566.1171,-105.0959 680.5,-57.9828 683.1614,-56.8865 685.7993,-55.5551 688.3711,-54.0723"/>
<polygon fill="#ff0000" stroke="#ff0000" stroke-width=".3124" points="690.3391,-56.9675 696.799,-48.5699 686.5122,-51.1061 690.3391,-56.9675"/>
</g>
<!-- sensor 16 -->
<g id="node16" class="node">
<title>sensor 16</title>
<polygon fill="#d3d3d3" stroke="#000000" points="465,-111.9828 414,-111.9828 414,-93.9828 465,-93.9828 465,-111.9828"/>
<text text-anchor="middle" x="439.5" y="-100.7828" font-family="Times,serif" font-size="9.00" fill="#000000">sensor 16</text>
</g>
<!-- sensor 16&#45;&gt;left -->
<g id="edge76" class="edge">
<title>sensor 16&#45;&gt;left</title>
<path fill="none" stroke="#ff0000" stroke-width=".1064" d="M465.0359,-95.8357C467.8793,-95.1556 470.7432,-94.5205 473.5,-93.9828 597.9458,-69.7072 642.6579,-113.804 756.5,-57.9828 759.73,-56.399 762.8147,-54.3109 765.6858,-51.9792"/>
<polygon fill="#ff0000" stroke="#ff0000" stroke-width=".1064" points="768.2511,-54.3719 773.1542,-44.9798 763.4643,-49.2643 768.2511,-54.3719"/>
</g>
<!-- sensor 16&#45;&gt;right -->
<g id="edge77" class="edge">
<title>sensor 16&#45;&gt;right</title>
<path fill="none" stroke="#ff0000" stroke-width=".1248" d="M448.4512,-93.91C458.4096,-83.8164 474.9088,-67.0931 488.6669,-53.1481"/>
<polygon fill="#ff0000" stroke="#ff0000" stroke-width=".1248" points="491.4377,-55.3233 495.9694,-45.7465 486.4546,-50.407 491.4377,-55.3233"/>
</g>
<!-- sensor 16&#45;&gt;jump -->
<g id="edge78" class="edge">
<title>sensor 16&#45;&gt;jump</title>
<path fill="none" stroke="#ff0000" stroke-width=".3161" d="M465.1603,-94.4522C487.0961,-86.5938 519.0551,-73.7754 544.5,-57.9828 547.0334,-56.4104 549.5726,-54.6566 552.0586,-52.8113"/>
<polygon fill="#ff0000" stroke="#ff0000" stroke-width=".3161" points="554.5756,-55.2813 560.2209,-46.3157 550.2167,-49.804 554.5756,-55.2813"/>
</g>
<!-- sensor 16&#45;&gt;shoot -->
<g id="edge79" class="edge">
<title>sensor 16&#45;&gt;shoot</title>
<path fill="none" stroke="#ff0000" stroke-width=".4326" d="M465.1159,-96.1864C467.9443,-95.4406 470.7828,-94.6942 473.5,-93.9828 535.2348,-77.8177 555.8877,-87.4369 612.5,-57.9828 615.0806,-56.6401 617.6348,-55.0687 620.1148,-53.3645"/>
<polygon fill="#ff0000" stroke="#ff0000" stroke-width=".4326" points="622.368,-56.0477 628.1921,-47.1972 618.12,-50.484 622.368,-56.0477"/>
</g>
<!-- sensor 16&#45;&gt;release -->
<g id="edge80" class="edge">
<title>sensor 16&#45;&gt;release</title>
<path fill="none" stroke="#ff0000" stroke-width=".7816" d="M465.0621,-95.9625C467.9006,-95.2587 470.7562,-94.5833 473.5,-93.9828 564.7214,-74.0163 594.9315,-95.3729 680.5,-57.9828 683.1376,-56.8302 685.758,-55.4578 688.3176,-53.9461"/>
<polygon fill="#ff0000" stroke="#ff0000" stroke-width=".7816" points="690.3117,-56.8236 696.7217,-48.3878 686.4502,-50.985 690.3117,-56.8236"/>
</g>
<!-- sensor 17 -->
<g id="node17" class="node">
<title>sensor 17</title>
<polygon fill="#d3d3d3" stroke="#000000" points="1326,-111.9828 1275,-111.9828 1275,-93.9828 1326,-93.9828 1326,-111.9828"/>
<text text-anchor="middle" x="1300.5" y="-100.7828" font-family="Times,serif" font-size="9.00" fill="#000000">sensor 17</text>
</g>
<!-- sensor 17&#45;&gt;left -->
<g id="edge81" class="edge">
<title>sensor 17&#45;&gt;left</title>
<path fill="none" stroke="#00ff00" stroke-width=".3466" d="M1274.9599,-95.8573C1272.1172,-95.1732 1269.2547,-94.5312 1266.5,-93.9828 1097.5391,-60.3414 891.6728,-38.9824 815.6082,-31.7441"/>
<polygon fill="#00ff00" stroke="#00ff00" stroke-width=".3466" points="815.6312,-28.2308 805.3473,-30.7788 814.9755,-35.2001 815.6312,-28.2308"/>
</g>
<!-- sensor 17&#45;&gt;jump -->
<g id="edge82" class="edge">
<title>sensor 17&#45;&gt;jump</title>
<path fill="none" stroke="#00ff00" stroke-width=".1215" d="M1274.9994,-95.636C1272.1494,-94.9933 1269.2743,-94.4216 1266.5,-93.9828 1122.7341,-71.2418 747.6421,-112.0419 612.5,-57.9828 609.5695,-56.8105 606.7117,-55.2785 603.9774,-53.5308"/>
<polygon fill="#00ff00" stroke="#00ff00" stroke-width=".1215" points="605.8386,-50.553 595.7271,-47.3896 601.6589,-56.1682 605.8386,-50.553"/>
</g>
<!-- sensor 17&#45;&gt;shoot -->
<g id="edge83" class="edge">
<title>sensor 17&#45;&gt;shoot</title>
<path fill="none" stroke="#ff0000" stroke-width=".1562" d="M1274.9966,-95.6538C1272.1471,-95.0078 1269.2729,-94.4304 1266.5,-93.9828 1137.7,-73.1887 801.4807,-106.8244 680.5,-57.9828 677.6429,-56.8293 674.854,-55.3359 672.1808,-53.6358"/>
<polygon fill="#ff0000" stroke="#ff0000" stroke-width=".1562" points="674.2182,-50.7895 664.0947,-47.6645 670.0598,-56.4205 674.2182,-50.7895"/>
</g>
<!-- sensor 17&#45;&gt;release -->
<g id="edge84" class="edge">
<title>sensor 17&#45;&gt;release</title>
<path fill="none" stroke="#00ff00" stroke-width=".4124" d="M1274.9924,-95.6793C1272.1437,-95.0285 1269.2708,-94.4431 1266.5,-93.9828 1154.4207,-75.3636 862.7882,-98.1233 756.5,-57.9828 753.8073,-56.9658 751.1466,-55.6922 748.5587,-54.2501"/>
<polygon fill="#00ff00" stroke="#00ff00" stroke-width=".4124" points="750.4071,-51.2777 740.0998,-48.8264 746.6288,-57.1704 750.4071,-51.2777"/>
</g>
<!-- sensor 18 -->
<g id="node18" class="node">
<title>sensor 18</title>
<polygon fill="#d3d3d3" stroke="#000000" points="534,-111.9828 483,-111.9828 483,-93.9828 534,-93.9828 534,-111.9828"/>
<text text-anchor="middle" x="508.5" y="-100.7828" font-family="Times,serif" font-size="9.00" fill="#000000">sensor 18</text>
</g>
<!-- sensor 18&#45;&gt;left -->
<g id="edge85" class="edge">
<title>sensor 18&#45;&gt;left</title>
<path fill="none" stroke="#00ff00" stroke-width=".1739" d="M534.0555,-96.1463C537.2266,-95.3764 540.4316,-94.6354 543.5,-93.9828 637.4088,-74.0099 671.1786,-102.0059 756.5,-57.9828 759.6969,-56.3332 762.7617,-54.2054 765.6219,-51.8522"/>
<polygon fill="#00ff00" stroke="#00ff00" stroke-width=".1739" points="768.1962,-54.2358 773.0809,-44.8342 763.3994,-49.1376 768.1962,-54.2358"/>
</g>
<!-- sensor 18&#45;&gt;right -->
<g id="edge86" class="edge">
<title>sensor 18&#45;&gt;right</title>
<path fill="none" stroke="#00ff00" stroke-width=".2227" d="M508.9905,-93.91C509.4153,-86.051 510.0575,-74.1728 510.6768,-62.7162"/>
<polygon fill="#00ff00" stroke="#00ff00" stroke-width=".2227" points="514.1873,-62.6152 511.2323,-52.4408 507.1975,-62.2373 514.1873,-62.6152"/>
</g>
<!-- sensor 18&#45;&gt;jump -->
<g id="edge87" class="edge">
<title>sensor 18&#45;&gt;jump</title>
<path fill="none" stroke="#ff0000" stroke-width=".2568" d="M517.0834,-93.91C526.3244,-84.142 541.4394,-68.1651 554.3617,-54.506"/>
<polygon fill="#ff0000" stroke="#ff0000" stroke-width=".2568" points="556.934,-56.8799 561.264,-47.2102 551.849,-52.0691 556.934,-56.8799"/>
</g>
<!-- sensor 18&#45;&gt;shoot -->
<g id="edge88" class="edge">
<title>sensor 18&#45;&gt;shoot</title>
<path fill="none" stroke="#00ff00" stroke-width=".2779" d="M534.3435,-94.253C556.0532,-86.3555 587.4539,-73.5882 612.5,-57.9828 614.969,-56.4444 617.4442,-54.7347 619.8708,-52.9368"/>
<polygon fill="#00ff00" stroke="#00ff00" stroke-width=".2779" points="622.1941,-55.5613 627.8544,-46.6052 617.8444,-50.0768 622.1941,-55.5613"/>
</g>
<!-- sensor 18&#45;&gt;release -->
<g id="edge89" class="edge">
<title>sensor 18&#45;&gt;release</title>
<path fill="none" stroke="#00ff00" stroke-width=".2349" d="M534.3191,-96.2965C581.916,-83.9613 678.8268,-58.7989 680.5,-57.9828 683.087,-56.7209 685.6707,-55.2687 688.2043,-53.701"/>
<polygon fill="#00ff00" stroke="#00ff00" stroke-width=".2349" points="690.2475,-56.5444 696.5583,-48.0341 686.3178,-50.7514 690.2475,-56.5444"/>
</g>
<!-- sensor 19 -->
<g id="node19" class="node">
<title>sensor 19</title>
<polygon fill="#d3d3d3" stroke="#000000" points="603,-111.9828 552,-111.9828 552,-93.9828 603,-93.9828 603,-111.9828"/>
<text text-anchor="middle" x="577.5" y="-100.7828" font-family="Times,serif" font-size="9.00" fill="#000000">sensor 19</text>
</g>
<!-- sensor 19&#45;&gt;left -->
<g id="edge90" class="edge">
<title>sensor 19&#45;&gt;left</title>
<path fill="none" stroke="#ff0000" stroke-width=".4048" d="M603.1092,-96.3764C606.2711,-95.567 609.4592,-94.7538 612.5,-93.9828 676.4459,-77.7681 699.0908,-90.4817 756.5,-57.9828 759.6306,-56.2106 762.6552,-54.0084 765.4936,-51.6151"/>
<polygon fill="#ff0000" stroke="#ff0000" stroke-width=".4048" points="768.0843,-53.982 772.9339,-44.5623 763.2685,-48.9018 768.0843,-53.982"/>
</g>
<!-- sensor 19&#45;&gt;right -->
<g id="edge91" class="edge">
<title>sensor 19&#45;&gt;right</title>
<path fill="none" stroke="#00ff00" stroke-width=".3978" d="M569.5297,-93.91C560.9149,-84.1034 546.8024,-68.0388 534.772,-54.3442"/>
<polygon fill="#00ff00" stroke="#00ff00" stroke-width=".3978" points="537.2159,-51.823 527.9865,-46.6202 531.9569,-56.4429 537.2159,-51.823"/>
</g>
<!-- sensor 19&#45;&gt;jump -->
<g id="edge92" class="edge">
<title>sensor 19&#45;&gt;jump</title>
<path fill="none" stroke="#00ff00" stroke-width=".4526" d="M577.6226,-93.91C577.7238,-86.4236 577.8743,-75.2901 578.0221,-64.3482"/>
<polygon fill="#00ff00" stroke="#00ff00" stroke-width=".4526" points="581.5259,-64.0879 578.1614,-54.0415 574.5265,-63.9932 581.5259,-64.0879"/>
</g>
<!-- sensor 19&#45;&gt;shoot -->
<g id="edge93" class="edge">
<title>sensor 19&#45;&gt;shoot</title>
<path fill="none" stroke="#00ff00" stroke-width=".4249" d="M585.9608,-93.91C594.8651,-84.3615 609.3022,-68.88 621.8448,-55.4301"/>
<polygon fill="#00ff00" stroke="#00ff00" stroke-width=".4249" points="624.6941,-57.5066 628.9545,-47.8061 619.5747,-52.7325 624.6941,-57.5066"/>
</g>
<!-- sensor 19&#45;&gt;release -->
<g id="edge94" class="edge">
<title>sensor 19&#45;&gt;release</title>
<path fill="none" stroke="#ff0000" stroke-width=".1213" d="M602.8773,-93.861C624.2454,-85.7244 655.2716,-72.8261 680.5,-57.9828 682.7529,-56.6573 685.0267,-55.219 687.2821,-53.7159"/>
<polygon fill="#ff0000" stroke="#ff0000" stroke-width=".1213" points="689.6564,-56.324 695.8074,-47.6975 685.6194,-50.6054 689.6564,-56.324"/>
</g>
<!-- sensor 20 -->
<g id="node20" class="node">
<title>sensor 20</title>
<polygon fill="#d3d3d3" stroke="#000000" points="672,-111.9828 621,-111.9828 621,-93.9828 672,-93.9828 672,-111.9828"/>
<text text-anchor="middle" x="646.5" y="-100.7828" font-family="Times,serif" font-size="9.00" fill="#000000">sensor 20</text>
</g>
<!-- sensor 20&#45;&gt;left -->
<g id="edge95" class="edge">
<title>sensor 20&#45;&gt;left</title>
<path fill="none" stroke="#00ff00" stroke-width=".1974" d="M672.3708,-95.623C695.6079,-88.2872 730.0397,-75.5764 756.5,-57.9828 759.4956,-55.9909 762.4386,-53.6559 765.2329,-51.1907"/>
<polygon fill="#00ff00" stroke="#00ff00" stroke-width=".1974" points="767.851,-53.5289 772.6348,-44.0755 762.9999,-48.4823 767.851,-53.5289"/>
</g>
<!-- sensor 20&#45;&gt;right -->
<g id="edge96" class="edge">
<title>sensor 20&#45;&gt;right</title>
<path fill="none" stroke="#ff0000" stroke-width=".1139" d="M620.6155,-94.2001C599.274,-86.3538 568.689,-73.6858 544.5,-57.9828 541.9653,-56.3372 539.4353,-54.4911 536.9715,-52.5482"/>
<polygon fill="#ff0000" stroke="#ff0000" stroke-width=".1139" points="538.8252,-49.5304 528.9387,-45.7215 534.2921,-54.8644 538.8252,-49.5304"/>
</g>
<!-- sensor 20&#45;&gt;jump -->
<g id="edge97" class="edge">
<title>sensor 20&#45;&gt;jump</title>
<path fill="none" stroke="#ff0000" stroke-width=".2881" d="M638.1619,-93.91C629.3273,-84.297 614.9661,-68.6705 602.5476,-55.1578"/>
<polygon fill="#ff0000" stroke="#ff0000" stroke-width=".2881" points="604.8604,-52.502 595.5167,-47.5074 599.7064,-57.2387 604.8604,-52.502"/>
</g>
<!-- sensor 20&#45;&gt;shoot -->
<g id="edge98" class="edge">
<title>sensor 20&#45;&gt;shoot</title>
<path fill="none" stroke="#00ff00" stroke-width=".2958" d="M646.5,-93.91C646.5,-86.5406 646.5,-75.6372 646.5,-64.8612"/>
<polygon fill="#00ff00" stroke="#00ff00" stroke-width=".2958" points="650.0001,-64.6882 646.5,-54.6883 643.0001,-64.6883 650.0001,-64.6882"/>
</g>
<!-- sensor 20&#45;&gt;release -->
<g id="edge99" class="edge">
<title>sensor 20&#45;&gt;release</title>
<path fill="none" stroke="#00ff00" stroke-width=".1291" d="M655.3286,-93.91C664.1807,-84.8131 678.2728,-70.3312 690.9033,-57.3514"/>
<polygon fill="#00ff00" stroke="#00ff00" stroke-width=".1291" points="693.6548,-59.5425 698.1204,-49.9347 688.638,-54.6607 693.6548,-59.5425"/>
</g>
</g>
</svg>
