<?xml version="1.0" encoding="UTF-8" standalone="no"?>
<!DOCTYPE svg PUBLIC "-//W3C//DTD SVG 1.1//EN"
 "http://www.w3.org/Graphics/SVG/1.1/DTD/svg11.dtd">
<!-- Generated by graphviz version 2.40.1 (20161225.0304)
 -->
<!-- Title: %3 Pages: 1 -->
<svg width="942pt" height="139pt"
 viewBox="0.00 0.00 942.38 138.75" xmlns="http://www.w3.org/2000/svg" xmlns:xlink="http://www.w3.org/1999/xlink">
<g id="graph0" class="graph" transform="scale(1 1) rotate(0) translate(4 134.7523)">
<title>%3</title>
<polygon fill="#ffffff" stroke="transparent" points="-4,4 -4,-134.7523 938.3848,-134.7523 938.3848,4 -4,4"/>
<!-- &#45;1 -->
<g id="node1" class="node">
<title>&#45;1</title>
<polygon fill="#d3d3d3" stroke="#000000" points="24,-121.3675 0,-121.3675 0,-103.3675 24,-103.3675 24,-121.3675"/>
<text text-anchor="middle" x="12" y="-110.1675" font-family="Times,serif" font-size="9.00" fill="#000000">&#45;1</text>
</g>
<!-- s -->
<g id="node21" class="node">
<title>s</title>
<ellipse fill="#add8e6" stroke="#000000" cx="288" cy="-28.9914" rx="14.2857" ry="14.2857"/>
<text text-anchor="middle" x="288" y="-26.7914" font-family="Times,serif" font-size="9.00" fill="#000000">s</text>
</g>
<!-- &#45;1&#45;&gt;s -->
<g id="edge1" class="edge">
<title>&#45;1&#45;&gt;s</title>
<path fill="none" stroke="#00ff00" stroke-width=".2592" d="M20.7017,-103.1017C24.2381,-99.8033 28.5402,-96.3292 33,-93.9828 111.0435,-52.9225 216.3702,-36.8324 263.4671,-31.4009"/>
<polygon fill="#00ff00" stroke="#00ff00" stroke-width=".2592" points="264.0659,-34.8565 273.6275,-30.2928 263.3069,-27.8977 264.0659,-34.8565"/>
</g>
<!-- right -->
<g id="node22" class="node">
<title>right</title>
<ellipse fill="#add8e6" stroke="#000000" cx="437" cy="-28.9914" rx="23.1702" ry="23.1702"/>
<text text-anchor="middle" x="437" y="-26.7914" font-family="Times,serif" font-size="9.00" fill="#000000">right</text>
</g>
<!-- &#45;1&#45;&gt;right -->
<g id="edge2" class="edge">
<title>&#45;1&#45;&gt;right</title>
<path fill="none" stroke="#00ff00" stroke-width=".6527" d="M20.1239,-103.1192C23.7077,-99.6545 28.1959,-96.0581 33,-93.9828 185.4854,-28.1093 253.0806,-125.1512 405,-57.9828 408.0168,-56.649 410.9418,-54.9172 413.7176,-52.9637"/>
<polygon fill="#00ff00" stroke="#00ff00" stroke-width=".6527" points="415.9813,-55.6341 421.5394,-46.6142 411.5696,-50.1994 415.9813,-55.6341"/>
</g>
<!-- jump -->
<g id="node23" class="node">
<title>jump</title>
<ellipse fill="#add8e6" stroke="#000000" cx="503" cy="-28.9914" rx="25" ry="25"/>
<text text-anchor="middle" x="503" y="-26.7914" font-family="Times,serif" font-size="9.00" fill="#000000">jump</text>
</g>
<!-- &#45;1&#45;&gt;jump -->
<g id="edge3" class="edge">
<title>&#45;1&#45;&gt;jump</title>
<path fill="none" stroke="#ff0000" stroke-width=".574" d="M20.1093,-103.0852C23.6909,-99.6153 28.1814,-96.0242 33,-93.9828 212.0326,-18.1332 289.4766,-132.6633 469,-57.9828 471.9142,-56.7705 474.7609,-55.2112 477.4879,-53.4459"/>
<polygon fill="#ff0000" stroke="#ff0000" stroke-width=".574" points="479.8196,-56.0725 485.7273,-47.2776 475.6244,-50.4688 479.8196,-56.0725"/>
</g>
<!-- release -->
<g id="node25" class="node">
<title>release</title>
<ellipse fill="#add8e6" stroke="#000000" cx="367" cy="-28.9914" rx="28.9828" ry="28.9828"/>
<text text-anchor="middle" x="367" y="-26.7914" font-family="Times,serif" font-size="9.00" fill="#000000">release</text>
</g>
<!-- &#45;1&#45;&gt;release -->
<g id="edge4" class="edge">
<title>&#45;1&#45;&gt;release</title>
<path fill="none" stroke="#ff0000" stroke-width=".196" d="M20.1498,-103.1781C23.7376,-99.7225 28.2217,-96.1169 33,-93.9828 154.0038,-39.937 206.2447,-107.9227 329,-57.9828 331.6662,-56.8981 334.3075,-55.5751 336.8817,-54.0983"/>
<polygon fill="#ff0000" stroke="#ff0000" stroke-width=".196" points="338.8442,-56.9971 345.3143,-48.6073 335.0245,-51.1311 338.8442,-56.9971"/>
</g>
<!-- &#45;2 -->
<g id="node2" class="node">
<title>&#45;2</title>
<polygon fill="#d3d3d3" stroke="#000000" points="706,-121.3675 682,-121.3675 682,-103.3675 706,-103.3675 706,-121.3675"/>
<text text-anchor="middle" x="694" y="-110.1675" font-family="Times,serif" font-size="9.00" fill="#000000">&#45;2</text>
</g>
<!-- &#45;2&#45;&gt;s -->
<g id="edge5" class="edge">
<title>&#45;2&#45;&gt;s</title>
<path fill="none" stroke="#00ff00" stroke-width=".3068" d="M685.868,-103.1379C682.2829,-99.6761 677.796,-96.0768 673,-93.9828 532.12,-32.4699 472.8764,-112.1178 329,-57.9828 321.1466,-55.0278 313.4029,-50.1967 306.7966,-45.3179"/>
<polygon fill="#00ff00" stroke="#00ff00" stroke-width=".3068" points="308.5989,-42.2801 298.5894,-38.8071 304.2484,-47.764 308.5989,-42.2801"/>
</g>
<!-- &#45;2&#45;&gt;right -->
<g id="edge6" class="edge">
<title>&#45;2&#45;&gt;right</title>
<path fill="none" stroke="#ff0000" stroke-width=".139" d="M685.7911,-103.3059C682.1943,-99.8698 677.7193,-96.2443 673,-93.9828 589.9736,-54.1951 551.6849,-98.4753 469,-57.9828 466.1955,-56.6093 463.4564,-54.9152 460.8357,-53.0412"/>
<polygon fill="#ff0000" stroke="#ff0000" stroke-width=".139" points="462.8993,-50.2082 452.9326,-46.6145 458.4829,-55.6392 462.8993,-50.2082"/>
</g>
<!-- &#45;2&#45;&gt;jump -->
<g id="edge7" class="edge">
<title>&#45;2&#45;&gt;jump</title>
<path fill="none" stroke="#00ff00" stroke-width=".1842" d="M685.2868,-103.1234C681.749,-99.8277 677.449,-96.3497 673,-93.9828 617.7997,-64.6152 592.3907,-86.9897 537,-57.9828 534.1137,-56.4713 531.2594,-54.6754 528.5041,-52.7291"/>
<polygon fill="#00ff00" stroke="#00ff00" stroke-width=".1842" points="530.6425,-49.9583 520.6029,-46.5732 526.3402,-55.4802 530.6425,-49.9583"/>
</g>
<!-- shoot -->
<g id="node24" class="node">
<title>shoot</title>
<ellipse fill="#add8e6" stroke="#000000" cx="571" cy="-28.9914" rx="25.4118" ry="25.4118"/>
<text text-anchor="middle" x="571" y="-26.7914" font-family="Times,serif" font-size="9.00" fill="#000000">shoot</text>
</g>
<!-- &#45;2&#45;&gt;shoot -->
<g id="edge8" class="edge">
<title>&#45;2&#45;&gt;shoot</title>
<path fill="none" stroke="#ff0000" stroke-width=".4653" d="M684.0065,-103.0693C680.6059,-100.0555 676.7223,-96.7727 673,-93.9828 650.0215,-76.7598 622.4839,-59.3904 601.8164,-46.9464"/>
<polygon fill="#ff0000" stroke="#ff0000" stroke-width=".4653" points="603.5102,-43.8813 593.1295,-41.7619 599.9228,-49.8922 603.5102,-43.8813"/>
</g>
<!-- &#45;2&#45;&gt;release -->
<g id="edge9" class="edge">
<title>&#45;2&#45;&gt;release</title>
<path fill="none" stroke="#00ff00" stroke-width=".2567" d="M685.8367,-103.208C682.2469,-99.757 677.7648,-96.1468 673,-93.9828 563.5756,-44.2861 516.036,-103.966 405,-57.9828 402.3407,-56.8814 399.7043,-55.5463 397.1336,-54.0609"/>
<polygon fill="#00ff00" stroke="#00ff00" stroke-width=".2567" points="398.9932,-51.0951 388.7078,-48.5534 395.1633,-56.9545 398.9932,-51.0951"/>
</g>
<!-- &#45;3 -->
<g id="node3" class="node">
<title>&#45;3</title>
<polygon fill="#d3d3d3" stroke="#000000" points="748,-121.3675 724,-121.3675 724,-103.3675 748,-103.3675 748,-121.3675"/>
<text text-anchor="middle" x="736" y="-110.1675" font-family="Times,serif" font-size="9.00" fill="#000000">&#45;3</text>
</g>
<!-- &#45;3&#45;&gt;s -->
<g id="edge10" class="edge">
<title>&#45;3&#45;&gt;s</title>
<path fill="none" stroke="#ff0000" stroke-width=".4785" d="M727.8797,-103.1108C724.2965,-99.6448 719.8077,-96.0498 715,-93.9828 556.7096,-25.9279 490.6022,-117.7494 329,-57.9828 321.1301,-55.0722 313.3823,-50.252 306.7773,-45.3697"/>
<polygon fill="#ff0000" stroke="#ff0000" stroke-width=".4785" points="308.58,-42.3315 298.5746,-38.8468 304.2231,-47.8104 308.58,-42.3315"/>
</g>
<!-- &#45;3&#45;&gt;right -->
<g id="edge11" class="edge">
<title>&#45;3&#45;&gt;right</title>
<path fill="none" stroke="#00ff00" stroke-width=".3519" d="M727.8239,-103.2361C724.2321,-99.7894 719.752,-96.1748 715,-93.9828 614.6629,-47.6984 568.9397,-105.1191 469,-57.9828 466.0167,-56.5757 463.1136,-54.7959 460.3513,-52.813"/>
<polygon fill="#00ff00" stroke="#00ff00" stroke-width=".3519" points="462.5022,-50.0506 452.5471,-46.4249 458.0684,-55.4674 462.5022,-50.0506"/>
</g>
<!-- &#45;3&#45;&gt;jump -->
<g id="edge12" class="edge">
<title>&#45;3&#45;&gt;jump</title>
<path fill="none" stroke="#ff0000" stroke-width=".1995" d="M727.7625,-103.3646C724.1613,-99.9375 719.6908,-96.3029 715,-93.9828 642.6528,-58.1993 609.579,-93.2937 537,-57.9828 534.0703,-56.5574 531.1867,-54.8194 528.413,-52.9097"/>
<polygon fill="#ff0000" stroke="#ff0000" stroke-width=".1995" points="530.5441,-50.1333 520.4852,-46.8064 526.2739,-55.68 530.5441,-50.1333"/>
</g>
<!-- &#45;3&#45;&gt;shoot -->
<g id="edge13" class="edge">
<title>&#45;3&#45;&gt;shoot</title>
<path fill="none" stroke="#00ff00" stroke-width=".1911" d="M726.6498,-103.1269C723.1714,-99.9825 719.0755,-96.6038 715,-93.9828 679.6616,-71.2558 635.055,-52.4571 604.9249,-41.0228"/>
<polygon fill="#00ff00" stroke="#00ff00" stroke-width=".1911" points="605.8888,-37.6469 595.2961,-37.4324 603.443,-44.2058 605.8888,-37.6469"/>
</g>
<!-- &#45;3&#45;&gt;release -->
<g id="edge14" class="edge">
<title>&#45;3&#45;&gt;release</title>
<path fill="none" stroke="#ff0000" stroke-width=".6152" d="M727.856,-103.1652C724.2691,-99.7075 719.784,-96.104 715,-93.9828 588.2019,-37.7604 533.6196,-109.903 405,-57.9828 402.3309,-56.9053 399.6874,-55.5876 397.1117,-54.1145"/>
<polygon fill="#ff0000" stroke="#ff0000" stroke-width=".6152" points="398.968,-51.1467 388.6762,-48.6306 395.1527,-57.0155 398.968,-51.1467"/>
</g>
<!-- &#45;4 -->
<g id="node4" class="node">
<title>&#45;4</title>
<polygon fill="#d3d3d3" stroke="#000000" points="790,-121.3675 766,-121.3675 766,-103.3675 790,-103.3675 790,-121.3675"/>
<text text-anchor="middle" x="778" y="-110.1675" font-family="Times,serif" font-size="9.00" fill="#000000">&#45;4</text>
</g>
<!-- &#45;4&#45;&gt;s -->
<g id="edge15" class="edge">
<title>&#45;4&#45;&gt;s</title>
<path fill="none" stroke="#00ff00" stroke-width=".2181" d="M769.8891,-103.0889C766.3073,-99.6196 761.8171,-96.0279 757,-93.9828 581.2871,-19.3808 508.3404,-123.3856 329,-57.9828 321.117,-55.1079 313.3659,-50.2967 306.7619,-45.4114"/>
<polygon fill="#00ff00" stroke="#00ff00" stroke-width=".2181" points="308.5649,-42.3729 298.5628,-38.8789 304.2029,-47.8477 308.5649,-42.3729"/>
</g>
<!-- &#45;4&#45;&gt;right -->
<g id="edge16" class="edge">
<title>&#45;4&#45;&gt;right</title>
<path fill="none" stroke="#00ff00" stroke-width=".2036" d="M769.8466,-103.1861C766.2583,-99.7317 761.7747,-96.1249 757,-93.9828 639.3059,-41.1802 586.2406,-111.7847 469,-57.9828 466.0021,-56.607 463.0895,-54.8478 460.3213,-52.8775"/>
<polygon fill="#00ff00" stroke="#00ff00" stroke-width=".2036" points="462.4709,-50.1142 452.5094,-46.5059 458.0465,-55.5387 462.4709,-50.1142"/>
</g>
<!-- &#45;4&#45;&gt;jump -->
<g id="edge17" class="edge">
<title>&#45;4&#45;&gt;jump</title>
<path fill="none" stroke="#ff0000" stroke-width=".2058" d="M769.8051,-103.2763C766.2105,-99.8357 761.7333,-96.2149 757,-93.9828 667.3861,-51.7235 626.8875,-99.6568 537,-57.9828 534.1365,-56.6552 531.3244,-55.0173 528.6196,-53.2012"/>
<polygon fill="#ff0000" stroke="#ff0000" stroke-width=".2058" points="530.4914,-50.2273 520.4144,-46.9553 526.2515,-55.7972 530.4914,-50.2273"/>
</g>
<!-- &#45;4&#45;&gt;shoot -->
<g id="edge18" class="edge">
<title>&#45;4&#45;&gt;shoot</title>
<path fill="none" stroke="#00ff00" stroke-width=".1089" d="M769.1864,-103.3035C765.6363,-100.0299 761.3541,-96.52 757,-93.9828 708.0304,-65.4467 644.532,-46.6239 605.8263,-36.895"/>
<polygon fill="#00ff00" stroke="#00ff00" stroke-width=".1089" points="606.6176,-33.4854 596.0719,-34.5042 604.9512,-40.2842 606.6176,-33.4854"/>
</g>
<!-- &#45;4&#45;&gt;release -->
<g id="edge19" class="edge">
<title>&#45;4&#45;&gt;release</title>
<path fill="none" stroke="#ff0000" stroke-width=".1765" d="M769.8704,-103.1323C766.2858,-99.6696 761.7985,-96.0712 757,-93.9828 612.8049,-31.2243 551.2269,-115.8495 405,-57.9828 402.3236,-56.9236 399.6748,-55.6192 397.0953,-54.1555"/>
<polygon fill="#ff0000" stroke="#ff0000" stroke-width=".1765" points="398.9491,-51.1862 388.6526,-48.6898 395.145,-57.0624 398.9491,-51.1862"/>
</g>
<!-- &#45;5 -->
<g id="node5" class="node">
<title>&#45;5</title>
<polygon fill="#d3d3d3" stroke="#000000" points="156,-121.3675 132,-121.3675 132,-103.3675 156,-103.3675 156,-121.3675"/>
<text text-anchor="middle" x="144" y="-110.1675" font-family="Times,serif" font-size="9.00" fill="#000000">&#45;5</text>
</g>
<!-- &#45;5&#45;&gt;s -->
<g id="edge20" class="edge">
<title>&#45;5&#45;&gt;s</title>
<path fill="none" stroke="#ff0000" stroke-width=".2132" d="M153.4431,-103.2665C156.9303,-100.1352 161.0079,-96.7291 165,-93.9828 198.2,-71.1427 240.3728,-50.4672 265.7189,-38.8371"/>
<polygon fill="#ff0000" stroke="#ff0000" stroke-width=".2132" points="267.1946,-42.011 274.8626,-34.6999 264.309,-35.6334 267.1946,-42.011"/>
</g>
<!-- &#45;5&#45;&gt;right -->
<g id="edge21" class="edge">
<title>&#45;5&#45;&gt;right</title>
<path fill="none" stroke="#00ff00" stroke-width=".1145" d="M152.1801,-103.2447C155.7725,-99.7992 160.2519,-96.1833 165,-93.9828 262.8608,-48.6281 307.5286,-104.1684 405,-57.9828 407.9808,-56.5704 410.8822,-54.787 413.6435,-52.802"/>
<polygon fill="#00ff00" stroke="#00ff00" stroke-width=".1145" points="415.9278,-55.4552 421.4464,-46.4111 411.4923,-50.0398 415.9278,-55.4552"/>
</g>
<!-- &#45;5&#45;&gt;jump -->
<g id="edge22" class="edge">
<title>&#45;5&#45;&gt;jump</title>
<path fill="none" stroke="#00ff00" stroke-width=".3293" d="M152.1464,-103.1706C155.7337,-99.7138 160.2184,-96.1094 165,-93.9828 289.3145,-38.6934 344.3276,-112.4604 469,-57.9828 471.8922,-56.719 474.7239,-55.1246 477.4413,-53.3366"/>
<polygon fill="#00ff00" stroke="#00ff00" stroke-width=".3293" points="479.7895,-55.9494 485.6658,-47.1336 475.5744,-50.3607 479.7895,-55.9494"/>
</g>
<!-- &#45;5&#45;&gt;shoot -->
<g id="edge23" class="edge">
<title>&#45;5&#45;&gt;shoot</title>
<path fill="none" stroke="#ff0000" stroke-width=".4733" d="M152.1239,-103.1192C155.7077,-99.6545 160.1959,-96.0581 165,-93.9828 317.4854,-28.1093 384.0883,-122.8606 537,-57.9828 539.8364,-56.7793 542.6111,-55.2515 545.2749,-53.5288"/>
<polygon fill="#ff0000" stroke="#ff0000" stroke-width=".4733" points="547.4139,-56.2998 553.3461,-47.5214 543.2344,-50.6845 547.4139,-56.2998"/>
</g>
<!-- &#45;5&#45;&gt;release -->
<g id="edge24" class="edge">
<title>&#45;5&#45;&gt;release</title>
<path fill="none" stroke="#00ff00" stroke-width=".3578" d="M152.6609,-103.0224C156.1923,-99.7143 160.5015,-96.2542 165,-93.9828 231.614,-60.3469 261.2911,-89.3561 329,-57.9828 331.6116,-56.7726 334.2132,-55.3582 336.7595,-53.817"/>
<polygon fill="#00ff00" stroke="#00ff00" stroke-width=".3578" points="338.7797,-56.6764 345.1379,-48.2015 334.8824,-50.8616 338.7797,-56.6764"/>
</g>
<!-- &#45;6 -->
<g id="node6" class="node">
<title>&#45;6</title>
<polygon fill="#d3d3d3" stroke="#000000" points="198,-121.3675 174,-121.3675 174,-103.3675 198,-103.3675 198,-121.3675"/>
<text text-anchor="middle" x="186" y="-110.1675" font-family="Times,serif" font-size="9.00" fill="#000000">&#45;6</text>
</g>
<!-- &#45;6&#45;&gt;s -->
<g id="edge25" class="edge">
<title>&#45;6&#45;&gt;s</title>
<path fill="none" stroke="#ff0000" stroke-width=".1666" d="M196.1778,-103.3018C199.5907,-100.3035 203.4351,-96.9711 207,-93.9828 227.8262,-76.5251 252.2076,-57.095 268.7383,-44.067"/>
<polygon fill="#ff0000" stroke="#ff0000" stroke-width=".1666" points="270.9078,-46.8136 276.6068,-37.8821 266.5819,-41.3102 270.9078,-46.8136"/>
</g>
<!-- &#45;6&#45;&gt;right -->
<g id="edge26" class="edge">
<title>&#45;6&#45;&gt;right</title>
<path fill="none" stroke="#00ff00" stroke-width=".6049" d="M194.2148,-103.3181C197.8125,-99.8839 202.2866,-96.2566 207,-93.9828 287.5589,-55.1207 324.7746,-97.5288 405,-57.9828 407.801,-56.6021 410.5376,-54.9031 413.1568,-53.0259"/>
<polygon fill="#00ff00" stroke="#00ff00" stroke-width=".6049" points="415.5118,-55.622 421.0577,-46.5946 411.0927,-50.1932 415.5118,-55.622"/>
</g>
<!-- &#45;6&#45;&gt;jump -->
<g id="edge27" class="edge">
<title>&#45;6&#45;&gt;jump</title>
<path fill="none" stroke="#00ff00" stroke-width=".1511" d="M194.1666,-103.2153C197.7569,-99.7653 202.2384,-96.154 207,-93.9828 313.945,-45.2172 361.7393,-106.0499 469,-57.9828 471.8803,-56.692 474.7038,-55.0792 477.416,-53.2794"/>
<polygon fill="#00ff00" stroke="#00ff00" stroke-width=".1511" points="479.7727,-55.8851 485.6325,-47.0582 475.5472,-50.3043 479.7727,-55.8851"/>
</g>
<!-- &#45;6&#45;&gt;shoot -->
<g id="edge28" class="edge">
<title>&#45;6&#45;&gt;shoot</title>
<path fill="none" stroke="#ff0000" stroke-width=".3603" d="M194.1367,-103.1485C197.7224,-99.6883 202.2086,-96.0874 207,-93.9828 342.08,-34.649 401.5359,-116.4344 537,-57.9828 539.829,-56.7621 542.5986,-55.2223 545.2591,-53.4918"/>
<polygon fill="#ff0000" stroke="#ff0000" stroke-width=".3603" points="547.4042,-56.2582 553.3249,-47.472 543.2174,-50.6483 547.4042,-56.2582"/>
</g>
<!-- &#45;6&#45;&gt;release -->
<g id="edge29" class="edge">
<title>&#45;6&#45;&gt;release</title>
<path fill="none" stroke="#ff0000" stroke-width=".2128" d="M194.7489,-103.1894C198.2911,-99.9018 202.5848,-96.4121 207,-93.9828 256.5309,-66.7296 278.5793,-83.5524 329,-57.9828 331.5671,-56.6809 334.1362,-55.1996 336.6597,-53.6113"/>
<polygon fill="#ff0000" stroke="#ff0000" stroke-width=".2128" points="338.7202,-56.4423 344.9939,-47.9047 334.7654,-50.6665 338.7202,-56.4423"/>
</g>
<!-- &#45;7 -->
<g id="node7" class="node">
<title>&#45;7</title>
<polygon fill="#d3d3d3" stroke="#000000" points="66,-121.3675 42,-121.3675 42,-103.3675 66,-103.3675 66,-121.3675"/>
<text text-anchor="middle" x="54" y="-110.1675" font-family="Times,serif" font-size="9.00" fill="#000000">&#45;7</text>
</g>
<!-- &#45;7&#45;&gt;s -->
<g id="edge30" class="edge">
<title>&#45;7&#45;&gt;s</title>
<path fill="none" stroke="#00ff00" stroke-width=".1559" d="M54.3642,-103.2109C57.3045,-99.9259 61.596,-96.4324 66,-93.9828 131.8927,-57.3305 221.0055,-38.8043 263.6977,-32.0583"/>
<polygon fill="#00ff00" stroke="#00ff00" stroke-width=".1559" points="264.371,-35.4967 273.7455,-30.5602 263.3386,-28.5732 264.371,-35.4967"/>
</g>
<!-- &#45;7&#45;&gt;s -->
<g id="edge97" class="edge">
<title>&#45;7&#45;&gt;s</title>
<path fill="none" stroke="#00ff00" stroke-width=".4425" d="M66.4382,-106.8374C72.0199,-102.7677 77.9022,-97.3746 84,-93.9828 144.5062,-60.3267 224.5914,-41.9543 264.1737,-33.9523"/>
<polygon fill="#00ff00" stroke="#00ff00" stroke-width=".4425" points="264.863,-37.3838 273.9932,-32.009 263.504,-30.517 264.863,-37.3838"/>
</g>
<!-- &#45;7&#45;&gt;right -->
<g id="edge31" class="edge">
<title>&#45;7&#45;&gt;right</title>
<path fill="none" stroke="#00ff00" stroke-width=".2662" stroke-dasharray="1,5" d="M62.1367,-103.1485C65.7224,-99.6883 70.2086,-96.0874 75,-93.9828 210.08,-34.649 270.4297,-118.4636 405,-57.9828 408.0086,-56.6306 410.9283,-54.8868 413.7007,-52.9259"/>
<polygon fill="#00ff00" stroke="#00ff00" stroke-width=".2662" points="415.9694,-55.5923 421.5182,-46.5668 411.5521,-50.1621 415.9694,-55.5923"/>
</g>
<!-- &#45;7&#45;&gt;jump -->
<g id="edge32" class="edge">
<title>&#45;7&#45;&gt;jump</title>
<path fill="none" stroke="#00ff00" stroke-width=".3875" d="M62.1183,-103.1062C65.7013,-99.6396 70.1903,-96.0453 75,-93.9828 236.6082,-24.6812 306.9434,-126.229 469,-57.9828 471.9088,-56.7578 474.7519,-55.1898 477.4766,-53.4189"/>
<polygon fill="#00ff00" stroke="#00ff00" stroke-width=".3875" points="479.8124,-56.0421 485.7124,-47.2421 475.6123,-50.4421 479.8124,-56.0421"/>
</g>
<!-- &#45;7&#45;&gt;shoot -->
<g id="edge33" class="edge">
<title>&#45;7&#45;&gt;shoot</title>
<path fill="none" stroke="#ff0000" stroke-width=".1038" d="M62.1046,-103.074C65.6855,-99.6024 70.1767,-96.0131 75,-93.9828 264.8236,-14.0779 346.6594,-136.6482 537,-57.9828 539.8475,-56.8059 542.6299,-55.2964 545.2988,-53.5857"/>
<polygon fill="#ff0000" stroke="#ff0000" stroke-width=".1038" points="547.4282,-56.364 553.3779,-47.5975 543.2599,-50.7403 547.4282,-56.364"/>
</g>
<!-- &#45;7&#45;&gt;release -->
<g id="edge34" class="edge">
<title>&#45;7&#45;&gt;release</title>
<path fill="none" stroke="#00ff00" stroke-width=".34" d="M62.1712,-103.2254C65.7622,-99.777 70.243,-96.1641 75,-93.9828 178.6403,-46.4581 223.818,-101.99 329,-57.9828 331.6553,-56.8718 334.2887,-55.5296 336.8574,-54.0393"/>
<polygon fill="#00ff00" stroke="#00ff00" stroke-width=".34" points="338.8323,-56.9298 345.2792,-48.5222 334.9963,-51.0743 338.8323,-56.9298"/>
</g>
<!-- &#45;8 -->
<g id="node8" class="node">
<title>&#45;8</title>
<polygon fill="#d3d3d3" stroke="#000000" points="240,-121.3675 216,-121.3675 216,-103.3675 240,-103.3675 240,-121.3675"/>
<text text-anchor="middle" x="228" y="-110.1675" font-family="Times,serif" font-size="9.00" fill="#000000">&#45;8</text>
</g>
<!-- &#45;8&#45;&gt;s -->
<g id="edge35" class="edge">
<title>&#45;8&#45;&gt;s</title>
<path fill="none" stroke="#ff0000" stroke-width=".5225" d="M234.6503,-103.1263C244.0039,-90.1285 261.2827,-66.1178 273.6429,-48.942"/>
<polygon fill="#ff0000" stroke="#ff0000" stroke-width=".5225" points="276.5899,-50.8389 279.5901,-40.6778 270.9081,-46.7502 276.5899,-50.8389"/>
</g>
<!-- &#45;8&#45;&gt;right -->
<g id="edge36" class="edge">
<title>&#45;8&#45;&gt;right</title>
<path fill="none" stroke="#ff0000" stroke-width=".1337" d="M236.6738,-103.0478C240.2068,-99.7429 244.5138,-96.2783 249,-93.9828 312.3448,-61.5706 341.9332,-90.9326 405,-57.9828 407.7678,-56.5367 410.4821,-54.7936 413.0871,-52.8885"/>
<polygon fill="#ff0000" stroke="#ff0000" stroke-width=".1337" points="415.461,-55.4679 420.967,-46.4161 411.018,-50.0586 415.461,-55.4679"/>
</g>
<!-- &#45;8&#45;&gt;jump -->
<g id="edge37" class="edge">
<title>&#45;8&#45;&gt;jump</title>
<path fill="none" stroke="#00ff00" stroke-width=".1776" d="M236.1949,-103.2763C239.7895,-99.8357 244.2667,-96.2149 249,-93.9828 338.6139,-51.7235 379.1125,-99.6568 469,-57.9828 471.8635,-56.6552 474.6756,-55.0173 477.3804,-53.2012"/>
<polygon fill="#00ff00" stroke="#00ff00" stroke-width=".1776" points="479.7485,-55.7972 485.5856,-46.9553 475.5086,-50.2273 479.7485,-55.7972"/>
</g>
<!-- &#45;8&#45;&gt;shoot -->
<g id="edge38" class="edge">
<title>&#45;8&#45;&gt;shoot</title>
<path fill="none" stroke="#00ff00" stroke-width=".1697" d="M236.1534,-103.1861C239.7417,-99.7317 244.2253,-96.1249 249,-93.9828 366.6941,-41.1802 418.9641,-110.0167 537,-57.9828 539.8193,-56.7399 542.5823,-55.1848 545.2384,-53.4444"/>
<polygon fill="#00ff00" stroke="#00ff00" stroke-width=".1697" points="547.3914,-56.2047 553.2973,-47.4086 543.1951,-50.6019 547.3914,-56.2047"/>
</g>
<!-- &#45;8&#45;&gt;release -->
<g id="edge39" class="edge">
<title>&#45;8&#45;&gt;release</title>
<path fill="none" stroke="#ff0000" stroke-width=".26" d="M237.3486,-103.1244C240.8269,-99.9797 244.923,-96.6016 249,-93.9828 281.805,-72.9107 295.504,-77.9381 329,-57.9828 331.2456,-56.645 333.5139,-55.1974 335.7653,-53.6874"/>
<polygon fill="#ff0000" stroke="#ff0000" stroke-width=".26" points="338.1452,-56.2908 344.2815,-47.6539 334.0985,-50.579 338.1452,-56.2908"/>
</g>
<!-- &#45;9 -->
<g id="node9" class="node">
<title>&#45;9</title>
<polygon fill="#d3d3d3" stroke="#000000" points="880,-121.3675 856,-121.3675 856,-103.3675 880,-103.3675 880,-121.3675"/>
<text text-anchor="middle" x="868" y="-110.1675" font-family="Times,serif" font-size="9.00" fill="#000000">&#45;9</text>
</g>
<!-- &#45;9&#45;&gt;right -->
<g id="edge40" class="edge">
<title>&#45;9&#45;&gt;right</title>
<path fill="none" stroke="#00ff00" stroke-width=".107" d="M859.8777,-103.1155C856.2941,-99.6503 851.8057,-96.0545 847,-93.9828 692.0269,-27.1745 623.3991,-126.1071 469,-57.9828 465.9822,-56.6512 463.0565,-54.921 460.2803,-52.9684"/>
<polygon fill="#00ff00" stroke="#00ff00" stroke-width=".107" points="462.4283,-50.204 452.458,-46.6201 458.0172,-55.6394 462.4283,-50.204"/>
</g>
<!-- &#45;9&#45;&gt;jump -->
<g id="edge41" class="edge">
<title>&#45;9&#45;&gt;jump</title>
<path fill="none" stroke="#ff0000" stroke-width=".4352" d="M859.856,-103.1652C856.2691,-99.7075 851.784,-96.104 847,-93.9828 720.2019,-37.7604 664.162,-113.3771 537,-57.9828 534.1064,-56.7222 531.2737,-55.1301 528.5557,-53.3435"/>
<polygon fill="#ff0000" stroke="#ff0000" stroke-width=".4352" points="530.4223,-50.3676 520.3302,-47.1428 526.2086,-55.9573 530.4223,-50.3676"/>
</g>
<!-- &#45;9&#45;&gt;shoot -->
<g id="edge42" class="edge">
<title>&#45;9&#45;&gt;shoot</title>
<path fill="none" stroke="#00ff00" stroke-width=".2913" d="M859.3208,-103.0584C855.7871,-99.7548 851.4811,-96.2883 847,-93.9828 767.182,-52.9166 661.0428,-37.3787 606.5737,-31.8372"/>
<polygon fill="#00ff00" stroke="#00ff00" stroke-width=".2913" points="606.6812,-28.3315 596.392,-30.8576 606.0108,-35.2993 606.6812,-28.3315"/>
</g>
<!-- &#45;9&#45;&gt;release -->
<g id="edge43" class="edge">
<title>&#45;9&#45;&gt;release</title>
<path fill="none" stroke="#00ff00" stroke-width=".1095" d="M859.8918,-103.0825C856.3104,-99.6122 851.8198,-96.0215 847,-93.9828 665.4774,-17.1975 589.0055,-128.6112 405,-57.9828 402.3128,-56.9513 399.6561,-55.6671 397.0711,-54.2176"/>
<polygon fill="#00ff00" stroke="#00ff00" stroke-width=".1095" points="398.9213,-51.2462 388.6176,-48.7794 395.1341,-57.1332 398.9213,-51.2462"/>
</g>
<!-- &#45;10 -->
<g id="node10" class="node">
<title>&#45;10</title>
<polygon fill="#d3d3d3" stroke="#000000" points="113.5,-121.3675 84.5,-121.3675 84.5,-103.3675 113.5,-103.3675 113.5,-121.3675"/>
<text text-anchor="middle" x="99" y="-110.1675" font-family="Times,serif" font-size="9.00" fill="#000000">&#45;10</text>
</g>
<!-- &#45;10&#45;&gt;s -->
<g id="edge44" class="edge">
<title>&#45;10&#45;&gt;s</title>
<path fill="none" stroke="#00ff00" stroke-width=".1698" stroke-dasharray="1,5" d="M109.7844,-103.0841C113.7691,-99.9357 118.4307,-96.5654 123,-93.9828 170.645,-67.0528 231.6798,-46.1855 264.5363,-35.946"/>
<polygon fill="#00ff00" stroke="#00ff00" stroke-width=".1698" points="265.623,-39.2738 274.1611,-33.0008 263.5747,-32.5802 265.623,-39.2738"/>
</g>
<!-- &#45;10&#45;&gt;right -->
<g id="edge45" class="edge">
<title>&#45;10&#45;&gt;right</title>
<path fill="none" stroke="#00ff00" stroke-width=".1619" d="M108.5333,-103.2009C112.6672,-99.7487 117.7578,-96.1396 123,-93.9828 239.8469,-45.9074 290.233,-110.8315 405,-57.9828 407.9961,-56.6031 410.9075,-54.8413 413.675,-52.8694"/>
<polygon fill="#00ff00" stroke="#00ff00" stroke-width=".1619" points="415.9508,-55.5298 421.4859,-46.4957 411.5252,-50.1062 415.9508,-55.5298"/>
</g>
<!-- &#45;10&#45;&gt;shoot -->
<g id="edge46" class="edge">
<title>&#45;10&#45;&gt;shoot</title>
<path fill="none" stroke="#ff0000" stroke-width=".1029" d="M108.4909,-103.0947C112.6183,-99.6263 117.7155,-96.0337 123,-93.9828 295.1815,-27.1581 366.6271,-129.2924 537,-57.9828 539.8422,-56.7932 542.6209,-55.2748 545.2874,-53.5584"/>
<polygon fill="#ff0000" stroke="#ff0000" stroke-width=".1029" points="547.4214,-56.3332 553.3627,-47.561 543.2478,-50.7135 547.4214,-56.3332"/>
</g>
<!-- &#45;10&#45;&gt;release -->
<g id="edge47" class="edge">
<title>&#45;10&#45;&gt;release</title>
<path fill="none" stroke="#00ff00" stroke-width=".2732" d="M108.5845,-103.3213C112.7262,-99.8876 117.8088,-96.2597 123,-93.9828 208.1156,-56.6497 243.8479,-95.2325 329,-57.9828 331.6371,-56.8292 334.2572,-55.4559 336.8165,-53.9437"/>
<polygon fill="#00ff00" stroke="#00ff00" stroke-width=".2732" points="338.8111,-56.8208 345.2202,-48.3843 334.9489,-50.9827 338.8111,-56.8208"/>
</g>
<!-- &#45;11 -->
<g id="node11" class="node">
<title>&#45;11</title>
<polygon fill="#d3d3d3" stroke="#000000" points="287.5,-121.3675 258.5,-121.3675 258.5,-103.3675 287.5,-103.3675 287.5,-121.3675"/>
<text text-anchor="middle" x="273" y="-110.1675" font-family="Times,serif" font-size="9.00" fill="#000000">&#45;11</text>
</g>
<!-- &#45;11&#45;&gt;s -->
<g id="edge48" class="edge">
<title>&#45;11&#45;&gt;s</title>
<path fill="none" stroke="#00ff00" stroke-width=".1623" d="M274.6626,-103.1263C276.815,-91.162 280.6463,-69.8664 283.6519,-53.1596"/>
<polygon fill="#00ff00" stroke="#00ff00" stroke-width=".1623" points="287.1559,-53.4495 285.4819,-42.9878 280.2665,-52.21 287.1559,-53.4495"/>
</g>
<!-- &#45;11&#45;&gt;right -->
<g id="edge49" class="edge">
<title>&#45;11&#45;&gt;right</title>
<path fill="none" stroke="#00ff00" stroke-width=".1596" d="M282.7531,-103.2993C286.6536,-100.0252 291.3259,-96.516 296,-93.9828 340.854,-69.6727 360.9181,-83.6664 405,-57.9828 407.6982,-56.4107 410.3656,-54.5826 412.9407,-52.6235"/>
<polygon fill="#00ff00" stroke="#00ff00" stroke-width=".1596" points="415.35,-55.1713 420.777,-46.072 410.8601,-49.8009 415.35,-55.1713"/>
</g>
<!-- &#45;11&#45;&gt;jump -->
<g id="edge50" class="edge">
<title>&#45;11&#45;&gt;jump</title>
<path fill="none" stroke="#00ff00" stroke-width=".111" d="M282.6087,-103.0138C286.4915,-99.7046 291.1894,-96.246 296,-93.9828 367.0639,-60.5489 398.4752,-92.5393 469,-57.9828 471.9257,-56.5492 474.8066,-54.8056 477.5786,-52.8924"/>
<polygon fill="#00ff00" stroke="#00ff00" stroke-width=".111" points="479.7201,-55.6609 485.504,-46.7842 475.4468,-50.1166 479.7201,-55.6609"/>
</g>
<!-- &#45;11&#45;&gt;shoot -->
<g id="edge51" class="edge">
<title>&#45;11&#45;&gt;shoot</title>
<path fill="none" stroke="#ff0000" stroke-width=".2218" d="M282.0993,-103.2515C286.0553,-99.8071 290.9395,-96.1901 296,-93.9828 395.2672,-50.6836 438.4319,-102.8506 537,-57.9828 539.8043,-56.7063 542.5568,-55.128 545.2061,-53.3723"/>
<polygon fill="#ff0000" stroke="#ff0000" stroke-width=".2218" points="547.3709,-56.1236 553.2542,-47.3124 543.1602,-50.5316 547.3709,-56.1236"/>
</g>
<!-- &#45;11&#45;&gt;release -->
<g id="edge52" class="edge">
<title>&#45;11&#45;&gt;release</title>
<path fill="none" stroke="#ff0000" stroke-width=".2591" d="M283.4188,-103.1263C296.3848,-91.6257 319.0713,-71.5032 337.5396,-55.1222"/>
<polygon fill="#ff0000" stroke="#ff0000" stroke-width=".2591" points="339.997,-57.621 345.1557,-48.3668 335.352,-52.3841 339.997,-57.621"/>
</g>
<!-- &#45;12 -->
<g id="node12" class="node">
<title>&#45;12</title>
<polygon fill="#d3d3d3" stroke="#000000" points="334.5,-121.3675 305.5,-121.3675 305.5,-103.3675 334.5,-103.3675 334.5,-121.3675"/>
<text text-anchor="middle" x="320" y="-110.1675" font-family="Times,serif" font-size="9.00" fill="#000000">&#45;12</text>
</g>
<!-- &#45;12&#45;&gt;s -->
<g id="edge53" class="edge">
<title>&#45;12&#45;&gt;s</title>
<path fill="none" stroke="#ff0000" stroke-width=".1601" d="M316.4532,-103.1263C311.7636,-90.9076 303.3387,-68.9566 296.8693,-52.1003"/>
<polygon fill="#ff0000" stroke="#ff0000" stroke-width=".1601" points="299.9955,-50.4777 293.1447,-42.3959 293.4603,-52.986 299.9955,-50.4777"/>
</g>
<!-- &#45;12&#45;&gt;right -->
<g id="edge54" class="edge">
<title>&#45;12&#45;&gt;right</title>
<path fill="none" stroke="#ff0000" stroke-width=".2155" d="M330.9768,-103.048C334.7034,-100.0328 338.9502,-96.7545 343,-93.9828 369.2948,-75.9857 379.2735,-76.7832 405,-57.9828 407.4399,-56.1997 409.905,-54.2593 412.3266,-52.2553"/>
<polygon fill="#ff0000" stroke="#ff0000" stroke-width=".2155" points="415.0404,-54.534 420.2938,-45.3333 410.4494,-49.2498 415.0404,-54.534"/>
</g>
<!-- &#45;12&#45;&gt;jump -->
<g id="edge55" class="edge">
<title>&#45;12&#45;&gt;jump</title>
<path fill="none" stroke="#00ff00" stroke-width=".1732" d="M329.6996,-103.1982C333.5936,-99.9117 338.2753,-96.4204 343,-93.9828 394.758,-67.2787 417.6719,-85.5042 469,-57.9828 471.8714,-56.4432 474.7157,-54.6284 477.4647,-52.6702"/>
<polygon fill="#00ff00" stroke="#00ff00" stroke-width=".1732" points="479.6365,-55.415 485.3567,-46.497 475.3237,-49.9013 479.6365,-55.415"/>
</g>
<!-- &#45;12&#45;&gt;shoot -->
<g id="edge56" class="edge">
<title>&#45;12&#45;&gt;shoot</title>
<path fill="none" stroke="#ff0000" stroke-width=".5445" d="M329.1391,-103.3404C333.1012,-99.9096 337.9792,-96.2788 343,-93.9828 422.7509,-57.5126 457.8375,-95.7129 537,-57.9828 539.626,-56.7312 542.2122,-55.2242 544.7139,-53.5634"/>
<polygon fill="#ff0000" stroke="#ff0000" stroke-width=".5445" points="546.9323,-56.2747 552.8293,-47.4726 542.7304,-50.6761 546.9323,-56.2747"/>
</g>
<!-- &#45;12&#45;&gt;release -->
<g id="edge57" class="edge">
<title>&#45;12&#45;&gt;release</title>
<path fill="none" stroke="#00ff00" stroke-width=".1055" d="M325.2094,-103.1263C330.6721,-93.4356 339.5858,-77.6231 347.7806,-63.0858"/>
<polygon fill="#00ff00" stroke="#00ff00" stroke-width=".1055" points="350.8912,-64.6951 352.7529,-54.2651 344.7933,-61.2576 350.8912,-64.6951"/>
</g>
<!-- &#45;13 -->
<g id="node13" class="node">
<title>&#45;13</title>
<polygon fill="#d3d3d3" stroke="#000000" points="381.5,-121.3675 352.5,-121.3675 352.5,-103.3675 381.5,-103.3675 381.5,-121.3675"/>
<text text-anchor="middle" x="367" y="-110.1675" font-family="Times,serif" font-size="9.00" fill="#000000">&#45;13</text>
</g>
<!-- &#45;13&#45;&gt;s -->
<g id="edge58" class="edge">
<title>&#45;13&#45;&gt;s</title>
<path fill="none" stroke="#ff0000" stroke-width=".2643" d="M358.2438,-103.1263C345.3539,-89.5223 321.0331,-63.8543 304.6706,-46.5854"/>
<polygon fill="#ff0000" stroke="#ff0000" stroke-width=".2643" points="307.201,-44.1673 297.7823,-39.3156 302.1197,-48.9819 307.201,-44.1673"/>
</g>
<!-- &#45;13&#45;&gt;right -->
<g id="edge59" class="edge">
<title>&#45;13&#45;&gt;right</title>
<path fill="none" stroke="#00ff00" stroke-width=".3407" d="M374.7587,-103.1263C384.4865,-91.5396 401.5619,-71.2013 415.3699,-54.7548"/>
<polygon fill="#00ff00" stroke="#00ff00" stroke-width=".3407" points="418.0899,-56.9583 421.8393,-47.0491 412.7288,-52.4573 418.0899,-56.9583"/>
</g>
<!-- &#45;13&#45;&gt;jump -->
<g id="edge60" class="edge">
<title>&#45;13&#45;&gt;jump</title>
<path fill="none" stroke="#ff0000" stroke-width=".1881" d="M377.3612,-103.1883C381.1822,-100.0496 385.6445,-96.6589 390,-93.9828 422.8752,-73.7834 436.4493,-78.7009 469,-57.9828 471.5154,-56.3817 474.042,-54.6079 476.5196,-52.7492"/>
<polygon fill="#ff0000" stroke="#ff0000" stroke-width=".1881" points="479.0452,-55.211 484.6677,-46.2311 474.6724,-49.7448 479.0452,-55.211"/>
</g>
<!-- &#45;13&#45;&gt;shoot -->
<g id="edge61" class="edge">
<title>&#45;13&#45;&gt;shoot</title>
<path fill="none" stroke="#00ff00" stroke-width=".1986" d="M376.6514,-103.1024C380.5394,-99.8042 385.2297,-96.3299 390,-93.9828 450.3538,-64.2866 477.1246,-88.6322 537,-57.9828 539.5895,-56.6572 542.1498,-55.098 544.6341,-53.4019"/>
<polygon fill="#00ff00" stroke="#00ff00" stroke-width=".1986" points="546.8809,-56.0903 552.7189,-47.249 542.6416,-50.52 546.8809,-56.0903"/>
</g>
<!-- &#45;13&#45;&gt;release -->
<g id="edge62" class="edge">
<title>&#45;13&#45;&gt;release</title>
<path fill="none" stroke="#ff0000" stroke-width=".1976" d="M367,-103.1263C367,-94.6287 367,-81.424 367,-68.4995"/>
<polygon fill="#ff0000" stroke="#ff0000" stroke-width=".1976" points="370.5001,-68.2896 367,-58.2896 363.5001,-68.2896 370.5001,-68.2896"/>
</g>
<!-- &#45;14 -->
<g id="node14" class="node">
<title>&#45;14</title>
<polygon fill="#d3d3d3" stroke="#000000" points="428.5,-121.3675 399.5,-121.3675 399.5,-103.3675 428.5,-103.3675 428.5,-121.3675"/>
<text text-anchor="middle" x="414" y="-110.1675" font-family="Times,serif" font-size="9.00" fill="#000000">&#45;14</text>
</g>
<!-- &#45;14&#45;&gt;s -->
<g id="edge63" class="edge">
<title>&#45;14&#45;&gt;s</title>
<path fill="none" stroke="#ff0000" stroke-width=".3822" d="M402.489,-103.1018C398.5966,-100.0902 394.1773,-96.8004 390,-93.9828 363.9017,-76.379 355.4297,-75.0848 329,-57.9828 322.056,-53.4894 314.6276,-48.3447 308.0277,-43.6485"/>
<polygon fill="#ff0000" stroke="#ff0000" stroke-width=".3822" points="309.8248,-40.6296 299.6646,-37.626 305.7342,-46.31 309.8248,-40.6296"/>
</g>
<!-- &#45;14&#45;&gt;right -->
<g id="edge64" class="edge">
<title>&#45;14&#45;&gt;right</title>
<path fill="none" stroke="#00ff00" stroke-width=".1451" d="M416.5493,-103.1263C419.3051,-93.1361 423.8557,-76.6401 427.9655,-61.742"/>
<polygon fill="#00ff00" stroke="#00ff00" stroke-width=".1451" points="431.4274,-62.3536 430.7128,-51.7829 424.6795,-60.4921 431.4274,-62.3536"/>
</g>
<!-- &#45;14&#45;&gt;jump -->
<g id="edge65" class="edge">
<title>&#45;14&#45;&gt;jump</title>
<path fill="none" stroke="#ff0000" stroke-width=".5878" d="M423.8646,-103.1263C436.6953,-91.1063 459.5796,-69.6681 477.4501,-52.9268"/>
<polygon fill="#ff0000" stroke="#ff0000" stroke-width=".5878" points="479.8529,-55.4718 484.7579,-46.0807 475.0672,-50.3632 479.8529,-55.4718"/>
</g>
<!-- &#45;14&#45;&gt;shoot -->
<g id="edge66" class="edge">
<title>&#45;14&#45;&gt;shoot</title>
<path fill="none" stroke="#00ff00" stroke-width=".7025" d="M423.7891,-103.3647C427.6941,-100.0987 432.36,-96.5779 437,-93.9828 478.2268,-70.9251 496.144,-81.6913 537,-57.9828 539.5161,-56.5227 542.0245,-54.8683 544.4737,-53.1079"/>
<polygon fill="#00ff00" stroke="#00ff00" stroke-width=".7025" points="546.7698,-55.7556 552.4968,-46.842 542.4612,-50.2387 546.7698,-55.7556"/>
</g>
<!-- &#45;14&#45;&gt;release -->
<g id="edge67" class="edge">
<title>&#45;14&#45;&gt;release</title>
<path fill="none" stroke="#ff0000" stroke-width=".4167" d="M408.7906,-103.1263C403.3279,-93.4356 394.4142,-77.6231 386.2194,-63.0858"/>
<polygon fill="#ff0000" stroke="#ff0000" stroke-width=".4167" points="389.2067,-61.2576 381.2471,-54.2651 383.1088,-64.6951 389.2067,-61.2576"/>
</g>
<!-- &#45;15 -->
<g id="node15" class="node">
<title>&#45;15</title>
<polygon fill="#d3d3d3" stroke="#000000" points="837.5,-121.3675 808.5,-121.3675 808.5,-103.3675 837.5,-103.3675 837.5,-121.3675"/>
<text text-anchor="middle" x="823" y="-110.1675" font-family="Times,serif" font-size="9.00" fill="#000000">&#45;15</text>
</g>
<!-- &#45;15&#45;&gt;s -->
<g id="edge68" class="edge">
<title>&#45;15&#45;&gt;s</title>
<path fill="none" stroke="#00ff00" stroke-width=".2243" d="M813.5196,-103.0674C809.3939,-99.5948 804.295,-96.0065 799,-93.9828 603.3052,-19.1889 526.0877,-129.0251 329,-57.9828 321.1063,-55.1374 313.3526,-50.3334 306.7494,-45.4459"/>
<polygon fill="#00ff00" stroke="#00ff00" stroke-width=".2243" points="308.5527,-42.407 298.5532,-38.9053 304.1864,-47.8784 308.5527,-42.407"/>
</g>
<!-- &#45;15&#45;&gt;right -->
<g id="edge69" class="edge">
<title>&#45;15&#45;&gt;right</title>
<path fill="none" stroke="#ff0000" stroke-width=".1697" d="M813.4863,-103.1526C809.3554,-99.6931 804.2617,-96.0915 799,-93.9828 662.052,-39.0978 603.5703,-118.4636 469,-57.9828 465.9914,-56.6306 463.0717,-54.8868 460.2993,-52.9259"/>
<polygon fill="#ff0000" stroke="#ff0000" stroke-width=".1697" points="462.4479,-50.1621 452.4818,-46.5668 458.0306,-55.5923 462.4479,-50.1621"/>
</g>
<!-- &#45;15&#45;&gt;jump -->
<g id="edge70" class="edge">
<title>&#45;15&#45;&gt;jump</title>
<path fill="none" stroke="#ff0000" stroke-width=".118" d="M813.4563,-103.226C809.3208,-99.7777 804.2318,-96.1647 799,-93.9828 690.5176,-48.7403 644.2607,-106.0499 537,-57.9828 534.1197,-56.692 531.2962,-55.0792 528.584,-53.2794"/>
<polygon fill="#ff0000" stroke="#ff0000" stroke-width=".118" points="530.4528,-50.3043 520.3675,-47.0582 526.2273,-55.8851 530.4528,-50.3043"/>
</g>
<!-- &#45;15&#45;&gt;shoot -->
<g id="edge71" class="edge">
<title>&#45;15&#45;&gt;shoot</title>
<path fill="none" stroke="#ff0000" stroke-width=".1328" d="M812.8229,-103.2124C808.7528,-99.9277 803.8774,-96.4339 799,-93.9828 735.0261,-61.8328 652.7218,-43.367 606.5353,-34.8327"/>
<polygon fill="#ff0000" stroke="#ff0000" stroke-width=".1328" points="606.8866,-31.3399 596.4254,-33.0174 605.6494,-38.2297 606.8866,-31.3399"/>
</g>
<!-- &#45;16 -->
<g id="node16" class="node">
<title>&#45;16</title>
<polygon fill="#d3d3d3" stroke="#000000" points="475.5,-121.3675 446.5,-121.3675 446.5,-103.3675 475.5,-103.3675 475.5,-121.3675"/>
<text text-anchor="middle" x="461" y="-110.1675" font-family="Times,serif" font-size="9.00" fill="#000000">&#45;16</text>
</g>
<!-- &#45;16&#45;&gt;s -->
<g id="edge72" class="edge">
<title>&#45;16&#45;&gt;s</title>
<path fill="none" stroke="#ff0000" stroke-width=".1168" d="M450.7646,-103.3254C446.6873,-100.0546 441.8222,-96.5407 437,-93.9828 392.3028,-70.2727 374.1419,-80.8347 329,-57.9828 321.5137,-54.193 313.8611,-49.1548 307.2254,-44.3426"/>
<polygon fill="#ff0000" stroke="#ff0000" stroke-width=".1168" points="309.0052,-41.3004 298.9183,-38.0591 304.7823,-46.8832 309.0052,-41.3004"/>
</g>
<!-- &#45;16&#45;&gt;right -->
<g id="edge73" class="edge">
<title>&#45;16&#45;&gt;right</title>
<path fill="none" stroke="#00ff00" stroke-width=".3614" d="M458.3399,-103.1263C455.4444,-93.0672 450.6502,-76.4122 446.3387,-61.434"/>
<polygon fill="#00ff00" stroke="#00ff00" stroke-width=".3614" points="449.5899,-60.0757 443.4602,-51.434 442.863,-62.012 449.5899,-60.0757"/>
</g>
<!-- &#45;16&#45;&gt;jump -->
<g id="edge74" class="edge">
<title>&#45;16&#45;&gt;jump</title>
<path fill="none" stroke="#ff0000" stroke-width=".191" d="M465.6552,-103.1263C470.8198,-92.8738 479.4361,-75.7692 487.0916,-60.5718"/>
<polygon fill="#ff0000" stroke="#ff0000" stroke-width=".191" points="490.3216,-61.9395 491.6947,-51.434 484.07,-58.7903 490.3216,-61.9395"/>
</g>
<!-- &#45;16&#45;&gt;shoot -->
<g id="edge75" class="edge">
<title>&#45;16&#45;&gt;shoot</title>
<path fill="none" stroke="#00ff00" stroke-width=".3044" d="M472.0944,-103.2135C475.8289,-100.2093 480.0506,-96.8957 484,-93.9828 506.9165,-77.0802 514.3544,-75.2466 537,-57.9828 539.3134,-56.2191 541.6786,-54.3501 544.0308,-52.4444"/>
<polygon fill="#00ff00" stroke="#00ff00" stroke-width=".3044" points="546.4262,-55.0047 551.8838,-45.9237 541.9544,-49.6193 546.4262,-55.0047"/>
</g>
<!-- &#45;16&#45;&gt;release -->
<g id="edge76" class="edge">
<title>&#45;16&#45;&gt;release</title>
<path fill="none" stroke="#ff0000" stroke-width=".1341" d="M450.5812,-103.1263C437.6152,-91.6257 414.9287,-71.5032 396.4604,-55.1222"/>
<polygon fill="#ff0000" stroke="#ff0000" stroke-width=".1341" points="398.648,-52.3841 388.8443,-48.3668 394.003,-57.621 398.648,-52.3841"/>
</g>
<!-- &#45;17 -->
<g id="node17" class="node">
<title>&#45;17</title>
<polygon fill="#d3d3d3" stroke="#000000" points="522.5,-121.3675 493.5,-121.3675 493.5,-103.3675 522.5,-103.3675 522.5,-121.3675"/>
<text text-anchor="middle" x="508" y="-110.1675" font-family="Times,serif" font-size="9.00" fill="#000000">&#45;17</text>
</g>
<!-- &#45;17&#45;&gt;s -->
<g id="edge77" class="edge">
<title>&#45;17&#45;&gt;s</title>
<path fill="none" stroke="#00ff00" stroke-width=".1627" d="M497.8855,-103.084C493.823,-99.7835 488.9365,-96.3125 484,-93.9828 420.0422,-63.7986 393.5226,-86.9398 329,-57.9828 321.3447,-54.5471 313.6501,-49.5968 307.028,-44.7563"/>
<polygon fill="#00ff00" stroke="#00ff00" stroke-width=".1627" points="308.8207,-41.7186 298.7669,-38.3764 304.5421,-47.2588 308.8207,-41.7186"/>
</g>
<!-- &#45;17&#45;&gt;right -->
<g id="edge78" class="edge">
<title>&#45;17&#45;&gt;right</title>
<path fill="none" stroke="#00ff00" stroke-width=".3634" d="M500.1305,-103.1263C490.2637,-91.5396 472.9444,-71.2013 458.9391,-54.7548"/>
<polygon fill="#00ff00" stroke="#00ff00" stroke-width=".3634" points="461.5254,-52.3934 452.3772,-47.0491 456.1959,-56.9318 461.5254,-52.3934"/>
</g>
<!-- &#45;17&#45;&gt;jump -->
<g id="edge79" class="edge">
<title>&#45;17&#45;&gt;jump</title>
<path fill="none" stroke="#ff0000" stroke-width=".3107" stroke-dasharray="1,5" d="M507.4458,-103.1263C506.877,-93.6416 505.9566,-78.2927 505.1003,-64.0146"/>
<polygon fill="#ff0000" stroke="#ff0000" stroke-width=".3107" points="508.5866,-63.6789 504.4941,-53.9064 501.5991,-64.098 508.5866,-63.6789"/>
</g>
<!-- &#45;17&#45;&gt;shoot -->
<g id="edge80" class="edge">
<title>&#45;17&#45;&gt;shoot</title>
<path fill="none" stroke="#ff0000" stroke-width=".4015" d="M514.9828,-103.1263C523.2763,-92.1504 537.5038,-73.3213 549.5444,-57.3864"/>
<polygon fill="#ff0000" stroke="#ff0000" stroke-width=".4015" points="552.3624,-59.4627 555.5985,-49.3741 546.7774,-55.2426 552.3624,-59.4627"/>
</g>
<!-- &#45;17&#45;&gt;release -->
<g id="edge81" class="edge">
<title>&#45;17&#45;&gt;release</title>
<path fill="none" stroke="#ff0000" stroke-width=".3188" d="M497.1385,-103.2164C493.1467,-100.0804 488.5001,-96.6841 484,-93.9828 450.918,-74.124 438.1014,-77.8091 405,-57.9828 402.7576,-56.6396 400.4917,-55.1881 398.242,-53.6752"/>
<polygon fill="#ff0000" stroke="#ff0000" stroke-width=".3188" points="399.9106,-50.5676 389.7297,-47.6351 395.8598,-56.2765 399.9106,-50.5676"/>
</g>
<!-- &#45;18 -->
<g id="node18" class="node">
<title>&#45;18</title>
<polygon fill="#d3d3d3" stroke="#000000" points="569.5,-121.3675 540.5,-121.3675 540.5,-103.3675 569.5,-103.3675 569.5,-121.3675"/>
<text text-anchor="middle" x="555" y="-110.1675" font-family="Times,serif" font-size="9.00" fill="#000000">&#45;18</text>
</g>
<!-- &#45;18&#45;&gt;s -->
<g id="edge82" class="edge">
<title>&#45;18&#45;&gt;s</title>
<path fill="none" stroke="#ff0000" stroke-width=".4315" d="M545.8701,-103.3203C541.9094,-99.8865 537.0299,-96.2588 532,-93.9828 448.5188,-56.208 413.5566,-93.2848 329,-57.9828 321.2568,-54.75 313.5405,-49.85 306.9253,-44.9933"/>
<polygon fill="#ff0000" stroke="#ff0000" stroke-width=".4315" points="308.7232,-41.9565 298.6881,-38.5582 304.4138,-47.4727 308.7232,-41.9565"/>
</g>
<!-- &#45;18&#45;&gt;right -->
<g id="edge83" class="edge">
<title>&#45;18&#45;&gt;right</title>
<path fill="none" stroke="#ff0000" stroke-width=".2943" d="M544.0344,-103.0316C540.3085,-100.0153 536.0593,-96.7405 532,-93.9828 505.3245,-75.8604 495.1031,-76.9202 469,-57.9828 466.5539,-56.2081 464.0847,-54.2735 461.6603,-52.2733"/>
<polygon fill="#ff0000" stroke="#ff0000" stroke-width=".2943" points="463.5359,-49.2669 453.6888,-45.3572 458.9485,-54.5543 463.5359,-49.2669"/>
</g>
<!-- &#45;18&#45;&gt;jump -->
<g id="edge84" class="edge">
<title>&#45;18&#45;&gt;jump</title>
<path fill="none" stroke="#00ff00" stroke-width=".16" d="M549.2364,-103.1263C542.605,-92.4935 531.3772,-74.491 521.6466,-58.8891"/>
<polygon fill="#00ff00" stroke="#00ff00" stroke-width=".16" points="524.3982,-56.6871 516.1365,-50.0543 518.4587,-60.3915 524.3982,-56.6871"/>
</g>
<!-- &#45;18&#45;&gt;shoot -->
<g id="edge85" class="edge">
<title>&#45;18&#45;&gt;shoot</title>
<path fill="none" stroke="#00ff00" stroke-width=".1943" d="M556.7734,-103.1263C558.5804,-93.7098 561.4967,-78.5133 564.2198,-64.323"/>
<polygon fill="#00ff00" stroke="#00ff00" stroke-width=".1943" points="567.7025,-64.7455 566.1499,-54.2651 560.828,-63.4263 567.7025,-64.7455"/>
</g>
<!-- &#45;18&#45;&gt;release -->
<g id="edge86" class="edge">
<title>&#45;18&#45;&gt;release</title>
<path fill="none" stroke="#00ff00" stroke-width=".3563" d="M545.3031,-103.193C541.4094,-99.9058 536.7272,-96.4155 532,-93.9828 479.8341,-67.137 457.4661,-84.2371 405,-57.9828 402.4259,-56.6947 399.8518,-55.2234 397.3248,-53.6422"/>
<polygon fill="#00ff00" stroke="#00ff00" stroke-width=".3563" points="399.2163,-50.6957 388.9836,-47.9493 395.2702,-56.4775 399.2163,-50.6957"/>
</g>
<!-- &#45;19 -->
<g id="node19" class="node">
<title>&#45;19</title>
<polygon fill="#d3d3d3" stroke="#000000" points="616.5,-121.3675 587.5,-121.3675 587.5,-103.3675 616.5,-103.3675 616.5,-121.3675"/>
<text text-anchor="middle" x="602" y="-110.1675" font-family="Times,serif" font-size="9.00" fill="#000000">&#45;19</text>
</g>
<!-- &#45;19&#45;&gt;s -->
<g id="edge87" class="edge">
<title>&#45;19&#45;&gt;s</title>
<path fill="none" stroke="#ff0000" stroke-width=".3649" d="M592.9065,-103.2381C588.9514,-99.7916 584.0663,-96.1767 579,-93.9828 475.9875,-49.3722 433.2806,-99.5429 329,-57.9828 321.2053,-54.8763 313.4762,-50.0075 306.8652,-45.1408"/>
<polygon fill="#ff0000" stroke="#ff0000" stroke-width=".3649" points="308.6654,-42.1038 298.642,-38.6713 304.3372,-47.6053 308.6654,-42.1038"/>
</g>
<!-- &#45;19&#45;&gt;right -->
<g id="edge88" class="edge">
<title>&#45;19&#45;&gt;right</title>
<path fill="none" stroke="#ff0000" stroke-width=".5123" d="M592.2505,-103.2926C588.3504,-100.0177 583.6775,-96.5097 579,-93.9828 533.7416,-69.5328 513.4818,-83.8187 469,-57.9828 466.2997,-56.4144 463.6309,-54.5887 461.0548,-52.6312"/>
<polygon fill="#ff0000" stroke="#ff0000" stroke-width=".5123" points="463.1351,-49.8084 453.2172,-46.0819 458.6465,-55.1799 463.1351,-49.8084"/>
</g>
<!-- &#45;19&#45;&gt;jump -->
<g id="edge89" class="edge">
<title>&#45;19&#45;&gt;jump</title>
<path fill="none" stroke="#ff0000" stroke-width=".1276" d="M590.9327,-103.161C577.976,-92.3703 555.8841,-73.9333 537,-57.9828 534.7221,-56.0587 532.3618,-54.0589 529.9951,-52.0494"/>
<polygon fill="#ff0000" stroke="#ff0000" stroke-width=".1276" points="531.9189,-49.0908 522.0347,-45.2761 527.3827,-54.4221 531.9189,-49.0908"/>
</g>
<!-- &#45;19&#45;&gt;shoot -->
<g id="edge90" class="edge">
<title>&#45;19&#45;&gt;shoot</title>
<path fill="none" stroke="#ff0000" stroke-width=".1011" d="M598.564,-103.1263C594.9521,-93.4117 589.0528,-77.5453 583.6367,-62.9785"/>
<polygon fill="#ff0000" stroke="#ff0000" stroke-width=".1011" points="586.764,-61.3463 579.9984,-53.193 580.2028,-63.7858 586.764,-61.3463"/>
</g>
<!-- &#45;19&#45;&gt;release -->
<g id="edge91" class="edge">
<title>&#45;19&#45;&gt;release</title>
<path fill="none" stroke="#00ff00" stroke-width=".152" d="M592.3927,-103.0108C588.51,-99.7013 583.8119,-96.2433 579,-93.9828 507.5231,-60.4046 476.852,-90.7507 405,-57.9828 402.3811,-56.7884 399.7743,-55.3855 397.2243,-53.8524"/>
<polygon fill="#00ff00" stroke="#00ff00" stroke-width=".152" points="399.0986,-50.8954 388.8387,-48.2525 395.2111,-56.7167 399.0986,-50.8954"/>
</g>
<!-- &#45;20 -->
<g id="node20" class="node">
<title>&#45;20</title>
<polygon fill="#d3d3d3" stroke="#000000" points="663.5,-121.3675 634.5,-121.3675 634.5,-103.3675 663.5,-103.3675 663.5,-121.3675"/>
<text text-anchor="middle" x="649" y="-110.1675" font-family="Times,serif" font-size="9.00" fill="#000000">&#45;20</text>
</g>
<!-- &#45;20&#45;&gt;s -->
<g id="edge92" class="edge">
<title>&#45;20&#45;&gt;s</title>
<path fill="none" stroke="#ff0000" stroke-width=".1605" d="M639.9308,-103.1811C635.9794,-99.7259 631.0905,-96.1199 626,-93.9828 503.4,-42.512 453.0614,-105.8238 329,-57.9828 321.1711,-54.9637 313.4334,-50.1167 306.8251,-45.243"/>
<polygon fill="#ff0000" stroke="#ff0000" stroke-width=".1605" points="308.6266,-42.2056 298.6113,-38.7497 304.2855,-47.697 308.6266,-42.2056"/>
</g>
<!-- &#45;20&#45;&gt;right -->
<g id="edge93" class="edge">
<title>&#45;20&#45;&gt;right</title>
<path fill="none" stroke="#00ff00" stroke-width=".2139" d="M639.3668,-103.0651C635.481,-99.7623 630.7875,-96.2946 626,-93.9828 561.5341,-62.8525 532.4738,-91.0889 469,-57.9828 466.2312,-56.5386 463.5162,-54.7969 460.9108,-52.8925"/>
<polygon fill="#00ff00" stroke="#00ff00" stroke-width=".2139" points="462.9797,-50.0626 453.0302,-46.4214 458.5374,-55.4725 462.9797,-50.0626"/>
</g>
<!-- &#45;20&#45;&gt;jump -->
<g id="edge94" class="edge">
<title>&#45;20&#45;&gt;jump</title>
<path fill="none" stroke="#00ff00" stroke-width=".3448" d="M638.7021,-103.0827C634.887,-99.9342 630.4123,-96.5642 626,-93.9828 589.171,-72.4359 573.4827,-80.1109 537,-57.9828 534.4506,-56.4364 531.9002,-54.7009 529.4067,-52.8678"/>
<polygon fill="#00ff00" stroke="#00ff00" stroke-width=".3448" points="531.244,-49.8581 521.2318,-46.3928 526.8977,-55.3454 531.244,-49.8581"/>
</g>
<!-- &#45;20&#45;&gt;shoot -->
<g id="edge95" class="edge">
<title>&#45;20&#45;&gt;shoot</title>
<path fill="none" stroke="#00ff00" stroke-width=".541" d="M640.3546,-103.1263C629.6514,-91.6853 610.9656,-71.7116 595.6845,-55.3772"/>
<polygon fill="#00ff00" stroke="#00ff00" stroke-width=".541" points="597.8939,-52.6157 588.5062,-47.7042 592.7821,-57.398 597.8939,-52.6157"/>
</g>
<!-- &#45;20&#45;&gt;release -->
<g id="edge96" class="edge">
<title>&#45;20&#45;&gt;release</title>
<path fill="none" stroke="#00ff00" stroke-width=".3664" d="M639.886,-103.2849C635.9277,-99.8456 631.0458,-96.2234 626,-93.9828 535.0475,-53.594 496.4033,-97.3407 405,-57.9828 402.3563,-56.8444 399.7314,-55.4822 397.1687,-53.9779"/>
<polygon fill="#00ff00" stroke="#00ff00" stroke-width=".3664" points="399.0339,-51.0154 388.7584,-48.4336 395.1811,-56.8597 399.0339,-51.0154"/>
</g>
<!-- s&#45;&gt;s -->
<g id="edge98" class="edge">
<title>s&#45;&gt;s</title>
<path fill="none" stroke="#ff0000" stroke-width=".5009" d="M296.8851,-40.0271C307.5814,-48.3653 320.1421,-44.6867 320.1421,-28.9914 320.1421,-17.7104 313.6532,-12.6372 306.0316,-13.7719"/>
<polygon fill="#ff0000" stroke="#ff0000" stroke-width=".5009" points="304.5231,-10.6131 296.8851,-17.9556 307.4348,-16.9788 304.5231,-10.6131"/>
</g>
<!-- 14 -->
<g id="node26" class="node">
<title>14</title>
<ellipse fill="#ffffff" stroke="#000000" cx="916" cy="-112.3675" rx="18.2703" ry="18.2703"/>
<text text-anchor="middle" x="916" y="-110.1675" font-family="Times,serif" font-size="9.00" fill="#000000">14</text>
</g>
</g>
</svg>
